<?xml version="1.0" encoding="UTF-8"?>
<!DOCTYPE svg PUBLIC "-//W3C//DTD SVG 1.1//EN" "http://www.w3.org/Graphics/SVG/1.1/DTD/svg11.dtd">
<!-- Creator: CorelDRAW X7 -->
<svg xmlns="http://www.w3.org/2000/svg" xml:space="preserve" width="269.321mm" height="203.792mm" version="1.1" style="shape-rendering:geometricPrecision; text-rendering:geometricPrecision; image-rendering:optimizeQuality; fill-rule:evenodd; clip-rule:evenodd"
viewBox="0 0 26932 20379"
 xmlns:xlink="http://www.w3.org/1999/xlink">
 <defs>
  <style type="text/css">
   <![CDATA[
    .fil0 {fill:#2B2A29;fill-rule:nonzero}
   ]]>
  </style>
 </defs>
 <g id="Layer_x0020_1">
  <metadata id="CorelCorpID_0Corel-Layer"/>
  <g id="_1540461094464">
   <polygon class="fil0" points="19710,13998 7443,13998 6795,18055 20381,18055 19710,13998 "/>
   <polygon class="fil0" points="7232,8678 5836,8678 3798,18055 5567,18055 7232,8678 "/>
   <polygon class="fil0" points="21096,8678 19892,8678 21609,18055 23136,18055 21096,8678 "/>
   <polygon class="fil0" points="23533,8678 22066,8678 24544,18746 2389,18746 4867,8678 3400,8678 0,20379 26932,20379 23533,8678 "/>
   <polygon class="fil0" points="12981,8678 8202,8678 7530,13451 12919,13451 12981,8678 "/>
   <polygon class="fil0" points="18923,8678 13951,8678 14013,13451 19619,13451 18923,8678 "/>
   <path class="fil0" d="M1891 3140l2175 0 0 563c-449,-19 -897,-39 -1344,-61l0 138c447,21 895,41 1344,60l0 567c-449,-12 -897,-25 -1344,-39l0 137c447,14 895,27 1344,39l0 568c-449,-6 -897,-12 -1344,-18l0 136c447,6 895,12 1344,18l0 568c-449,1 -897,2 -1344,3l0 136c447,-1 895,-2 1344,-3l0 569c-449,7 -897,15 -1344,23l0 137c447,-9 895,-17 1344,-24l0 568c-449,14 -897,29 -1344,45l0 136c447,-16 895,-31 1344,-45l0 567c-449,21 -897,43 -1344,66l0 138c447,-24 895,-46 1344,-66l0 91 416 0 0 -110c621,-27 1245,-51 1870,-73l0 183 415 0 0 -197c626,-20 1253,-37 1881,-52l0 249 416 0 0 -258c628,-13 1258,-24 1887,-31l0 289 416 0 0 -294c630,-6 1261,-10 1891,-10l0 304 416 0 0 -304c630,0 1261,4 1891,10l0 294 416 0 0 -289c630,7 1259,18 1887,31l0 258 416 0 0 -249c628,15 1255,32 1881,52l0 197 415 0 0 -183c625,22 1249,46 1870,73l0 110 416 0 0 -91c449,20 897,42 1344,66l0 -138c-447,-23 -895,-45 -1344,-66l0 -567c449,14 897,29 1344,45l0 -136c-447,-16 -895,-31 -1344,-45l0 -568c449,7 897,15 1344,24l0 -137c-447,-8 -895,-16 -1344,-23l0 -569c449,1 897,2 1344,3l0 -136c-447,-1 -895,-2 -1344,-3l0 -568c449,-6 897,-12 1344,-18l0 -136c-447,6 -895,12 -1344,18l0 -568c449,-12 897,-25 1344,-39l0 -137c-447,14 -895,27 -1344,39l0 -567c449,-19 897,-39 1344,-60l0 -138c-447,22 -895,42 -1344,61l0 -563 2175 0 0 5288 970 0 0 -6006 -25090 0 0 6006 970 0 0 -5288zm18689 0l1870 0 0 580c-621,25 -1245,47 -1870,66l0 -646zm0 783c625,-20 1249,-41 1870,-66l0 562c-621,16 -1245,30 -1870,43l0 -539zm0 675c625,-13 1249,-27 1870,-43l0 562c-621,8 -1245,14 -1870,20l0 -539zm0 675c625,-6 1249,-12 1870,-20l0 563c-621,-1 -1245,-2 -1870,-3l0 -540zm0 675c625,1 1249,2 1870,3l0 563c-621,-10 -1245,-18 -1870,-26l0 -540zm0 676c625,8 1249,16 1870,26l0 562c-621,-18 -1245,-34 -1870,-49l0 -539zm0 675c625,15 1249,31 1870,49l0 562c-621,-27 -1245,-51 -1870,-72l0 -539zm-2296 -4159l1881 0 0 659c-626,18 -1253,35 -1881,48l0 -707zm0 843c628,-13 1255,-30 1881,-48l0 535c-626,12 -1253,23 -1881,31l0 -518zm0 654c628,-8 1255,-19 1881,-31l0 535c-626,6 -1253,11 -1881,15l0 -519zm0 654c628,-4 1255,-9 1881,-14l0 535c-626,-1 -1253,-2 -1881,-2l0 -519zm0 655c628,0 1255,1 1881,2l0 535c-626,-7 -1253,-14 -1881,-19l0 -518zm0 654c628,5 1255,12 1881,19l0 535c-626,-14 -1253,-26 -1881,-36l0 -518zm0 654c628,10 1255,22 1881,36l0 534c-626,-20 -1253,-37 -1881,-52l0 -518zm-2303 -4114l1887 0 0 716c-628,12 -1257,21 -1887,27l0 -743zm0 879c630,-7 1259,-15 1887,-27l0 515c-628,8 -1257,14 -1887,18l0 -506zm0 642c630,-5 1259,-10 1887,-18l0 515c-628,4 -1257,6 -1887,9l0 -506zm0 641c630,-2 1259,-4 1887,-8l0 515c-628,0 -1257,0 -1887,-1l0 -506zm0 642c630,0 1259,1 1887,1l0 516c-628,-5 -1257,-8 -1887,-11l0 -506zm0 642c630,2 1259,6 1887,11l0 515c-628,-9 -1257,-15 -1887,-21l0 -505zm0 641c630,5 1259,12 1887,21l0 515c-628,-13 -1257,-24 -1887,-31l0 -505zm-2307 -4087l1891 0 0 747c-630,6 -1260,10 -1891,11l0 -758zm0 1319l0 -426c631,0 1261,-4 1891,-10l0 505c-630,3 -1260,6 -1891,6l0 -75zm0 210l463 0 0 0c476,-1 952,-3 1428,-5l0 504c-194,0 -387,0 -581,1l-1310 0 0 -500zm0 635l1461 0c143,0 287,0 430,0l0 504c-46,0 -91,0 -137,0l-1754 0 0 -504zm0 640l1697 0c64,0 129,0 194,0l0 504c-164,0 -329,0 -493,-1l-1398 0 0 -503zm0 638l1183 0c236,1 472,1 708,2l0 504c-599,-4 -1199,-6 -1798,-7l-93 0 0 -499zm0 776l0 -141c631,0 1261,3 1891,7l0 503c-630,-6 -1261,-9 -1891,-10l0 -359zm-2307 -4218l1891 0 0 758c-630,-1 -1261,-5 -1891,-11l0 -747zm0 883c630,6 1261,10 1891,10l0 501c-630,0 -1261,-3 -1891,-6l0 -505zm0 641c509,2 1018,4 1527,5l364 0 0 500 -1310 0c-194,-1 -387,-1 -581,-1l0 -504zm0 640c134,0 269,0 403,0l0 0 1488 0 0 504 -1707 0c-61,0 -123,0 -184,0l0 -504zm0 640c65,0 130,0 195,0l1696 0 0 503 -1360 0c-177,1 -354,1 -531,1l0 -504zm0 640c236,-1 472,-1 708,-2l1183 0 0 499 -92 0c-600,1 -1199,3 -1799,7l0 -504zm0 640c630,-4 1261,-7 1891,-7l0 500c-630,1 -1261,4 -1891,10l0 -503zm-2303 -4084l1887 0 0 743c-629,-6 -1259,-15 -1887,-27l0 -716zm0 852c628,12 1258,20 1887,27l0 506c-629,-4 -1259,-10 -1887,-18l0 -515zm0 651c628,8 1258,13 1887,18l0 506c-629,-3 -1259,-5 -1887,-9l0 -515zm0 651c628,4 1258,6 1887,8l0 506c-629,1 -1259,1 -1887,1l0 -515zm0 651c628,0 1258,-1 1887,-1l0 506c-629,3 -1259,6 -1887,11l0 -516zm0 652c628,-5 1258,-9 1887,-11l0 505c-629,6 -1259,12 -1887,21l0 -515zm0 651c628,-9 1258,-16 1887,-21l0 505c-629,7 -1259,18 -1887,31l0 -515zm-2297 -4108l1881 0 0 707c-628,-13 -1255,-30 -1881,-48l0 -659zm0 795c626,18 1253,35 1881,48l0 518c-628,-8 -1255,-19 -1881,-31l0 -535zm0 671c626,12 1253,23 1881,31l0 519c-628,-4 -1255,-9 -1881,-15l0 -535zm0 671c626,5 1253,10 1881,14l0 519c-628,0 -1255,1 -1881,2l0 -535zm0 671c626,-1 1253,-2 1881,-2l0 518c-628,5 -1255,12 -1881,19l0 -535zm0 671c626,-7 1253,-14 1881,-19l0 518c-628,10 -1255,22 -1881,36l0 -535zm0 671c626,-14 1253,-26 1881,-36l0 518c-628,15 -1255,32 -1881,52l0 -534zm-2285 -4150l1870 0 0 646c-625,-19 -1249,-41 -1870,-66l0 -580zm0 717c621,25 1245,46 1870,66l0 539c-625,-13 -1249,-27 -1870,-43l0 -562zm0 698c621,16 1245,30 1870,43l0 539c-625,-6 -1249,-12 -1870,-20l0 -562zm0 698c621,8 1245,14 1870,20l0 540c-625,1 -1249,2 -1870,3l0 -563zm0 698c621,-1 1245,-2 1870,-3l0 540c-625,8 -1249,16 -1870,26l0 -563zm0 699c621,-10 1245,-18 1870,-26l0 539c-625,15 -1249,31 -1870,49l0 -562zm0 698c621,-18 1245,-34 1870,-49l0 539c-625,21 -1249,45 -1870,72l0 -562z"/>
   <polygon class="fil0" points="21669,1709 5263,1709 5795,0 21183,0 "/>
  </g>
 </g>
</svg>
