<?xml version="1.0" encoding="UTF-8"?>
<!DOCTYPE svg PUBLIC "-//W3C//DTD SVG 1.1//EN" "http://www.w3.org/Graphics/SVG/1.1/DTD/svg11.dtd">
<!-- Creator: CorelDRAW X7 -->
<svg xmlns="http://www.w3.org/2000/svg" xml:space="preserve" width="26.6449mm" height="17.126mm" version="1.1" style="shape-rendering:geometricPrecision; text-rendering:geometricPrecision; image-rendering:optimizeQuality; fill-rule:evenodd; clip-rule:evenodd"
viewBox="0 0 1859 1195"
 xmlns:xlink="http://www.w3.org/1999/xlink">
 <defs>
  <style type="text/css">
   <![CDATA[
    .fil0 {fill:#A75F4A;fill-rule:nonzero}
   ]]>
  </style>
 </defs>
 <g id="Layer_x0020_1">
  <metadata id="CorelCorpID_0Corel-Layer"/>
  <g id="_1379473562832">
   <path class="fil0" d="M589 484c185,0 369,0 553,0 11,0 20,3 28,10 7,6 8,14 8,21 1,10 1,20 0,29 0,6 2,7 8,7 50,0 101,0 152,0 9,0 17,1 25,7 6,5 11,10 11,18 1,5 3,7 8,7 33,0 66,0 99,0 11,-1 20,3 28,10 8,7 11,16 11,26 0,27 0,54 0,82 0,6 1,8 8,8 50,0 100,0 150,0 21,0 30,6 37,26 1,4 3,5 8,5 31,0 63,0 95,0 17,0 29,6 38,20 2,4 2,8 2,12 1,44 1,87 0,130 0,14 -13,28 -26,30 -5,1 -10,1 -16,1 -31,1 -62,1 -93,0 -5,0 -8,1 -9,6 -1,16 -20,28 -35,27 -14,0 -27,0 -41,0 -8,0 -16,1 -23,0 -5,0 -7,2 -7,7 0,26 0,52 0,78 0,3 0,5 0,8 2,21 -14,36 -35,36 -26,1 -53,0 -80,0 -4,0 -9,0 -14,0 -4,0 -8,-1 -11,1 -2,1 -2,6 -4,9 -7,12 -16,21 -31,23 -3,0 -6,0 -8,0 -80,0 -160,0 -239,0 -6,0 -8,2 -8,8 0,11 0,23 -1,35 -1,13 -12,17 -21,21 -4,2 -9,3 -14,3 -145,0 -290,0 -435,0 -168,0 -335,0 -503,0 -55,0 -111,-1 -167,0 -17,0 -29,-11 -35,-22 -1,-4 -2,-9 -2,-13 0,-195 0,-391 0,-586 0,-17 2,-35 0,-52 -2,-20 16,-38 38,-38 179,1 357,0 536,0 5,0 10,0 15,0zm1 646l0 0c169,0 339,0 508,0 9,0 9,0 9,-9 0,-100 0,-200 0,-300 0,-88 0,-176 0,-263 0,-9 0,-9 -9,-9 -209,0 -418,0 -627,0 -130,0 -260,0 -390,0 -9,0 -9,0 -9,9 0,187 0,375 0,562 0,10 0,10 9,10 170,0 339,0 509,0zm965 -228l0 0c27,0 54,0 81,0 9,0 9,-1 9,-9 0,-37 0,-73 0,-110 0,-10 0,-10 -10,-10 -81,1 -163,2 -244,3 -3,0 -7,1 -10,0 -5,0 -7,2 -7,7 0,6 -1,11 -6,15 -10,7 -21,11 -34,11 -49,0 -99,0 -148,0 -6,0 -8,1 -8,7 1,15 1,30 0,44 0,7 2,9 9,9 79,0 157,0 236,0 4,0 8,0 11,0 13,0 30,16 31,26 1,6 3,7 8,7 27,0 55,0 82,0zm-161 32l0 0c-3,0 -5,-1 -7,-1 -67,0 -134,1 -201,0 -6,0 -8,2 -8,8 1,38 1,77 0,115 0,6 2,8 8,8 67,-1 134,-1 201,0 6,0 8,-2 8,-8 -1,-38 -1,-77 -1,-115 0,-2 0,-4 0,-7zm-215 -254l0 0c0,19 0,39 -1,58 0,4 2,7 7,7 37,-1 75,-1 113,0 4,0 6,-2 6,-7 -1,-38 -1,-77 0,-116 0,-5 -2,-6 -7,-6 -37,0 -75,0 -112,0 -5,0 -7,1 -7,6 1,20 1,39 1,58zm268 -33l0 0c-23,0 -46,0 -68,1 -2,0 -4,3 -4,5 0,18 0,35 0,52 0,6 2,7 7,7 17,-1 35,0 53,0 4,0 8,0 12,0 0,-22 0,-43 0,-65zm19 383l0 0c3,0 4,1 6,1 19,0 39,-1 58,0 5,0 7,-2 7,-7 0,-17 0,-35 0,-53 0,-1 -1,-3 -1,-5 -22,0 -44,0 -66,0 -5,0 -4,3 -4,6 0,14 0,28 0,43 0,5 0,10 0,15zm285 -225l0 0c-10,0 -20,0 -30,0 -3,-1 -5,0 -5,4 0,18 0,36 0,54 0,4 1,6 6,6 20,0 40,0 60,0 4,0 5,-1 5,-5 0,-18 0,-36 0,-54 0,-4 -1,-6 -5,-6 -10,1 -20,1 -31,1z"/>
   <path class="fil0" d="M1594 105c0,4 1,8 0,12 -4,21 -32,39 -57,23 -7,-5 -11,-12 -15,-19 -5,-8 -12,-15 -17,-23 -14,-19 -36,-24 -56,-30 -4,-1 -7,0 -11,1 -17,6 -35,11 -53,18 -5,1 -9,5 -13,8 -6,4 -12,8 -17,13 -13,10 -24,20 -37,30 -17,13 -36,17 -56,10 -12,-3 -20,-20 -18,-31 0,-3 0,-5 1,-8 -33,0 -66,0 -100,0 1,3 2,6 3,8 4,10 3,20 -3,29 -8,11 -29,18 -42,13 -19,-7 -36,-17 -53,-28 -14,-10 -29,-18 -44,-27 -9,-5 -17,-11 -26,-16 -16,-10 -32,-17 -51,-11 -6,1 -11,2 -17,2 -13,1 -22,8 -31,16 -5,4 -10,7 -15,10 -33,20 -69,19 -105,14 -15,-2 -30,-7 -45,-11 -28,-6 -55,-7 -82,2 -24,7 -48,15 -70,28 -14,9 -28,17 -41,27 -11,7 -22,9 -35,7 -19,-3 -30,-22 -26,-39 2,-9 9,-13 15,-18 6,-6 6,-6 -1,-12 -7,-5 -12,-12 -19,-17 -8,-7 -17,-13 -27,-19 -1,-1 -5,-1 -7,0 -10,1 -19,2 -29,4 -3,0 -6,2 -9,4 -24,14 -48,28 -72,42 -17,10 -34,19 -50,29 -5,3 -9,5 -14,7 -1,1 -5,0 -5,-1 -4,-5 -6,-10 -10,-14 -5,-8 -11,-16 -16,-23 -1,0 -2,-1 -2,-1 -5,-14 -17,-13 -28,-14 -32,-1 -64,-2 -95,-3 -19,-1 -37,-1 -56,-2 -15,0 -27,-6 -33,-19 -10,-20 2,-43 27,-45 20,-1 39,0 59,1 29,1 57,2 85,3 25,2 49,5 74,6 16,2 31,3 47,3 14,-1 27,-8 39,-16 23,-17 49,-26 78,-28 22,-1 44,4 63,15 12,7 22,17 31,26 13,12 26,23 46,21 16,-2 33,-4 48,-10 5,-2 10,-3 15,-4 30,-9 60,-12 91,-7 16,2 32,7 49,11 20,5 40,8 60,3 5,-1 10,-4 14,-8 10,-6 19,-13 28,-20 13,-8 26,-13 41,-16 24,-5 47,-3 71,1 17,4 31,12 46,20 11,6 23,9 36,9 50,1 101,3 152,3 22,0 44,-4 66,-6 17,-1 34,-1 51,-1 11,0 20,-3 28,-9 36,-23 75,-32 117,-25 21,4 42,11 60,25 13,10 29,12 45,12 22,-1 43,-6 64,-12 35,-10 70,-12 106,-1 12,4 23,10 34,16 16,9 31,17 50,15 12,-1 21,5 27,15 2,5 5,9 6,14 4,15 -14,35 -30,36 -19,1 -38,-1 -55,-8 -17,-7 -33,-17 -51,-24 -6,-3 -13,-6 -20,-5 -24,3 -48,7 -72,11 -12,3 -24,6 -36,8z"/>
   <path class="fil0" d="M750 366c14,0 27,-1 40,0 15,1 26,10 31,22 9,22 -13,41 -29,42 -28,1 -55,1 -83,0 -13,-1 -30,-11 -29,-31 1,-9 1,-19 9,-24 8,-5 16,-8 25,-9 12,-1 24,0 36,0 0,0 0,0 0,0z"/>
   <path class="fil0" d="M1673 494c14,1 29,-1 42,3 22,7 33,29 16,50 -5,7 -14,12 -24,12 -22,0 -45,1 -67,0 -24,-2 -37,-22 -30,-43 4,-11 18,-21 33,-21 10,0 20,0 30,0 0,-1 0,-1 0,-1z"/>
   <path class="fil0" d="M66 366c11,0 21,-1 31,0 13,1 26,5 31,18 9,23 -2,38 -23,45 -4,1 -8,1 -12,1 -18,1 -36,0 -53,1 -14,0 -25,-5 -34,-15 -8,-8 -7,-29 1,-37 9,-10 20,-13 33,-13 9,0 18,0 26,0 0,0 0,0 0,0z"/>
   <path class="fil0" d="M352 327c-9,0 -19,0 -29,0 -15,0 -25,-7 -32,-20 -5,-13 0,-28 11,-36 8,-7 18,-9 28,-9 17,1 33,0 49,0 14,1 25,4 32,17 8,13 8,19 1,32 -7,12 -16,17 -29,16 -10,0 -20,0 -31,0z"/>
   <path class="fil0" d="M957 253c10,0 20,-1 29,0 17,1 26,10 31,22 9,21 -11,41 -29,42 -21,1 -42,1 -63,0 -23,-2 -37,-23 -29,-44 6,-14 18,-19 32,-20 10,-1 19,0 29,0 0,0 0,0 0,0z"/>
   <path class="fil0" d="M1798 1062c13,2 26,3 39,5 4,0 9,4 11,7 6,6 10,12 11,21 1,13 -16,32 -33,33 -19,0 -39,0 -58,0 -10,-1 -18,-5 -24,-14 -8,-10 -10,-24 -4,-34 7,-11 18,-16 31,-16 9,-1 17,0 26,0 0,-1 1,-1 1,-2z"/>
   <path class="fil0" d="M1469 327c-7,0 -14,1 -21,0 -11,-1 -20,-4 -24,-15 -2,-4 -5,-8 -6,-12 -3,-19 14,-37 33,-38 11,0 22,0 33,1 19,0 32,14 36,31 1,7 -9,23 -16,28 -11,8 -23,4 -35,5z"/>
   <path class="fil0" d="M1282 452c-14,0 -27,-4 -35,-17 -6,-11 -5,-29 4,-37 7,-7 17,-10 26,-11 12,-1 23,2 34,8 1,1 2,2 4,4 12,15 10,36 -8,46 -8,5 -16,7 -25,7z"/>
  </g>
 </g>
</svg>
