<?xml version="1.0" encoding="UTF-8"?>
<!DOCTYPE svg PUBLIC "-//W3C//DTD SVG 1.1//EN" "http://www.w3.org/Graphics/SVG/1.1/DTD/svg11.dtd">
<!-- Creator: CorelDRAW X7 -->
<svg xmlns="http://www.w3.org/2000/svg" xml:space="preserve" width="310.953mm" height="387.89mm" version="1.1" style="shape-rendering:geometricPrecision; text-rendering:geometricPrecision; image-rendering:optimizeQuality; fill-rule:evenodd; clip-rule:evenodd"
viewBox="0 0 31095 38789"
 xmlns:xlink="http://www.w3.org/1999/xlink">
 <defs>
  <style type="text/css">
   <![CDATA[
    .fil0 {fill:#2B2A29;fill-rule:nonzero}
   ]]>
  </style>
 </defs>
 <g id="Layer_x0020_1">
  <metadata id="CorelCorpID_0Corel-Layer"/>
  <g id="_1287690640464">
   <path class="fil0" d="M23081 38148l-9617 0 0 -30134 9617 0 0 30134zm-10258 0l-9617 0 0 -30134 9617 0 0 30134zm43 -30775l-10301 0 0 31416 21157 0 0 -31416 -10856 0z"/>
   <polygon class="fil0" points="0,38789 1923,38789 1923,6732 24363,6732 24363,38789 26287,38789 26287,4809 0,4809 "/>
   <path class="fil0" d="M16349 1362c0,-221 -179,-400 -401,-400l-5610 0c-221,0 -400,179 -400,400l0 1122c0,222 179,401 400,401l5610 0c222,0 401,-179 401,-401l0 -1122z"/>
   <path class="fil0" d="M16670 2620c0,324 -262,586 -586,586l-5882 0c-323,0 -585,-262 -585,-586l0 -1393c0,-324 262,-586 585,-586l5882 0c324,0 586,262 586,586l0 1393zm641 -1393c0,-678 -549,-1227 -1227,-1227l-5882 0c-677,0 -1226,549 -1226,1227l0 1393c0,678 549,1227 1226,1227l5882 0c678,0 1227,-549 1227,-1227l0 -1393z"/>
   <path class="fil0" d="M30647 25945c0,295 -240,534 -535,534l-1816 0c-295,0 -535,-239 -535,-534l0 -5664c0,-295 240,-534 535,-534l1816 0c295,0 535,239 535,534l0 5664zm448 -5696c0,-560 -454,-1015 -1015,-1015l-1816 0c-561,0 -1016,455 -1016,1015l0 5664c0,560 455,1015 1016,1015l1816 0c561,0 1015,-455 1015,-1015l0 -5664z"/>
   <path class="fil0" d="M29505 21645l-269 -225 0 892 -192 0 0 -882 -195 215 -154 -170 512 -510 495 510 -197 170zm629 -433c0,-278 -225,-503 -503,-503l-918 0c-278,0 -503,225 -503,503l0 918c0,277 225,502 503,502l918 0c278,0 503,-225 503,-502l0 -918z"/>
   <path class="fil0" d="M29205 25144l-511 -510 148 -170 202 225 0 -774 256 0 0 764 230 -215 173 170 -498 510zm929 -1047c0,-278 -225,-503 -503,-503l-918 0c-278,0 -503,225 -503,503l0 918c0,277 225,502 503,502l918 0c278,0 503,-225 503,-502l0 -918z"/>
  </g>
 </g>
</svg>
