<?xml version="1.0" encoding="UTF-8"?>
<!DOCTYPE svg PUBLIC "-//W3C//DTD SVG 1.1//EN" "http://www.w3.org/Graphics/SVG/1.1/DTD/svg11.dtd">
<!-- Creator: CorelDRAW X7 -->
<svg xmlns="http://www.w3.org/2000/svg" xml:space="preserve" width="384.113mm" height="142.12mm" version="1.1" style="shape-rendering:geometricPrecision; text-rendering:geometricPrecision; image-rendering:optimizeQuality; fill-rule:evenodd; clip-rule:evenodd"
viewBox="0 0 38411 14212"
 xmlns:xlink="http://www.w3.org/1999/xlink">
 <defs>
  <style type="text/css">
   <![CDATA[
    .fil0 {fill:black;fill-rule:nonzero}
   ]]>
  </style>
 </defs>
 <g id="Layer_x0020_1">
  <metadata id="CorelCorpID_0Corel-Layer"/>
  <g id="_1540738019328">
   <path class="fil0" d="M13764 5093l-555 -420 -1340 915c-68,46 -143,77 -223,92 -164,30 -334,-11 -466,-113l-382 -296c-97,141 -194,288 -288,437l3035 0 219 -615z"/>
   <path class="fil0" d="M24412 5546l764 -355 -1449 -23c-360,-5 -647,-302 -642,-662 0,-35 4,-68 10,-101 -266,0 -539,0 -804,0 -1173,-678 -2247,-1174 -2993,-1161 -746,-13 -1821,483 -2993,1161 -315,0 -649,0 -971,0l615 594c1309,-782 2528,-1385 3349,-1371 1116,-19 2970,1103 4784,2264 61,-148 173,-274 330,-346z"/>
   <path class="fil0" d="M38212 10825c2,1 3,2 4,3 6,4 11,8 16,12 -7,-5 -13,-10 -20,-15zm-25 -15c3,2 6,4 10,5 2,2 4,4 8,6 -6,-4 -12,-7 -18,-11zm-37955 -3c1,-1 3,-1 4,-2 7,-3 14,-6 21,-8 -8,3 -17,6 -25,10zm-25 14c3,-2 5,-4 8,-6 3,-1 6,-3 9,-5 -5,4 -11,7 -17,11zm-27 19c5,-4 10,-8 15,-12 2,-1 3,-2 4,-3 -6,5 -13,10 -19,15zm7350 -6435c0,1 1,1 2,1 1,0 1,0 2,1 -1,-1 -3,-1 -5,-2 0,0 0,0 1,0zm30879 6987c-6,-161 -31,-297 -74,-400 -26,-63 -60,-114 -101,-149 1,0 1,0 1,0 0,0 -1,0 -1,-1l0 0c-2445,-2144 -4891,-4288 -7337,-6433 -1,-1 -3,-2 -4,-3 -2,0 -3,-1 -5,-1 -2,-1 -3,0 -5,0 0,0 1,0 1,0 1,0 1,0 2,0 -347,0 -812,0 -1159,0 -227,0 -480,0 -741,0 227,379 433,815 590,1303l1000 0 5453 5031 -33787 0 5040 -4649c5,-47 13,-94 22,-143l2 -12 3 -12c170,-604 352,-1080 595,-1518 -132,0 -259,0 -379,0 1,0 2,0 3,0 0,0 1,0 1,0 -2,0 -4,-1 -5,0 -2,0 -4,1 -5,1 -2,1 -4,2 -4,3 -139,122 -325,285 -465,407 -73,65 -173,152 -247,217 -158,139 -370,324 -529,463 -173,152 -404,355 -578,508 -93,81 -216,189 -310,271 -199,175 -465,408 -664,583 -1515,1328 -3030,2656 -4544,3984l0 0c-1,1 -2,1 -2,1 0,0 0,0 1,0 -40,35 -74,86 -101,149 -42,103 -67,239 -74,400 -7,159 5,342 35,539 30,196 78,405 144,617l120 380c60,190 129,366 204,523 74,156 154,292 236,405 81,113 163,202 243,263 80,60 157,93 228,93 0,0 34914,0 35988,0 71,0 148,-33 227,-93 80,-61 163,-150 244,-263 82,-113 162,-249 236,-405 75,-157 144,-333 204,-523l119 -380c66,-212 115,-421 145,-617 29,-197 42,-380 34,-539z"/>
   <path class="fil0" d="M13831 5947c-470,301 -929,596 -1365,864 -2,160 -42,317 -118,457 567,-346 1175,-740 1795,-1138l-312 -183z"/>
   <path class="fil0" d="M25576 6465c-6,-4 -12,-8 -18,-12l-350 162c85,55 170,109 254,162 36,-108 75,-213 114,-312z"/>
   <path class="fil0" d="M18976 4529c21,-115 -56,-225 -170,-247 -115,-20 -226,56 -246,171 -21,115 55,225 169,246 115,21 226,-55 247,-170z"/>
   <path class="fil0" d="M20753 5033c21,-115 -55,-225 -170,-246 -116,-21 -226,55 -246,170 -22,115 54,226 170,246 114,21 225,-55 246,-170z"/>
   <path class="fil0" d="M21713 5062c21,-115 -55,-225 -170,-246 -116,-21 -225,55 -247,170 -21,115 56,225 170,246 116,21 226,-55 247,-170z"/>
   <path class="fil0" d="M17067 5378c115,21 225,-55 246,-170 21,-115 -56,-225 -170,-247 -115,-20 -226,56 -246,171 -21,115 55,225 170,246z"/>
   <path class="fil0" d="M19977 4342c14,-77 -38,-150 -115,-164 -77,-15 -150,37 -164,114 -14,76 37,150 114,164 76,14 150,-37 165,-114z"/>
   <path class="fil0" d="M18186 4593c14,-77 -37,-151 -113,-165 -77,-14 -152,37 -166,114 -14,77 37,151 115,165 77,14 150,-37 164,-114z"/>
   <path class="fil0" d="M17839 6067c-77,-14 -151,37 -165,114 -14,77 37,151 114,164 77,15 150,-36 164,-113 15,-77 -36,-151 -113,-165z"/>
   <path class="fil0" d="M17157 6137c77,14 151,-36 165,-113 14,-77 -37,-151 -114,-165 -77,-14 -151,37 -165,114 -14,77 37,150 114,164z"/>
   <path class="fil0" d="M23601 6435c14,-77 -37,-151 -114,-165 -77,-13 -151,37 -165,114 -13,77 37,151 114,165 77,14 151,-37 165,-114z"/>
   <path class="fil0" d="M19307 7041c21,-115 -55,-226 -170,-247 -115,-21 -225,56 -246,170 -21,116 55,226 170,247 115,21 225,-55 246,-170z"/>
   <path class="fil0" d="M7327 7864c21,-115 -56,-225 -170,-246 -116,-21 -226,55 -247,170 -21,115 55,226 170,246 116,22 226,-55 247,-170z"/>
   <path class="fil0" d="M13778 7348c22,-115 -55,-226 -170,-247 -115,-21 -225,55 -246,170 -21,115 55,226 170,247 115,21 225,-55 246,-170z"/>
   <path class="fil0" d="M14625 7029c14,-77 -37,-151 -114,-165 -77,-14 -150,37 -165,114 -14,77 37,151 114,165 77,14 151,-37 165,-114z"/>
   <path class="fil0" d="M16786 6593c-13,77 37,150 114,164 77,15 151,-37 164,-114 15,-76 -36,-150 -113,-164 -77,-14 -151,37 -165,114z"/>
   <path class="fil0" d="M22635 5851c77,14 151,-37 165,-114 14,-77 -38,-150 -114,-165 -77,-13 -151,38 -165,114 -14,77 37,151 114,165z"/>
   <path class="fil0" d="M15515 7922c-77,-14 -150,36 -165,114 -14,76 37,150 114,164 77,14 151,-37 165,-114 14,-77 -37,-150 -114,-164z"/>
   <path class="fil0" d="M15733 7359c76,14 150,-37 165,-114 13,-77 -38,-150 -115,-164 -77,-14 -150,37 -164,114 -15,76 37,150 114,164z"/>
   <path class="fil0" d="M13188 7852c14,-77 -37,-151 -114,-165 -76,-14 -151,37 -164,114 -15,77 36,151 113,165 77,14 151,-37 165,-114z"/>
   <path class="fil0" d="M3972 9784c-79,86 -72,220 15,298 86,79 220,72 299,-14 78,-87 72,-221 -15,-299 -87,-79 -221,-72 -299,15z"/>
   <path class="fil0" d="M5816 8248c-78,86 -72,220 15,299 87,78 220,72 299,-15 78,-86 72,-220 -15,-299 -86,-78 -220,-72 -299,15z"/>
   <path class="fil0" d="M5469 9375c-53,58 -48,148 10,200 57,53 147,48 199,-9 53,-58 48,-148 -10,-201 -58,-52 -147,-47 -199,10z"/>
   <path class="fil0" d="M6408 10064c52,-58 48,-147 -10,-200 -58,-53 -148,-48 -201,10 -52,58 -48,147 10,200 58,52 147,48 201,-10z"/>
   <path class="fil0" d="M14651 9787c53,-58 48,-147 -10,-200 -58,-52 -147,-48 -200,10 -53,58 -48,147 10,200 58,53 147,48 200,-10z"/>
   <path class="fil0" d="M11309 9449c-78,87 -72,221 15,300 87,78 221,72 298,-15 80,-87 73,-221 -14,-299 -86,-79 -220,-72 -299,14z"/>
   <path class="fil0" d="M8057 9656c-79,86 -72,220 14,299 87,78 221,72 300,-15 78,-87 72,-220 -15,-299 -87,-78 -221,-72 -299,15z"/>
   <path class="fil0" d="M9502 9968c-78,87 -72,220 15,299 86,78 220,72 298,-15 79,-86 73,-220 -14,-299 -87,-78 -220,-72 -299,15z"/>
   <path class="fil0" d="M16373 9416c78,-87 72,-220 -15,-299 -87,-78 -221,-72 -299,15 -79,86 -72,220 14,298 87,79 221,72 300,-14z"/>
   <path class="fil0" d="M6976 9121c-53,58 -48,148 10,200 58,53 148,49 200,-9 52,-58 48,-148 -10,-200 -58,-53 -148,-48 -200,9z"/>
   <path class="fil0" d="M11864 8816c52,-58 48,-148 -10,-200 -58,-52 -147,-48 -201,10 -52,58 -47,147 11,200 57,52 147,48 200,-10z"/>
   <path class="fil0" d="M12801 9668c-53,58 -49,147 9,200 58,52 148,48 201,-10 52,-58 48,-148 -10,-200 -58,-53 -148,-48 -200,10z"/>
   <path class="fil0" d="M17037 9205c52,-58 48,-148 -10,-200 -58,-53 -148,-48 -201,9 -52,58 -48,148 10,201 58,52 148,47 201,-10z"/>
   <path class="fil0" d="M14217 8199c-53,58 -49,147 9,200 58,52 148,48 200,-10 53,-58 49,-147 -9,-200 -58,-52 -148,-48 -200,10z"/>
   <path class="fil0" d="M18324 8416c79,-87 72,-221 -14,-299 -87,-79 -221,-72 -299,14 -79,87 -72,221 14,299 87,79 221,72 299,-14z"/>
   <path class="fil0" d="M20060 9389c52,-58 48,-147 -10,-200 -58,-52 -147,-48 -200,10 -52,58 -47,147 10,200 58,53 148,48 200,-10z"/>
   <path class="fil0" d="M22816 6520c53,-58 49,-147 -9,-200 -59,-52 -148,-48 -201,10 -52,58 -47,148 10,200 58,52 148,48 200,-10z"/>
   <path class="fil0" d="M34368 10207c53,-58 49,-148 -9,-200 -58,-53 -147,-48 -200,9 -53,59 -48,148 9,200 59,53 148,49 200,-9z"/>
   <path class="fil0" d="M32377 8758c79,-86 72,-220 -14,-299 -87,-78 -221,-72 -299,15 -79,86 -72,221 14,299 87,79 220,72 299,-15z"/>
   <path class="fil0" d="M26073 9784c-78,87 -72,220 15,299 86,78 220,72 299,-15 78,-86 72,-220 -15,-299 -86,-78 -220,-71 -299,15z"/>
   <path class="fil0" d="M25239 9476c78,-87 72,-221 -15,-299 -86,-79 -220,-72 -298,14 -79,87 -72,221 15,299 86,79 219,72 298,-14z"/>
   <path class="fil0" d="M23740 9605c78,-87 72,-220 -14,-299 -87,-78 -221,-72 -300,15 -78,86 -72,220 15,299 87,78 220,71 299,-15z"/>
   <path class="fil0" d="M26835 8944c-78,86 -72,220 15,299 86,78 220,72 299,-15 78,-86 72,-220 -15,-299 -86,-78 -220,-72 -299,15z"/>
   <path class="fil0" d="M31095 6865c-50,55 -47,141 10,192 54,50 140,45 190,-10 51,-55 47,-141 -9,-191 -56,-51 -141,-46 -191,9z"/>
   <path class="fil0" d="M27481 9822c-50,55 -46,141 10,191 55,50 141,46 191,-9 51,-56 46,-141 -9,-192 -56,-50 -141,-46 -192,10z"/>
   <path class="fil0" d="M22556 10061c50,-55 46,-141 -9,-191 -56,-50 -142,-46 -192,9 -50,56 -46,141 9,191 56,51 142,47 192,-9z"/>
   <path class="fil0" d="M28928 9968c-78,87 -72,220 15,299 86,78 221,72 299,-15 79,-86 72,-220 -15,-299 -86,-78 -220,-72 -299,15z"/>
   <path class="fil0" d="M20372 6427c78,-86 72,-220 -15,-299 -87,-78 -221,-71 -299,15 -79,87 -72,220 14,299 87,78 221,72 300,-15z"/>
   <path class="fil0" d="M28135 9121c-52,58 -48,147 10,200 58,52 147,48 200,-10 52,-58 48,-148 -10,-200 -58,-52 -148,-48 -200,10z"/>
   <path class="fil0" d="M21346 9660c53,-58 49,-148 -10,-200 -58,-53 -147,-49 -200,10 -52,57 -48,147 10,199 58,53 147,49 200,-9z"/>
   <path class="fil0" d="M19002 7953c-52,58 -47,148 11,200 57,53 147,48 199,-10 53,-57 49,-147 -10,-200 -58,-52 -147,-47 -200,10z"/>
   <path class="fil0" d="M30556 6797c-52,57 -48,147 10,200 58,52 147,48 199,-10 53,-58 48,-148 -9,-200 -58,-53 -148,-48 -200,10z"/>
   <path class="fil0" d="M13352 8756c-79,87 -72,221 14,299 87,79 221,72 300,-14 78,-87 72,-221 -15,-300 -87,-78 -221,-71 -299,15z"/>
   <path class="fil0" d="M21111 8193c78,-87 72,-221 -15,-300 -86,-78 -220,-72 -298,15 -79,87 -72,221 14,299 87,79 220,72 299,-14z"/>
   <path class="fil0" d="M21530 7067c51,-56 47,-141 -9,-192 -55,-50 -141,-46 -191,10 -51,55 -47,141 9,191 56,50 141,46 191,-9z"/>
   <path class="fil0" d="M23691 7928c79,-87 72,-221 -15,-299 -86,-79 -220,-72 -299,15 -78,86 -72,220 15,298 87,79 220,72 299,-14z"/>
   <path class="fil0" d="M15383 9914c-53,59 -48,148 10,201 57,52 147,48 200,-10 53,-58 48,-148 -10,-200 -58,-53 -147,-48 -200,9z"/>
   <path class="fil0" d="M22422 8809c-58,-53 -147,-48 -200,10 -52,58 -47,147 11,200 57,52 147,48 199,-10 52,-58 48,-148 -10,-200z"/>
   <path class="fil0" d="M30638 8702c86,79 220,72 299,-14 78,-87 72,-221 -15,-299 -86,-79 -221,-72 -299,14 -79,87 -72,221 15,299z"/>
   <path class="fil0" d="M30275 6068c-61,67 -56,171 11,232 68,61 172,56 232,-11 62,-68 57,-171 -11,-232 -67,-61 -171,-56 -232,11z"/>
   <path class="fil0" d="M31227 9119c-58,65 -53,164 12,222 63,59 163,54 221,-10 58,-65 53,-164 -10,-223 -65,-58 -165,-53 -223,11z"/>
   <path class="fil0" d="M32889 9946c-79,86 -72,220 14,298 87,79 220,72 300,-14 77,-87 72,-221 -16,-299 -86,-79 -220,-72 -298,15z"/>
   <path class="fil0" d="M33373 9381c60,-67 55,-171 -12,-232 -67,-61 -171,-56 -232,11 -61,67 -56,171 11,232 67,61 171,56 233,-11z"/>
   <path class="fil0" d="M31393 10218c67,61 171,56 232,-11 61,-67 56,-172 -12,-232 -67,-61 -171,-56 -231,11 -62,67 -56,171 11,232z"/>
   <path class="fil0" d="M30221 9354c67,61 171,56 231,-11 61,-67 56,-171 -11,-232 -67,-61 -171,-56 -232,11 -61,67 -56,172 12,232z"/>
   <polygon class="fil0" points="12378,3284 12182,3542 12469,3759 12751,3566 "/>
   <path class="fil0" d="M16306 6461c273,-360 -313,-1028 -313,-1028l-1137 -1096 -563 397 -600 -455c-42,68 -98,129 -168,177l-71 49 644 487c-83,237 -230,650 -230,650l1364 797c0,0 801,383 1074,22z"/>
   <path class="fil0" d="M11539 1847c0,0 857,453 1536,268 0,0 -960,1035 -1536,-268zm608 -1847c-815,0 -1476,660 -1476,1475 0,815 661,1476 1476,1476 815,0 1475,-661 1475,-1476 0,-815 -660,-1475 -1475,-1475z"/>
   <path class="fil0" d="M12146 6569c-102,-293 -385,-486 -692,-475l-1518 52c186,-369 415,-723 639,-1048l-778 -603c-123,-95 -202,-233 -221,-389 -20,-155 21,-308 118,-432 88,-114 215,-191 355,-217 165,-31 334,10 466,113l730 566c219,-432 185,-959 -188,-1212 -454,-306 -1283,-348 -1906,302 -848,900 -1227,1553 -1570,2774 -175,913 436,1253 976,1457 197,74 357,127 493,127 25,2 50,2 75,2l80 -3 -764 557c-315,229 -384,671 -155,985 139,190 354,291 571,290 144,0 290,-43 415,-135l2622 -1911c250,-182 352,-507 252,-800z"/>
   <path class="fil0" d="M10416 3698c-185,-143 -451,-110 -594,75 -143,185 -110,451 75,594l1383 1072c97,75 220,103 336,81 57,-10 112,-33 162,-66l1655 -1132c193,-132 243,-396 112,-589 -133,-193 -396,-242 -589,-110l-1402 957 -1138 -882z"/>
   <path class="fil0" d="M29495 7892c7,-122 -27,-237 -90,-330 -294,158 -690,350 -1173,549 -167,69 -335,133 -503,196l1203 78c83,5 163,-9 235,-38 181,-75 314,-247 328,-455z"/>
   <path class="fil0" d="M28811 2362c-210,140 -556,176 -1019,-632 -375,-653 -796,-782 -1157,-738 27,49 52,99 74,152 55,135 88,273 103,411 321,306 593,1037 1111,1176 819,221 1098,-509 888,-369z"/>
   <path class="fil0" d="M26030 2017c0,0 -455,1215 -1399,310 0,0 886,85 1399,-310zm-205 948c688,-283 1016,-1071 734,-1759 -283,-689 -1071,-1017 -1759,-734 -689,283 -1017,1070 -734,1759 283,688 1070,1017 1759,734z"/>
   <path class="fil0" d="M29528 6775c-265,-1966 -1471,-3257 -2018,-3664 -547,-408 -1015,-182 -1136,-113 -76,43 -138,96 -190,155l-315 312 -711 703 -1414 -22c-206,-3 -374,160 -377,364 -3,205 160,373 365,377l1570 24c51,1 100,-9 146,-28 44,-18 85,-45 120,-79l545 -539 78 -77 206 -486c55,-130 158,-231 288,-285 133,-54 278,-54 410,2 271,115 397,428 283,699l-636 1502c-52,122 -146,220 -266,276l-432 199c-317,699 -669,1518 -421,2641 2263,-450 3995,-1443 4245,-1647 251,-203 -324,-199 -340,-314z"/>
   <path class="fil0" d="M24826 6481c5,-3 11,-5 16,-7l1565 -726c84,-39 150,-107 186,-191l635 -1503c80,-188 -8,-406 -196,-485 -189,-80 -406,8 -486,197l-579 1370 -1437 666c-186,86 -266,306 -181,492 85,180 295,261 477,187z"/>
  </g>
 </g>
</svg>
