<?xml version="1.0" encoding="UTF-8"?>
<!DOCTYPE svg PUBLIC "-//W3C//DTD SVG 1.1//EN" "http://www.w3.org/Graphics/SVG/1.1/DTD/svg11.dtd">
<!-- Creator: CorelDRAW X7 -->
<svg xmlns="http://www.w3.org/2000/svg" xml:space="preserve" width="21.4935mm" height="20.0117mm" version="1.1" style="shape-rendering:geometricPrecision; text-rendering:geometricPrecision; image-rendering:optimizeQuality; fill-rule:evenodd; clip-rule:evenodd"
viewBox="0 0 154 143"
 xmlns:xlink="http://www.w3.org/1999/xlink">
 <defs>
  <style type="text/css">
   <![CDATA[
    .fil0 {fill:#A75F4A;fill-rule:nonzero}
   ]]>
  </style>
 </defs>
 <g id="Layer_x0020_1">
  <metadata id="CorelCorpID_0Corel-Layer"/>
  <g id="_1379473547248">
   <path class="fil0" d="M48 79c-11,-3 -21,-6 -26,-17 2,0 4,0 6,0 0,0 1,0 1,1 3,4 6,6 11,8 6,2 13,3 20,3 9,0 17,-1 25,-4 4,-2 8,-3 11,-6 2,-3 4,-6 4,-10 -1,-5 1,-8 5,-11 0,0 0,0 0,0 0,8 2,18 -5,24 -2,2 -4,4 -6,5 -4,2 -9,3 -13,5 -1,1 -1,1 -1,2 0,7 0,14 0,20 0,8 4,12 11,12 17,0 34,0 51,0 5,0 8,2 10,6 3,7 3,14 0,20 -2,4 -5,6 -10,6 -17,0 -34,0 -52,0 -23,0 -42,-19 -42,-43 0,-7 0,-14 0,-21zm91 59l0 0c-3,-7 -3,-14 0,-21 -1,0 -2,0 -3,0 -15,0 -30,0 -45,0 -1,0 -2,0 -4,0 -8,-2 -13,-7 -13,-16 0,-6 0,-12 0,-18 0,-2 0,-5 0,-7 -7,0 -14,0 -21,1 0,0 0,1 0,1 0,9 0,18 0,27 0,3 1,6 2,8 4,14 19,25 35,25 15,0 31,0 47,0 1,0 1,0 2,0zm10 -11l0 0c-1,-3 -2,-6 -3,-8 -1,-3 -4,-3 -5,0 -3,5 -3,11 0,17 1,2 4,2 5,-1 1,-2 2,-5 3,-8z"/>
   <path class="fil0" d="M43 58c-13,0 -26,0 -38,0 -4,0 -5,-1 -5,-5 0,-2 0,-5 0,-8 0,-1 1,-3 2,-4 13,-13 26,-26 39,-39 1,-1 3,-2 4,-2 26,0 52,0 78,0 3,0 4,1 4,4 0,0 0,0 0,0 0,12 2,9 -6,17 -12,12 -23,23 -34,35 -1,1 -3,2 -6,2 -12,0 -25,0 -38,0zm-36 -15l0 0c1,0 2,0 2,0 24,0 48,0 72,0 1,0 2,0 3,-1 11,-12 23,-23 34,-35 1,0 1,-1 2,-2 -1,0 -2,0 -3,0 -23,0 -46,1 -70,0 -1,0 -3,1 -4,2 -11,12 -23,23 -34,34 0,1 -1,1 -2,2zm75 3l0 0c-26,0 -51,0 -76,0 0,3 0,4 0,6 25,0 50,0 76,0 0,-2 0,-4 0,-6zm40 -39l0 0c-1,1 -2,2 -2,2 -12,11 -23,23 -34,34 -2,2 -2,4 -2,7 1,0 2,-1 2,-1 12,-12 23,-23 34,-35 2,-2 2,-4 2,-7z"/>
   <path class="fil0" d="M43 33c1,-1 1,-1 2,-2 6,-5 11,-11 17,-17 3,-3 6,-3 10,-2 -2,2 -5,4 -7,7 -5,4 -10,9 -14,14 -2,2 -3,2 -5,1 -1,0 -2,-1 -3,-1z"/>
   <path class="fil0" d="M55 37c8,-8 15,-15 23,-23 0,0 1,0 2,0 1,0 3,1 4,2 -1,2 -3,3 -4,4 -5,5 -10,10 -15,15 -2,3 -6,2 -10,2z"/>
   <path class="fil0" d="M55 13c-6,5 -11,10 -16,16 -1,-3 -1,-5 0,-7 2,-2 4,-4 6,-6 3,-1 6,-2 9,-4 1,1 1,1 1,1z"/>
   <path class="fil0" d="M73 36c5,-5 10,-11 16,-16 1,3 1,5 -1,7 -2,3 -4,5 -7,6 -2,1 -5,2 -8,3 0,0 0,0 0,0z"/>
   <path class="fil0" d="M105 9c0,0 2,1 2,2 0,2 -2,2 -3,2 -2,0 -4,-1 -4,-2 0,-2 2,-2 5,-2z"/>
   <path class="fil0" d="M23 40c-1,-1 -3,-1 -3,-2 0,-2 2,-2 3,-2 2,0 4,-1 5,1 0,2 -2,3 -5,3z"/>
  </g>
 </g>
</svg>
