<?xml version="1.0" encoding="UTF-8"?>
<!DOCTYPE svg PUBLIC "-//W3C//DTD SVG 1.1//EN" "http://www.w3.org/Graphics/SVG/1.1/DTD/svg11.dtd">
<!-- Creator: CorelDRAW X7 -->
<svg xmlns="http://www.w3.org/2000/svg" xml:space="preserve" width="15.8919mm" height="21.5936mm" version="1.1" style="shape-rendering:geometricPrecision; text-rendering:geometricPrecision; image-rendering:optimizeQuality; fill-rule:evenodd; clip-rule:evenodd"
viewBox="0 0 86 116"
 xmlns:xlink="http://www.w3.org/1999/xlink">
 <defs>
  <style type="text/css">
   <![CDATA[
    .fil0 {fill:#A75F4A;fill-rule:nonzero}
   ]]>
  </style>
 </defs>
 <g id="Layer_x0020_1">
  <metadata id="CorelCorpID_0Corel-Layer"/>
  <path class="fil0" d="M33 48c0,0 0,1 0,2 0,10 0,19 0,29 0,2 0,3 0,5 1,7 13,14 21,7 4,-3 6,-6 6,-11 0,-11 0,-22 0,-33 0,-2 0,-3 2,-4 -1,-2 -2,-4 -4,-5 -3,-2 -4,-6 -5,-9 0,-1 1,-2 2,-3 1,1 2,1 2,2 1,3 3,5 5,7 1,1 2,3 3,3 -1,-2 -1,-5 -3,-8 -2,-4 -1,-8 0,-13 1,-1 2,-1 3,-1 1,0 1,2 1,2 0,0 0,1 0,1 -1,4 -1,7 1,11 2,3 2,6 4,8 0,-1 1,-2 1,-3 0,-4 -1,-8 -3,-11 -1,-1 -1,-2 0,-3 1,-1 2,0 3,1 3,3 5,9 4,16 2,-1 3,-3 4,-4 2,-2 3,-2 5,-4 1,3 1,5 -1,7 -2,1 -4,4 -5,6 3,1 3,1 3,4 0,11 0,22 0,32 0,7 -1,12 -4,18 -2,5 -6,9 -10,12 -10,7 -21,10 -32,6 -6,-2 -11,-5 -15,-9 -3,-4 -6,-8 -8,-12 -2,-5 -2,-10 -3,-15 0,-10 0,-19 0,-29 0,-2 0,-3 -2,-3 0,0 -1,0 -2,-1 0,0 0,0 0,0 -6,-6 -6,-6 -6,-14 0,-9 0,-19 0,-28 0,-3 1,-4 4,-4 12,0 24,0 35,0 3,0 4,1 4,3 0,12 0,24 -1,35 0,1 0,3 -1,4 -2,2 -4,5 -8,6zm44 -1l0 0c-3,0 -7,1 -10,0 -2,0 -3,1 -3,3 0,10 0,20 0,30 0,3 0,6 -1,8 -3,5 -7,8 -12,10 -6,1 -12,0 -16,-4 -5,-3 -7,-9 -7,-15 0,-10 0,-20 0,-29 0,-2 -1,-3 -2,-3 -3,1 -6,1 -9,0 -2,0 -2,1 -2,3 0,10 0,20 0,30 0,11 5,20 14,27 4,3 9,4 14,4 5,0 9,0 13,-1 7,-2 12,-6 16,-12 4,-5 6,-10 6,-17 0,-10 0,-21 0,-32 0,0 0,-1 -1,-2zm-43 -42l0 0c0,3 0,6 0,10 0,1 0,3 -2,3 -2,0 -3,-2 -3,-3 0,-3 0,-6 0,-9 0,-1 -1,-1 -1,-2 0,1 -1,1 -1,2 0,3 0,6 0,9 0,1 0,3 -2,3 -2,0 -3,-2 -2,-3 0,-3 0,-5 -1,-7 0,-2 1,-4 -1,-4 -2,0 -1,2 -1,3 0,3 0,5 0,8 0,1 0,3 -2,3 -1,0 -2,-1 -2,-3 0,-1 0,-1 0,-1 0,-3 0,-5 0,-8 0,0 -1,-1 -1,-2 -1,1 -1,2 -1,2 -1,3 0,6 -1,9 0,1 -1,2 -2,3 -1,0 -2,-1 -2,-3 0,-1 0,-2 0,-3 0,-3 0,-5 0,-7 -1,0 -1,-1 -1,-1 -3,0 -3,0 -3,3 0,4 0,9 0,13 0,2 0,2 2,2 10,0 19,0 29,0 2,0 2,0 2,-2 0,-4 0,-8 0,-12 0,-4 0,-4 -4,-3zm0 22l0 0c0,3 0,6 0,9 0,2 -1,2 -3,2 -6,0 -13,0 -19,0 -2,0 -3,0 -3,-2 0,-3 0,-5 0,-7 0,-2 -1,-2 -2,-2 -1,0 -2,0 -2,1 0,3 0,6 0,9 0,3 4,6 6,6 7,0 14,0 21,0 1,0 1,0 2,0 4,-4 4,-4 4,-10 0,-1 0,-2 0,-3 0,-3 0,-3 -3,-3 0,0 -1,0 -1,0zm-13 0l0 0c-1,0 -1,0 -2,0 -6,0 -6,0 -5,5 0,0 0,0 0,1 -1,1 0,1 1,1 4,0 8,0 13,0 0,0 1,-1 1,-1 0,-2 1,-5 -1,-6 0,0 -1,0 -1,0 -2,0 -4,0 -6,0z"/>
 </g>
</svg>
