<?xml version="1.0" encoding="utf-8"?>
<!-- Generator: Adobe Illustrator 27.1.1, SVG Export Plug-In . SVG Version: 6.00 Build 0)  -->
<svg version="1.1" id="Layer_1" xmlns="http://www.w3.org/2000/svg" xmlns:xlink="http://www.w3.org/1999/xlink" x="0px" y="0px"
	 viewBox="0 0 800.31 2031.65" style="enable-background:new 0 0 800.31 2031.65;" xml:space="preserve">
<style type="text/css">
	.st0{opacity:0.5;}
	.st1{fill:#4DB7B3;}
</style>
<g class="st0">
	<path class="st1" d="M417.15,2031.65c-47.54-46.22-101.42-98.61-130.67-163.71c-32.56-72.5-26.22-151.19,16.14-200.49
		c30.66-35.68,76.03-53.11,119.91-69.97c8.56-3.29,17.08-6.57,25.47-9.96c112.68-45.65,211.05-121,284.47-217.9
		c23.51-31.02,96.38-139.05,47.24-226.76c-21.96-39.19-63.54-64.89-103.75-89.74c-52.07-32.19-101.25-62.59-110.33-119.64
		c-6-37.77,9.78-73.68,25.05-108.41c10.84-24.67,22.06-50.18,25.65-76.45c10.53-76.95-45.64-146.47-105.98-181.22
		c-58.54-33.72-127.04-46.31-193.29-58.48c-7.1-1.3-14.18-2.6-21.24-3.93c-69.73-13.08-149.12-31.2-208.68-80.89
		C17.92,366.34-14.6,268.59,6.23,180.87C27.06,93.15,100.05,20.46,187.86,0l0.95,4.07C102.51,24.18,30.77,95.62,10.29,181.84
		c-20.47,86.22,11.49,182.28,79.53,239.05c58.79,49.05,137.56,67.01,206.78,79.99c7.06,1.32,14.13,2.63,21.22,3.93
		c66.6,12.23,135.46,24.88,194.62,58.97C574,599.23,631.28,670.31,620.48,749.18c-3.67,26.84-15.01,52.63-25.97,77.56
		c-15.71,35.75-30.56,69.52-24.75,106.07c8.77,55.16,57.16,85.08,108.4,116.75c40.66,25.14,82.71,51.13,105.2,91.26
		c34,60.68,16.22,147.15-47.56,231.32c-73.87,97.5-172.85,173.31-286.24,219.25c-8.41,3.41-16.96,6.69-25.54,9.99
		c-43.39,16.68-88.26,33.92-118.24,68.8c-41.31,48.07-47.39,125.03-15.49,196.05c28.92,64.38,82.5,116.47,129.77,162.43
		L417.15,2031.65z"/>
</g>
</svg>
