<?xml version="1.0" encoding="utf-8"?>
<!-- Generator: Adobe Illustrator 27.1.1, SVG Export Plug-In . SVG Version: 6.00 Build 0)  -->
<svg version="1.1" id="Layer_1" xmlns="http://www.w3.org/2000/svg" xmlns:xlink="http://www.w3.org/1999/xlink" x="0px" y="0px"
	 viewBox="0 0 481 471" style="enable-background:new 0 0 481 471;" xml:space="preserve">
<style type="text/css">
	.st0{opacity:0.21;}
	.st1{fill:#4DB7B3;}
</style>
<g class="st0">
	<path class="st1" d="M308.58,380.77c-2.83-0.5-5.97-0.99-9.37-1.49c3.57,0.73,6.85,1.23,9.81,1.56L308.58,380.77z"/>
	<path class="st1" d="M352.77,343.54c-3.77-0.8-8.08-1.72-12.85-2.74c-19.03-4.36-45.01-12.64-74.15-24.81
		c-23.5-9.75-42.78-19.74-58.43-28.58c-15.63-8.89-27.64-16.72-36.24-23.26l-0.41-0.3c8.63,6.46,20.06,15.1,35.01,25.33
		c14.97,10.18,33.47,22.02,56.73,33.69c28.74,14.52,56.57,21.39,76.5,23.37c4.99,0.33,9.49,0.63,13.43,0.89
		c3.94,0,7.33-0.29,10.06-0.41c5.42-0.37,8.41-0.58,8.41-0.58s-2.95-0.44-8.31-1.25C359.85,344.48,356.56,344.15,352.77,343.54z"/>
	<path class="st1" d="M394.68,320.26c-1.05,0.32-2.16,0.53-3.31,0.65C392.53,320.81,393.65,320.63,394.68,320.26z"/>
	<path class="st1" d="M395.15,320.13l0.43-0.26c-0.29,0.15-0.6,0.27-0.91,0.38C394.83,320.21,395,320.19,395.15,320.13z"/>
	<path class="st1" d="M376.8,320.48c-7.19-0.72-15.24-2.01-24.17-3.66c-8.93-1.64-18.75-3.76-29.45-6.2
		c-10.58-2.57-21.9-6.06-33.86-10.7c-29.46-11.67-54.31-23.96-72.1-32.79c-17.75-8.9-28.37-14.5-28.37-14.5s8.85,8.08,25.51,19.22
		c16.64,11.02,41.21,25.36,72.26,35.22c12.52,3.85,24.33,6.56,35.31,8.27c10.91,1.59,20.85,2.83,29.91,3.76
		c9.05,0.94,17.18,1.62,24.41,1.94c3.62,0.13,7.01,0.25,10.18,0.16c1.71-0.06,3.36-0.12,4.94-0.29c-1.42,0.12-2.92,0.12-4.42,0.16
		C383.78,321.09,380.4,320.82,376.8,320.48z"/>
	<path class="st1" d="M436.25,261.77c0.57-0.21,1.1-0.47,1.61-0.76C437.35,261.3,436.81,261.55,436.25,261.77z"/>
	<path class="st1" d="M435.92,261.89c0.11-0.04,0.22-0.08,0.32-0.12C436.14,261.81,436.03,261.85,435.92,261.89z"/>
	<path class="st1" d="M438.38,260.69c-0.17,0.11-0.35,0.21-0.52,0.31c0.03-0.02,0.07-0.03,0.1-0.05L438.38,260.69z"/>
	<path class="st1" d="M434.59,262.29c0.46-0.12,0.9-0.25,1.34-0.4C435.49,262.04,435.04,262.17,434.59,262.29z"/>
	<path class="st1" d="M463.93,217.91l0.34-0.34c-0.11,0.13-0.24,0.24-0.36,0.36C463.91,217.92,463.92,217.92,463.93,217.91z"/>
	<path class="st1" d="M463.9,217.93c-0.44,0.42-0.92,0.8-1.44,1.14C462.98,218.73,463.47,218.35,463.9,217.93z"/>
	<path class="st1" d="M447.49,222.59c-6.79,0.44-14.47,0.27-23-0.27c-17.08-1.09-37.58-3.7-61.83-6.88
		c-29.98-3.5-55.87-6.66-74.64-8.41c-15.84-1.52-26.35-2.16-29.21-2.32c0.73-0.46,1.46-0.92,2.19-1.37c0,0.06,0,0.1,0,0.1
		s0.01-0.04,0.03-0.12c8.24-5.13,16.47-10.02,24.47-14.84c5.48-3.38,10.93-6.57,16.3-9.66c3.58,0.92,11.11,2.7,21.77,4.38
		c15.23,2.41,36.94,4.55,61.9,2.9c37.9-2.48,63.91-10.78,79.39-17.79c-15.64,6.81-42.26,11.97-79.43,11.68
		c-24.58-0.17-46.01-0.74-61.37-1.17c-9.88-0.25-17.28-0.44-21.28-0.54c5.15-2.95,10.23-5.79,15.16-8.58
		c5.19-2.93,10.24-5.78,15.12-8.54c4.96-2.62,9.75-5.15,14.35-7.58c4.48-2.34,8.77-4.59,12.86-6.73c-0.01,0.03-0.01,0.05-0.01,0.05
		s0.05-0.06,0.08-0.09c4.31-2.26,8.39-4.39,12.22-6.4c7.61-3.69,14.24-6.9,19.7-9.55c1.13-0.55,2.2-1.06,3.22-1.56
		c4.09-0.51,15.2-2.43,27.29-9.24c12.3-6.85,20.57-12.35,26.29-13.96l0.13-0.04c-5.62,1.72-15.23,4.16-28.8,8.37
		c-16.75,5.3-26.59,15.05-26.59,15.05s0.43-0.03,1.18-0.11c-0.9,0.43-1.83,0.86-2.8,1.32c-3.01,1.42-6.39,3.02-10.08,4.76
		c1.11-0.93,3.4-2.92,6.3-5.93c4.13-4.27,9.43-10.53,14.39-18.55c4.01-6.45,7.49-11.88,10.72-16.13c1.63-2.11,3.19-3.93,4.76-5.35
		c1.56-1.38,3.22-2.54,4.87-2.44l0.15-0.01c-1.63-0.13-3.37,0.84-5.18,1.98c-1.82,1.17-3.77,2.66-5.87,4.41
		c-4.18,3.52-8.99,8.08-14.27,13.79c-6.52,7.07-10.67,14.36-13.19,19.79c-2.12,4.58-3.09,7.83-3.34,8.76
		c-2.84,1.34-5.85,2.76-9.05,4.27c-3.45,1.76-7.1,3.63-10.94,5.59c1.38-1.54,3.89-4.42,7.06-8.48c4.89-6.26,11.26-15.25,17.55-26.26
		c5.08-8.86,9.57-16.27,13.74-22.11c3.44-4.72,6.6-8.59,9.82-10.87c-7.35,4.84-16.94,14.78-28.58,29.5
		c-7.9,10.16-13.07,20.12-16.29,27.44c-2.44,5.57-3.75,9.62-4.24,11.26c-4.26,2.17-8.74,4.46-13.41,6.85
		c-4.63,2.38-9.45,4.87-14.43,7.44c-4.91,2.71-9.99,5.51-15.22,8.39c-5.54,3.05-11.26,6.19-17.07,9.45
		c-0.6-0.02-0.92-0.02-0.92-0.02s0.23,0.07,0.64,0.18c-5.05,2.84-10.17,5.77-15.31,8.87c-1.42,0.84-2.87,1.68-4.31,2.53
		c0.64-1.47,3.92-9.14,8.54-21.29c5.17-13.57,11.93-32.72,18.81-55.02c5.57-17.96,10.67-33.05,15.67-45.27
		c2.5-6.11,5.03-11.47,7.66-16.02c2.66-4.48,5.4-8.43,8.95-10.32l0.32-0.2c-3.57,1.82-6.47,5.63-9.47,9.95
		c-2.97,4.39-5.96,9.57-9.03,15.49c-6.15,11.83-12.79,26.53-19.82,44.2c-8.65,21.86-14.01,41.63-17.3,55.84
		c-2.99,12.97-4.23,21.32-4.42,22.7c-6.19,3.63-12.48,7.33-18.8,11.15c0.88-3.93,2.74-12.37,5.1-24.23
		c1.7-8.34,3.58-18.44,6.08-29.54c0.65-2.72,1.32-5.65,2.22-8.18c1.02-2.84,2.06-5.96,3-8.96c1.88-6.08,3.84-12.41,5.87-18.99
		c6.51-21.09,13.03-38.66,20.17-52.42c7.09-13.62,15.16-23.91,24.14-27.25l0.4-0.18c-8.92,3.22-17.7,12.88-25.99,26.14
		c-8.31,13.36-16.44,30.63-24.44,51.55c-2.47,6.46-4.66,12.8-6.66,18.86c-1,3-1.99,5.93-2.94,8.79c-1.12,3.25-1.67,6.16-2.27,9.08
		c-2.2,11.57-3.2,21.82-3.94,30.38c-1.02,12.56-1.25,21.42-1.3,25.27c-3.55,2.15-7.11,4.34-10.65,6.59
		c-4.43,2.76-8.91,5.54-13.39,8.33c1.4-3.33,5.27-12.85,10.1-27.21c2.97-9.02,6.48-20.09,8.8-32.95c1.18-6.31,2.41-12.88,3.88-19.75
		c1.4-6.67,3.53-13.66,5.72-20.88c7.4-23.25,15.85-42.38,23.87-57.64c8.22-15.03,16.21-26.82,25.4-32.04l0.4-0.27
		c-9.13,5.15-17.97,16.23-27.62,30.72c-9.42,14.71-19.8,33.19-29.18,56.5c-2.8,7.26-5.32,14.36-6.95,21.59
		c-1.62,7.02-2.79,13.83-3.73,20.22c-1.75,12.59-4.12,23.63-5.9,33c-3.01,15.33-4.68,25.72-5.19,28.95
		c-1.25,0.78-2.48,1.54-3.73,2.32c-5.85,3.68-11.62,7.55-17.44,11.33c-0.46,0.3-0.91,0.6-1.37,0.9c1.21-3.94,4.34-14.36,8.32-29.67
		c2.58-9.88,5.49-21.78,8.57-35.23c1.52-6.71,3.12-13.8,4.79-21.21c1.58-7.28,3.79-14.77,6.12-22.61
		c7.68-25.18,15.55-46.21,22.94-63.23c3.74-8.49,7.37-16.01,11.16-22.36c1.87-3.19,3.82-6.08,5.87-8.59
		c1.27-1.52,2.59-2.97,4.06-4.07c-1.34,0.99-2.59,2.26-3.8,3.58c-2.18,2.41-4.25,5.23-6.34,8.31c-4.2,6.15-8.42,13.42-12.87,21.66
		c-8.83,16.53-18.6,36.97-28.19,62.05c-2.91,7.76-5.51,15.46-7.28,23.09c-1.8,7.49-3.29,14.66-4.59,21.48
		c-2.61,13.63-4.45,25.79-5.82,35.95c-2.18,16.23-3.09,27.32-3.37,31.13c-4.22,2.77-8.43,5.54-12.63,8.3
		c0.88-3.54,3.57-14.81,6.73-31.76c1.93-10.37,4.03-22.85,5.92-37.01c0.93-7.08,1.84-14.57,2.55-22.46
		c0.36-3.95,0.69-7.97,0.87-12.17c0.06-2.21,0.33-3.82,0.46-5.8c0.32-1.97,0.65-3.97,0.98-5.97c2.66-13.09,6.32-25.18,9.85-36.16
		c3.56-10.99,7.2-20.91,10.83-29.77c3.59-8.88,7.17-16.7,10.87-23.39c3.67-6.64,7.28-12.5,11.97-15.93l0.41-0.35
		c-4.76,3.34-8.48,9.1-12.61,15.52c-4.12,6.48-8.26,14.09-12.59,22.73c-4.36,8.63-8.83,18.32-13.32,29.15
		c-4.46,10.85-9.07,22.73-12.82,36.3c-0.49,2.15-0.98,4.29-1.46,6.4c-0.29,2.18-0.7,4.62-0.84,6.56c-0.39,4.03-0.78,7.98-1.15,11.85
		c-0.8,7.81-1.56,15.28-2.28,22.36c-1.38,14.18-2.4,26.81-3.09,37.35c-1.18,17.65-1.48,29.4-1.55,32.75
		c-0.88,0.58-1.77,1.16-2.65,1.74c-3.71,2.54-7.38,5.05-11.07,7.57c0.59-4.68,1.79-15.04,2.92-29.65
		c0.79-10.16,1.53-22.37,2.01-36.15c0.24-6.89,0.41-14.17,0.48-21.78c-0.02-3.91,0.11-7.47,0.53-11.35
		c0.38-3.86,0.86-7.83,1.36-11.88c3.45-26.07,7.69-48.13,11.98-66.17c2.16-9.02,4.45-17.04,6.91-24.02
		c2.23-5.94,4.38-11.4,7.58-15.27c-3.13,3.75-5.41,8.95-7.94,14.57c-2.9,6.84-5.8,14.72-8.71,23.62
		c-5.78,17.81-11.98,39.55-17.34,65.84c-0.8,4.07-1.51,8.1-2.08,12.12c-0.6,3.99-0.9,8.23-0.91,11.95
		c-0.18,7.64-0.24,14.96-0.23,21.88c0.03,13.86,0.37,26.16,0.82,36.4c0.67,15.17,1.57,25.8,1.99,30.29
		c-1.78,1.22-3.59,2.45-5.36,3.67c-1.27,0.85-2.51,1.72-3.77,2.58c-0.24-2.76-1.18-14-2.32-31.14c-1.36-19.87-2.7-47.63-2.58-79.55
		c0.29-44.13,8.72-76.42,18.39-96.45c-1.27,2.3-2.59,4.74-3.92,7.35c-2.72,6.74-6.59,14.09-9.15,22.93
		c-5.96,17.39-10.89,39.33-12.95,65.63c-2.43,32.54,0.88,60.93,4.72,80.69c3.31,17.24,6.81,28.1,7.66,30.64
		c-3.9,2.67-7.75,5.36-11.54,8.05c-0.33-4.28-1.17-14.27-2.76-28.4c-2.04-19.18-5.84-45.93-9.98-76.51
		c-1.69-12.28-2.2-23.66-2.41-34.3c-0.22-10.58-0.03-20.24,0.77-28.95c1.54-17.31,5.49-31.39,12.85-39.23l0.31-0.38
		c-7.35,7.72-12.35,21.42-15.45,38.86c-1.57,8.75-2.67,18.52-3.35,29.25c-0.37,5.37-0.6,10.97-0.76,16.83
		c-0.09,5.93,0.05,12.07,0.41,18.42c1.93,31.37,7.66,58.02,12.16,76.88c3.46,14.16,6.45,23.91,7.72,27.88
		c-3.4,2.42-6.76,4.83-10.1,7.21c-1.01-4.68-2.96-13.76-5.62-26.08c-3.9-18.52-9.61-44.31-14.77-74.18
		c-4.13-24.06-5.46-44.84-4.05-61.97c1.37-17.13,6.01-30.46,11.75-39.13l0.24-0.42c-5.64,8.65-11.36,21.51-14.28,38.81
		c-2.99,17.25-3.66,38.62-1.26,63.53c2.99,30.83,10.7,56.77,17.03,74.77c4.38,12.27,8.22,20.91,10.23,25.18
		c-2.03,1.45-4.05,2.89-6.06,4.31c-0.47,0.34-0.93,0.68-1.4,1.02c-1.21-3.41-4.45-12.58-9.11-25.77
		c-5.87-17.06-14.09-40.83-21.88-68.63c-6.26-22.4-9.37-42.02-9.85-58.42c-0.44-16.4,1.7-29.54,4.9-38.91l0.12-0.45
		c-3.12,9.36-6.27,22.22-7.39,38.9c-1.03,16.65,0.11,37.01,4.74,60.47c5.75,29.04,16.02,52.85,24.25,69.12
		c6.51,12.8,11.87,21,13.88,23.94c-9.9,7.22-19.44,14.27-28.44,21.05c-9.48,7.26-18.48,14.06-26.62,20.57
		c-32.76,25.74-53.49,44.37-53.49,44.37l-0.02,0.02c-0.93,0.86-1,2.31-0.14,3.24c0.86,0.93,2.3,0.99,3.24,0.14
		c0,0,20.38-18.71,52.82-44.75c6.43-5.25,13.42-10.72,20.75-16.44c0.87,4.1,2.64,11.23,5.97,20.47
		c5.25,14.95,14.86,35.24,29.7,56.06c24.21,33.35,45.12,52.72,56.7,65.34l0.28,0.29c-11.72-12.45-29.64-34.76-50.5-69.67
		c-12.67-21.65-23.67-40.43-31.11-54.2c-4.81-8.72-8.26-15.33-10.13-18.99c1.56-1.21,3.1-2.42,4.69-3.66
		c4.17-3.21,8.47-6.49,12.86-9.81c0.51,3.19,2.12,11.7,6.4,23.64c5.55,15.19,15.47,36.33,32.95,56.19
		c13.97,15.99,27.91,27.39,39.98,35.83c6.2,4,11.77,7.54,16.82,10.47c5.19,2.7,9.68,5.12,13.49,7.31l0.36,0.19
		c-3.83-2.14-8.22-4.75-13.18-7.81c-4.87-3.2-10.02-7.33-15.76-11.81c-11.07-9.56-23.46-22.15-35.63-38.83
		c-15.12-20.51-26.21-39.74-33.94-53.72c-6.04-11.08-9.82-18.92-11.14-21.72c3.9-2.95,7.88-5.94,11.92-8.95
		c3.87,8.33,9.47,18.92,17.75,31.43c8.73,13.12,20.55,28.33,37.12,43.91c20.45,19.38,42.5,31.12,58.58,37.54
		c2,0.84,3.9,1.63,5.7,2.39c1.82,0.69,3.59,1.21,5.21,1.75c3.25,1.01,6.04,1.89,8.33,2.6c4.54,1.3,7.05,2.02,7.05,2.02
		s-2.25-1.32-6.32-3.7c-2.06-1.15-4.58-2.55-7.52-4.19c-1.47-0.8-3.05-1.67-4.72-2.58c-1.63-1-3.36-2.07-5.17-3.18
		c-14.73-8.52-34.72-21.27-56-38.31c-17.2-13.69-30.27-27.26-40.1-39.33c-9.45-11.69-16-21.94-19.89-30.35
		c1.59-1.19,3.17-2.37,4.78-3.57c0.95-0.69,1.91-1.39,2.87-2.09c1.27,2.56,5.76,11.17,14.46,23.01
		c5.34,6.98,11.97,15.31,20.56,23.65c4.14,4.33,9.01,8.39,14.01,12.72c2.54,2.12,5.3,4.09,8.05,6.16c2.76,2.06,5.57,4.17,8.65,6
		c19.36,12.43,37.27,20.38,52.66,24.84c3.74,1.43,7.53,1.99,11,2.89c3.5,0.79,6.75,1.67,9.86,2.28c2.51,0.34,4.85,0.67,7.09,1
		c-19-3.87-46.07-14.05-76.05-37.16c-2.82-2-5.42-4.2-8-6.33c-2.57-2.14-5.17-4.12-7.61-6.2c-4.78-4.29-9.58-8.13-13.78-12.17
		c-8.71-7.74-15.98-15.15-22.18-21.21c-10.12-10.32-16.62-17.52-18.51-19.64c0.83-0.6,1.67-1.21,2.5-1.82
		c0.08,0.15,0.13,0.26,0.13,0.26s-0.03-0.12-0.07-0.31c2.49-1.81,4.99-3.64,7.51-5.48c6.76,7.01,15.66,16.33,27.53,27.49
		c12,11.19,26.96,24.35,46.37,37.8c24.03,16.6,48.09,26.31,65.69,30.73c4.43,1.06,8.38,2.05,11.88,2.72
		c3.53,0.45,6.57,0.84,9.05,1.16c4.9,0.51,7.6,0.8,7.6,0.8s-2.55-0.92-7.18-2.58c-2.32-0.78-5.17-1.74-8.47-2.85
		c-3.25-1.31-6.95-2.8-11.06-4.45c-16.42-6.65-38.53-17.55-63.25-31.88c-19.91-11.57-35.91-23.01-48.77-32.98
		c-12.84-10.02-22.51-18.7-29.24-25.81l-0.15-0.15c6.33-4.62,12.76-9.29,19.38-13.83c5.59-3.91,11.23-7.85,16.89-11.81
		c2.4-1.61,4.82-3.24,7.22-4.85c2.91,2.26,12.02,8.98,26.89,16.9c18.2,9.9,45.31,21.27,77.98,28.66
		c52.77,11.47,90.21,11.21,112.61,12.36l0.52,0.02c-22.38-0.93-59.77-4.85-111.03-19.72c-31.54-9.43-58.61-18.71-77.68-26.28
		c-15.33-5.93-25.56-10.54-29.01-12.13c3.24-2.18,6.48-4.35,9.73-6.53c4.06-2.69,8.1-5.41,12.15-8.09
		c1.97,1.1,11.73,6.41,27.61,13.34c8.94,3.87,19.78,8.28,32.38,12.41c6.3,2.07,13.04,4.03,20.25,5.71c7.3,1.68,14.8,2.75,22.62,3.75
		c25.16,3.05,46.53,4.38,64.27,4.92c8.87,0.25,16.83,0.25,23.89-0.04c3.53-0.15,6.83-0.41,9.9-0.8c1.7-0.24,3.34-0.51,4.87-0.92
		c-1.39,0.35-2.87,0.56-4.39,0.74c-3.06,0.33-6.37,0.44-9.89,0.38c-7.05-0.1-14.97-0.71-23.77-1.69
		c-17.59-1.99-38.76-5.28-63.49-10.1c-7.6-1.53-15.05-2.91-21.88-4.58c-6.9-1.7-13.52-3.51-19.79-5.31
		c-12.54-3.66-23.68-6.9-33.01-9.62c-16.33-4.77-27.05-7.63-29.45-8.27c1.68-1.11,3.35-2.23,5.03-3.32c3.62-2.3,7.2-4.58,10.79-6.86
		c3.3,1.5,12.16,5.39,25.47,10.05c17.11,5.96,41.56,13.33,70.59,17.62c23.35,3.47,43.34,4.95,59.88,5.13
		c16.58,0.18,29.61-1.55,39.34-3.18l0.45-0.07c-9.71,1.7-22.86,2.6-39.25,0.9c-16.39-1.62-35.97-5.02-58.83-10.25
		c-28.23-6.44-52.88-11.88-70.62-15.44c-13.27-2.69-22.64-4.4-26.5-5.08c2.02-1.29,4.06-2.59,6.08-3.86
		c2.41-1.57,4.82-3.09,7.24-4.61c2.44,0.78,12.58,3.93,28.45,7.6c18.26,4.18,44.41,9.31,74.74,10.57
		c24.35,1.36,45.07,2.02,62.24,1.65c8.58-0.19,16.28-0.62,23.06-1.46c3.39-0.44,6.55-0.97,9.44-1.74c1.57-0.43,3.08-0.94,4.44-1.59
		c-1.23,0.57-2.6,0.99-4,1.34C454.06,221.94,450.89,222.34,447.49,222.59z"/>
	<path class="st1" d="M462.46,219.07c-0.06,0.04-0.13,0.08-0.19,0.12C462.33,219.15,462.39,219.11,462.46,219.07z"/>
	<path class="st1" d="M462.26,219.19c-0.41,0.26-0.86,0.48-1.31,0.7C461.41,219.68,461.85,219.44,462.26,219.19z"/>
	<path class="st1" d="M445.91,200.22c-0.23,0.18-0.46,0.36-0.7,0.52C445.45,200.58,445.68,200.4,445.91,200.22z"/>
	<path class="st1" d="M446.6,199.67c-0.21,0.2-0.46,0.37-0.69,0.55c0.13-0.1,0.28-0.19,0.41-0.3L446.6,199.67z"/>
	<path class="st1" d="M445.21,200.75c-0.34,0.22-0.69,0.43-1.06,0.63C444.51,201.17,444.87,200.97,445.21,200.75z"/>
	<path class="st1" d="M415.39,205c-6.72-0.15-14.15-0.58-22.15-1.71c-8.01-1.28-16.81-3-26.3-4.62
		c-46.92-8.24-82.64-8.21-82.64-8.21s34.25,9.59,81.75,14.26c9.58,0.9,18.34,1.84,26.54,2.43c8.25,0.45,15.74,0.19,22.5-0.24
		c6.76-0.46,12.79-1.21,18.08-2.22c4.05-0.87,7.85-1.66,10.81-3.22c-2.88,1.47-6.6,2.12-10.51,2.69
		C428.16,204.85,422.11,205.11,415.39,205z"/>
	<path class="st1" d="M444.15,201.37c-0.05,0.03-0.1,0.06-0.16,0.09C444.05,201.43,444.09,201.4,444.15,201.37z"/>
	<path class="st1" d="M467.65,167c-0.89,0.43-1.82,0.86-2.79,1.3c1.1-0.48,2.16-0.97,3.15-1.46L467.65,167z"/>
	<path class="st1" d="M387.47,166.65c-32.48,3.89-55.47,4.38-69.26,3.16l-0.32-0.02c13.76,1.05,36.61,3.96,69.93,2.96
		c20.59-0.68,38.32-4.34,50.58-7.99c6.17-1.72,10.95-3.57,14.23-4.85c3.22-1.31,5.03-2.04,5.03-2.04s-1.93,0.22-5.38,0.61
		c-3.49,0.46-8.52,1.12-14.72,1.94C424.92,162.01,407.62,164.15,387.47,166.65z"/>
	<path class="st1" d="M342.34,157.37c0,0,5.73,1.04,15.34,1.44c9.6,0.41,23.11,0.15,38.37-2.62c24.61-4.45,41.06-10.12,50.89-13.5
		l0.23-0.08c-9.84,3.59-27.05,5.99-51.77,7.51c-15.28,0.95-28.49,2.72-37.95,4.29C348,155.98,342.34,157.37,342.34,157.37z"/>
	<path class="st1" d="M406.14,141.77c18.36-5.47,30.07-11.69,37.35-14.75l0.17-0.08c-7.24,3.24-20.16,6.32-38.74,8.84
		c-11.47,1.58-21.29,3.67-28.35,5.49c-7.05,1.79-11.32,3.21-11.32,3.21s4.39,1,11.77,1.18C384.36,145.8,394.75,145.18,406.14,141.77
		z"/>
	<path class="st1" d="M411.9,76.48c-0.22,0.12-0.45,0.26-0.67,0.39c0.17-0.09,0.34-0.2,0.51-0.28L411.9,76.48z"/>
	<path class="st1" d="M409.6,77.88c0.55-0.36,1.1-0.7,1.62-1.01C410.68,77.16,410.14,77.5,409.6,77.88z"/>
	<path class="st1" d="M346.58,141.55c-3.3,8.51-4.75,13.91-4.75,13.91s3.58-4.22,8.67-11.87c4.93-7.71,11.41-18.9,16.1-33.02
		c3.92-11.31,5.67-21.38,8.05-29.15c2.52-7.78,6.9-13.04,10.24-16.65l0.15-0.18c-3.25,3.71-8.24,8.23-12.07,15.91
		c-3.63,7.71-6.82,17.15-12.01,27.72C354.72,121.32,349.74,132.97,346.58,141.55z"/>
	<path class="st1" d="M340.45,107.43c-16.97,32.63-23.07,59.66-23.07,59.66s14.98-23.02,28.58-57c5.5-13.68,10.2-25.26,14.38-34.73
		c4.21-9.44,7.79-16.93,11.83-21.7l0.17-0.23c-3.99,4.76-8.26,11.87-13.56,20.83C353.49,83.25,347.33,94.24,340.45,107.43z"/>
	<path class="st1" d="M304.18,157.39c-3.45,12.87-4.75,20.79-4.75,20.79s3.6-7.12,8.9-19.26c5.32-12.14,12.27-29.29,19.37-49.36
		c5.74-16.15,10.9-29.74,15.93-40.68c5.06-10.83,9.71-19.54,15.55-23.99l0.26-0.22c-5.83,4.38-11.14,12.66-17.35,23.06
		c-6.15,10.5-12.82,23.62-20,39.42C313.23,126.69,307.66,144.54,304.18,157.39z"/>
	<path class="st1" d="M286.71,23.46c0.06-0.04,0.12-0.08,0.19-0.11C286.83,23.39,286.77,23.42,286.71,23.46z"/>
	<path class="st1" d="M286.89,23.35c0.27-0.16,0.55-0.31,0.84-0.44C287.45,23.04,287.17,23.19,286.89,23.35z"/>
	<path class="st1" d="M287.73,22.9c0.01-0.01,0.03-0.01,0.04-0.02C287.76,22.89,287.75,22.9,287.73,22.9z"/>
	<path class="st1" d="M289.24,22.34c-0.51,0.13-0.99,0.32-1.47,0.54c0.32-0.14,0.64-0.27,0.97-0.37L289.24,22.34z"/>
	<path class="st1" d="M285.86,24.04c0.03-0.02,0.06-0.05,0.09-0.07C285.92,23.99,285.89,24.02,285.86,24.04z"/>
	<path class="st1" d="M285.95,23.97c0.25-0.18,0.5-0.35,0.75-0.51C286.45,23.62,286.2,23.79,285.95,23.97z"/>
	<path class="st1" d="M220.72,32.82c0.05-0.06,0.1-0.13,0.15-0.19C220.82,32.69,220.77,32.76,220.72,32.82z"/>
	<path class="st1" d="M220.87,32.63c0.37-0.43,0.76-0.83,1.15-1.22C221.63,31.8,221.24,32.2,220.87,32.63z"/>
	<path class="st1" d="M222.29,31.13c-0.09,0.09-0.18,0.19-0.27,0.29c0.22-0.21,0.42-0.45,0.64-0.65L222.29,31.13z"/>
	<path class="st1" d="M195.82,39.15c-0.08,0.17-0.18,0.34-0.26,0.51c0.01-0.02,0.02-0.04,0.03-0.05L195.82,39.15z"/>
	<path class="st1" d="M190.69,48.61c1.78-3.23,3.45-6.19,4.87-8.95C193.92,42.3,192.29,45.29,190.69,48.61z"/>
	<path class="st1" d="M89.38,212.48c2.07,7.03,4.25,13.57,8.14,19.93c7.37,10.85,14.13,19.92,19.92,27.58
		c11.57,15.21,19.15,23.88,19.15,23.88s-5-10.3-14.51-26.87c-4.71-8.26-10.71-18.18-17.47-28.99c-2.7-4.73-4.94-11.25-6.94-17.84
		c-2.09-6.64-3.91-13.74-5.78-21.1c-11.41-47.65-11.77-82.83-6.74-103.11l0.09-0.48c-4.79,20.11-8.93,55.2-0.86,104.96
		C85.72,198.11,87.3,205.48,89.38,212.48z"/>
	<path class="st1" d="M51.43,151.11c0.39,3.43,0.61,7.09,1.51,10.84c0.75,3.79,1.55,7.77,2.38,11.96c1.18,4.11,2.42,8.41,3.71,12.91
		c2.9,8.91,6.58,18.47,11.36,28.48c11.91,24.77,27.58,43.22,39.45,55.19c12.05,11.95,20.52,17.6,20.52,17.6s-6.34-7.84-16.29-21.15
		c-9.84-13.4-23.35-32.2-36.86-55.09c-10.73-18.5-18.06-35.38-21.87-50.06c-1.24-3.61-1.86-7.15-2.51-10.5
		c-0.64-3.36-1.25-6.53-1.82-9.51c-0.47-6.04-0.82-11.36-0.99-15.93L50,125.45c0.23,4.56,0.35,9.87,0.41,15.98
		C50.73,144.46,51.07,147.69,51.43,151.11z"/>
	<path class="st1" d="M90.32,288.47c10.44,11.49,17.58,17.52,17.58,17.52s-4.79-7.96-13.16-20.82c-8.35-12.9-20.41-30.6-34.36-50.86
		c-11.26-16.32-19.91-30.76-25.99-43.34c-6.08-12.58-8.94-23.45-9.9-31.82l-0.07-0.39c1.11,8.29,2.8,19.41,7.65,32.77
		c4.75,13.34,11.81,29.04,21.74,46.68C66.08,260.06,79.93,276.98,90.32,288.47z"/>
</g>
</svg>
