<?xml version="1.0" encoding="UTF-8"?>
<!DOCTYPE svg PUBLIC "-//W3C//DTD SVG 1.1//EN" "http://www.w3.org/Graphics/SVG/1.1/DTD/svg11.dtd">
<!-- Creator: CorelDRAW X7 -->
<svg xmlns="http://www.w3.org/2000/svg" xml:space="preserve" width="15.5429mm" height="30.532mm" version="1.1" style="shape-rendering:geometricPrecision; text-rendering:geometricPrecision; image-rendering:optimizeQuality; fill-rule:evenodd; clip-rule:evenodd"
viewBox="0 0 82 161"
 xmlns:xlink="http://www.w3.org/1999/xlink">
 <defs>
  <style type="text/css">
   <![CDATA[
    .fil0 {fill:#A75F4A;fill-rule:nonzero}
   ]]>
  </style>
 </defs>
 <g id="Layer_x0020_1">
  <metadata id="CorelCorpID_0Corel-Layer"/>
  <g id="_1379455033936">
   <g>
    <g>
     <path class="fil0" d="M48 12c2,1 5,1 8,0 1,-1 2,-1 3,-2 1,0 1,0 2,0 0,0 -1,0 -1,1 -3,1 -6,2 -9,2 -2,0 -3,0 -4,-1l1 0z"/>
     <path class="fil0" d="M49 15c2,1 5,0 7,0 0,-1 1,-1 2,-1 0,0 1,-1 1,0 0,0 0,0 0,0 -2,1 -5,2 -7,2 -1,0 -2,0 -3,-1l0 0z"/>
     <path class="fil0" d="M51 17c1,1 3,1 4,0 1,0 1,0 2,0 0,0 0,0 0,0 0,0 0,0 0,0 -1,1 -3,1 -4,1 -1,0 -2,0 -2,0l0 -1z"/>
    </g>
    <g>
     <path class="fil0" d="M9 45c-2,0 -3,0 -4,0 0,1 0,1 0,2 0,8 0,15 0,23 0,2 -1,4 -1,6 0,6 0,12 0,18 0,8 0,15 0,23 0,1 -1,1 -1,2 0,0 0,1 0,2 0,11 0,23 0,34 0,2 0,3 -2,4 0,1 0,1 -1,2 5,0 9,0 14,0 -1,-1 -1,-1 -2,-2 -1,-1 -1,-2 -1,-4 0,-11 0,-23 0,-35 0,0 0,-1 -1,-1 0,-1 0,-1 0,-2 0,-10 0,-20 0,-30 0,-4 0,-8 -1,-13 -1,-9 0,-19 0,-28 0,0 0,0 0,-1z"/>
     <path class="fil0" d="M38 9c8,-2 16,-3 25,-4 0,-1 -1,-3 -2,-3 -2,-2 -5,-2 -7,-2 -5,1 -9,2 -14,5 -1,0 -2,1 -2,4z"/>
     <path class="fil0" d="M5 44c1,0 2,0 4,0 0,-1 0,-3 0,-4 -2,-4 0,-7 1,-10 3,-8 9,-14 17,-17 2,-2 5,-3 8,-4 1,0 2,0 2,-2 0,0 0,0 -1,0 -8,2 -16,6 -22,13 -5,5 -7,11 -8,18 -1,2 -1,3 -1,5 0,1 0,1 0,1z"/>
     <path class="fil0" d="M46 8c2,4 13,2 14,-2 -1,0 -3,1 -4,1 0,0 -1,0 -1,1 -1,1 -2,2 -4,0 0,-1 -1,-1 -2,0 -1,0 -1,0 -2,0 -1,0 -1,0 -1,0z"/>
    </g>
   </g>
   <g>
    <g>
     <path class="fil0" d="M59 45c2,1 4,1 7,0 0,0 1,-1 2,-1 0,0 1,0 1,0 0,0 0,0 0,0 -3,2 -5,2 -8,2 -1,0 -2,0 -3,0l1 -1z"/>
     <path class="fil0" d="M60 48c2,0 4,0 5,0 1,-1 1,-1 2,-1 0,0 0,0 1,0 0,0 0,0 0,0 -2,1 -4,2 -6,1 -1,0 -1,0 -2,0l0 0z"/>
     <path class="fil0" d="M62 50c1,0 2,0 3,0 0,-1 0,-1 1,-1 0,0 0,0 0,0 0,0 0,0 0,0 -1,1 -2,1 -3,1 -1,0 -1,0 -2,0l1 0z"/>
    </g>
    <g>
     <path class="fil0" d="M29 71c-1,0 -2,0 -3,0 0,1 0,1 0,2 0,6 0,11 0,17 0,2 -1,3 -1,5 0,5 0,9 0,14 0,6 0,12 0,18 0,0 0,1 -1,1 0,1 0,1 0,2 0,9 0,18 0,27 0,1 0,2 -1,3 0,0 -1,1 -1,1 4,0 7,0 11,0 -1,0 -1,-1 -1,-1 -1,-1 -2,-2 -2,-3 0,-9 0,-18 0,-27 0,-1 1,-2 0,-2 -1,0 -1,0 -1,-1 0,-8 0,-15 0,-23 0,-3 1,-7 0,-10 -1,-8 0,-15 0,-22 0,0 0,-1 0,-1z"/>
     <path class="fil0" d="M51 43c7,-1 13,-2 19,-3 1,-1 0,-2 -1,-3 -1,-1 -3,-1 -5,-1 -4,1 -7,2 -11,4 -1,0 -2,1 -2,3z"/>
     <path class="fil0" d="M26 71c1,0 2,0 3,0 0,-2 0,-3 0,-4 -2,-3 0,-5 1,-8 2,-6 7,-10 13,-13 2,-1 4,-2 6,-3 1,0 2,0 1,-1 0,0 0,-1 0,-1 -6,2 -13,5 -17,10 -4,4 -6,9 -7,15 0,1 0,2 0,4 0,0 0,0 0,1z"/>
     <path class="fil0" d="M58 43c1,2 10,1 11,-2 -1,0 -3,0 -4,0 0,0 0,1 0,1 -1,1 -2,2 -3,1 -1,-1 -1,-1 -2,-1 0,0 -1,0 -2,0 0,0 0,0 0,1z"/>
    </g>
   </g>
   <g>
    <g>
     <path class="fil0" d="M70 71c2,1 4,1 6,0 0,0 1,0 1,-1 1,0 1,0 1,0 0,0 0,0 0,0 -2,2 -4,2 -6,2 -1,0 -1,0 -2,0l0 -1z"/>
     <path class="fil0" d="M71 73c2,1 3,0 4,0 1,0 1,0 2,-1 0,0 0,0 0,0 0,0 0,1 0,1 -1,0 -3,1 -4,1 -1,0 -1,0 -2,-1l0 0z"/>
     <path class="fil0" d="M73 75c0,0 1,0 2,0 0,-1 0,-1 1,-1 0,0 0,0 0,0 0,0 0,0 0,0 -1,1 -2,1 -3,1 0,0 0,0 -1,0l1 0z"/>
    </g>
    <g>
     <path class="fil0" d="M47 91c-1,0 -1,0 -2,0 0,1 0,1 0,1 0,5 0,10 0,14 0,1 -1,3 -1,4 0,3 0,7 0,11 0,4 0,9 0,14 0,0 0,0 0,1 0,0 -1,0 -1,1 0,7 0,14 0,21 0,1 0,1 0,2 -1,0 -1,1 -1,1 3,0 5,0 8,0 0,0 0,-1 -1,-1 -1,-1 -1,-1 -1,-2 0,-7 0,-14 0,-21 0,-1 0,-1 0,-1 0,-1 -1,-1 -1,-1 0,-6 1,-12 1,-18 0,-3 0,-6 -1,-8 0,-6 0,-12 0,-17 0,0 0,0 0,-1z"/>
     <path class="fil0" d="M64 69c5,0 10,-1 15,-2 0,-1 0,-1 -1,-2 -1,-1 -2,-1 -4,-1 -3,1 -5,2 -8,3 -1,0 -2,1 -2,2z"/>
     <path class="fil0" d="M45 91c0,0 1,0 2,0 0,-1 0,-2 0,-3 -1,-2 0,-4 1,-6 2,-5 5,-8 10,-10 1,-1 3,-2 5,-2 0,0 1,-1 1,-2 0,0 0,0 0,0 -6,2 -10,4 -14,8 -3,3 -4,7 -5,11 0,1 0,2 0,3 0,0 0,1 0,1z"/>
     <path class="fil0" d="M69 69c2,2 9,1 9,-1 -1,0 -2,0 -3,0 0,0 0,1 0,1 -1,1 -2,1 -2,0 -1,0 -1,0 -2,0 0,0 -1,0 -1,0 0,0 0,0 -1,0z"/>
    </g>
   </g>
   <g>
    <g>
     <path class="fil0" d="M77 108c1,1 2,1 3,0 0,0 1,0 1,0 0,0 0,0 0,0 0,0 0,0 0,0 -1,0 -2,1 -3,1 -1,0 -1,0 -1,-1l0 0z"/>
     <path class="fil0" d="M77 109c1,1 2,1 3,0 0,0 0,0 0,0 1,0 1,0 1,0 0,0 0,0 0,0 -1,0 -2,1 -3,1 0,0 0,0 -1,-1l0 0z"/>
     <path class="fil0" d="M78 110c0,0 1,0 1,0 1,0 1,0 1,0 0,0 0,0 0,0 0,0 0,0 0,0 0,0 -1,1 -1,0 -1,0 -1,0 -1,0l0 0z"/>
    </g>
    <g>
     <path class="fil0" d="M63 120c0,0 -1,0 -1,0 0,0 0,1 0,1 0,2 0,5 0,8 0,1 -1,1 -1,2 0,2 0,4 0,6 0,3 0,6 0,9 0,0 0,0 0,0 0,0 0,1 0,1 0,4 0,8 0,12 0,1 0,1 -1,2 0,0 0,0 0,0 2,0 3,0 5,0 0,0 -1,0 -1,0 0,-1 0,-1 0,-2 0,-4 0,-8 0,-12 0,-1 0,-1 -1,-1 0,0 0,0 0,0 0,-4 0,-7 0,-11 0,-2 0,-3 0,-5 0,-3 0,-6 0,-10 0,0 0,0 0,0z"/>
     <path class="fil0" d="M73 107c3,0 6,-1 9,-1 0,-1 0,-1 -1,-1 0,-1 -1,-1 -2,-1 -2,0 -3,1 -5,2 0,0 -1,0 -1,1z"/>
     <path class="fil0" d="M62 120c0,0 1,0 1,0 0,-1 0,-1 0,-2 -1,-1 0,-2 0,-3 2,-3 4,-5 6,-6 1,-1 2,-1 3,-2 1,0 1,0 1,0 0,0 0,-1 0,0 -3,0 -6,2 -8,4 -2,2 -3,4 -3,7 0,0 0,1 0,1 0,1 0,1 0,1z"/>
     <path class="fil0" d="M76 107c1,1 5,1 5,-1 0,0 -1,0 -1,0 0,1 0,1 -1,1 0,0 0,1 -1,0 0,0 0,0 -1,0 0,0 0,0 -1,0 0,0 0,0 0,0z"/>
    </g>
   </g>
  </g>
 </g>
</svg>
