<?xml version="1.0" encoding="UTF-8"?>
<!DOCTYPE svg PUBLIC "-//W3C//DTD SVG 1.1//EN" "http://www.w3.org/Graphics/SVG/1.1/DTD/svg11.dtd">
<!-- Creator: CorelDRAW X7 -->
<svg xmlns="http://www.w3.org/2000/svg" xml:space="preserve" width="319.113mm" height="239.931mm" version="1.1" style="shape-rendering:geometricPrecision; text-rendering:geometricPrecision; image-rendering:optimizeQuality; fill-rule:evenodd; clip-rule:evenodd"
viewBox="0 0 31911 23993"
 xmlns:xlink="http://www.w3.org/1999/xlink">
 <defs>
  <style type="text/css">
   <![CDATA[
    .fil0 {fill:black;fill-rule:nonzero}
   ]]>
  </style>
 </defs>
 <g id="Layer_x0020_1">
  <metadata id="CorelCorpID_0Corel-Layer"/>
  <g id="_1540737979488">
   <path class="fil0" d="M8987 9969c-133,-179 -387,-216 -567,-83l-213 158 824 0c-12,-25 -26,-51 -44,-75z"/>
   <path class="fil0" d="M3689 13607l-278 2386 2950 -5294c-203,-177 -459,-297 -747,-330 -758,-89 -1444,454 -1532,1212 -54,465 130,902 454,1191l-684 508c-107,80 -163,203 -163,327z"/>
   <path class="fil0" d="M8383 13545l-121 134 803 0c-22,-61 -57,-119 -109,-165 -167,-150 -423,-136 -573,31z"/>
   <path class="fil0" d="M11795 7383l1205 1703 175 247 -546 979 -4933 0 149 -268 1484 -2661 2466 0zm-1924 -974l229 -412 715 0 292 412 189 268 -1575 0 150 -268zm309 -1412l0 -2386c0,-895 728,-1623 1623,-1623l188 0c895,0 1623,728 1623,1623l0 2586 -3434 0 0 -200zm13740 16682l-917 0 -11094 -15682 917 0 11094 15682zm-13316 -7732l-4933 0 149 -268 957 0 -161 -117c-48,-35 -101,-58 -156,-70 -22,-6 -45,-11 -68,-14l-432 -50 327 -587c235,-178 412,-430 496,-727l1474 -1096 3979 0 -1632 2929zm-2025 3635l-4933 0 149 -268 3897 0 4 -11c65,-217 16,-452 -129,-625 -145,-173 -368,-261 -593,-234l-528 63 215 -1854 71 0 758 555c72,53 156,79 240,79 111,0 222,-46 302,-135l447 -499 1732 0 -1632 2929zm-2026 3635l-4933 0 150 -267 1210 -2173 -800 2173 1429 0 980 -2662 1410 0 -612 2030c-69,228 -10,464 135,632l868 0 450 -807 559 -1855 787 0 -1633 2929zm-6478 1324l-75 135 616 343 611 -1096 595 0 -104 283c-128,348 50,733 397,861 76,28 155,41 232,41 272,0 529,-168 629,-439l275 -746 2909 0 -341 613 -75 135 616 343 7267 -13042 8282 11707 -17 0c-259,0 -470,212 -470,471l0 0c0,258 211,470 470,470l9549 0c259,0 470,-212 470,-470l0 0c0,-259 -211,-471 -470,-471l-677 0 -3077 -4349c-44,46 -91,91 -142,130 -199,152 -436,233 -686,233 -355,0 -681,-161 -897,-443l-1143 -1490 -2428 -391c-127,-20 -248,-62 -360,-123 -551,-186 -964,-1228 -968,-1239l-947 -2790 -3077 -2271c-391,-289 -474,-842 -185,-1233 165,-225 430,-359 709,-359 190,0 371,60 524,173l1726 1274c-13,-32 -26,-65 -37,-98 -155,-475 -116,-981 110,-1427 91,-181 209,-342 349,-480l-718 -1015 -80 0 0 -584 -226 0 0 -2587c0,-1439 -1171,-2610 -2610,-2610l-189 0c-769,0 -1462,335 -1941,867 221,313 384,669 473,1053 260,-551 821,-932 1468,-932l189 0c894,0 1623,728 1623,1622l0 2587 -3622 0 0 -2586c0,-1440 -1172,-2611 -2611,-2611l-188 0c-1440,0 -2611,1171 -2611,2611l0 2586 -1138 0 0 800 1239 0 -9218 16544z"/>
   <path class="fil0" d="M20988 10195l-3153 -2327c-203,-151 -491,-108 -641,96 -150,204 -107,491 97,641l3184 2351 991 2919c69,211 495,963 728,976 78,50 167,84 264,100l2595 417 1245 1625c139,181 349,276 561,276 149,0 300,-47 428,-145 310,-237 368,-680 131,-989l-1416 -1848c-109,-143 -270,-239 -448,-267l-577 -93 835 -314 2724 1114c88,36 178,53 267,53 278,0 542,-165 654,-439 147,-360 -26,-772 -386,-920l-2981 -1219c-164,-67 -348,-70 -515,-7l-1136 427 -855 -2519 2706 -2710c179,-179 179,-470 0,-649 -179,-179 -470,-178 -649,1l-2857 2862 -1796 588z"/>
   <path class="fil0" d="M22582 8186c-429,1386 -1522,453 -1522,453 709,107 1522,-453 1522,-453zm-579 1310c759,-248 1173,-1065 925,-1825 -248,-759 -1065,-1172 -1824,-924 -760,248 -1174,1065 -925,1824 248,760 1065,1173 1824,925z"/>
   <path class="fil0" d="M13176 23000l-874 993 5359 0c-413,-443 -2121,-2362 -2063,-3759 73,18 143,38 210,59 333,104 595,234 704,292l1094 1306c77,92 187,139 297,139 88,0 177,-30 250,-91 164,-137 185,-382 48,-547l-1141 -1361c-28,-34 -62,-63 -100,-85 -65,-38 -1603,-931 -2928,-414 -365,118 -1601,765 -2120,1041l-1514 -757c-192,-96 -425,-19 -521,173 -95,192 -18,425 174,520l1693 847c113,57 246,55 357,-4 275,-148 604,-320 923,-484 78,-40 155,-79 231,-118 -187,1222 -79,2250 -79,2250z"/>
   <path class="fil0" d="M17324 17607c-178,266 -566,476 -1502,-247 -438,-338 -809,-462 -1122,-463 33,48 66,96 95,147 144,252 214,532 211,815 443,286 949,678 1456,612 1069,-140 1040,-1131 862,-864z"/>
   <path class="fil0" d="M12427 18282c636,330 1586,62 1586,62 -852,1174 -1586,-62 -1586,-62zm236 -1703c-700,399 -944,1290 -545,1991 399,700 1290,944 1990,545 701,-399 945,-1290 546,-1990 -399,-701 -1290,-945 -1991,-546z"/>
  </g>
 </g>
</svg>
