<?xml version="1.0" encoding="UTF-8"?>
<!DOCTYPE svg PUBLIC "-//W3C//DTD SVG 1.1//EN" "http://www.w3.org/Graphics/SVG/1.1/DTD/svg11.dtd">
<!-- Creator: CorelDRAW X7 -->
<svg xmlns="http://www.w3.org/2000/svg" xml:space="preserve" width="277.242mm" height="239.199mm" version="1.1" style="shape-rendering:geometricPrecision; text-rendering:geometricPrecision; image-rendering:optimizeQuality; fill-rule:evenodd; clip-rule:evenodd"
viewBox="0 0 27724 23920"
 xmlns:xlink="http://www.w3.org/1999/xlink">
 <defs>
  <style type="text/css">
   <![CDATA[
    .fil1 {fill:#FEFEFE;fill-rule:nonzero}
    .fil0 {fill:#1D1D1E;fill-rule:nonzero}
   ]]>
  </style>
 </defs>
 <g id="Layer_x0020_1">
  <metadata id="CorelCorpID_0Corel-Layer"/>
  <g id="_1540461092512">
   <path class="fil0" d="M8890 8583l-123 0 0 -148c0,-358 -54,-713 -161,-1054l-703 -2254 118 -36 703 2253c110,354 166,720 166,1091l0 148z"/>
   <path class="fil0" d="M11009 8583l-123 0 0 -148c0,-370 56,-737 166,-1091l703 -2253 118 36 -703 2254c-107,342 -161,696 -161,1054l0 148z"/>
   <polygon class="fil0" points="8238,5943 8196,5910 8583,5428 8625,5462 "/>
   <polygon class="fil0" points="8333,6441 8292,6405 9073,5515 9113,5550 "/>
   <polygon class="fil0" points="8514,6935 8471,6902 9516,5551 9559,5585 "/>
   <polygon class="fil0" points="8643,7405 8601,7372 10048,5571 10090,5605 "/>
   <polygon class="fil0" points="8787,7882 8745,7848 10648,5479 10690,5513 "/>
   <polygon class="fil0" points="8845,8465 8803,8431 11221,5421 11263,5455 "/>
   <polygon class="fil0" points="9263,8600 9221,8566 11627,5571 11669,5605 "/>
   <polygon class="fil0" points="9790,8600 9748,8566 11326,6601 11368,6635 "/>
   <polygon class="fil0" points="10320,8595 10278,8562 11020,7638 11062,7672 "/>
   <polygon class="fil0" points="11527,5943 11140,5462 11182,5428 11569,5910 "/>
   <polygon class="fil0" points="11432,6441 10652,5550 10692,5515 11473,6405 "/>
   <polygon class="fil0" points="11251,6935 10206,5585 10249,5551 11294,6902 "/>
   <polygon class="fil0" points="11122,7405 9675,5605 9717,5571 11164,7372 "/>
   <polygon class="fil0" points="10978,7882 9075,5513 9117,5479 11020,7848 "/>
   <polygon class="fil0" points="10920,8465 8502,5455 8544,5421 10962,8431 "/>
   <polygon class="fil0" points="10502,8600 8096,5605 8138,5571 10544,8566 "/>
   <polygon class="fil0" points="9975,8600 8397,6635 8439,6601 10017,8566 "/>
   <polygon class="fil0" points="9445,8595 8703,7672 8745,7638 9487,8562 "/>
   <polygon class="fil0" points="1916,23920 0,12044 15006,12044 27724,23920 "/>
   <path class="fil1" d="M2409 22494l21898 0 -9928 -9969 -13724 0 1754 9969zm22073 72l-22134 0 -1780 -10114 13842 0 10 11 10062 10103z"/>
   <path class="fil1" d="M10935 17427l8332 0 -2261 -2270 -7349 0 1278 2270zm8488 65l-8526 0 -9 -16 -1342 -2384 7487 0 10 10 2380 2390z"/>
   <path class="fil1" d="M11674 12965c-2540,0 -4502,623 -5249,1668 -336,469 -406,998 -210,1573 825,2418 6165,5123 12076,5123l4856 0 -8330 -8364 -3143 0zm11648 8437l-5031 0c-5941,0 -11312,-2731 -12145,-5173 -204,-598 -130,-1149 220,-1638 761,-1064 2745,-1699 5308,-1699l3173 0 11 10 8464 8500z"/>
   <path class="fil1" d="M9707 15158c-1,0 -1,0 -1,0 -36,-1 -73,-1 -109,-1 -18,0 -32,-14 -32,-32 0,-18 14,-33 32,-33 37,0 74,1 110,1 18,1 32,16 32,34 -1,17 -15,31 -32,31z"/>
   <path class="fil1" d="M10234 15198c-1,0 -3,0 -4,0 -75,-10 -149,-18 -224,-24 -18,-1 -31,-17 -30,-35 1,-18 17,-30 35,-29 76,6 152,14 227,24 18,2 30,18 28,36 -2,16 -16,28 -32,28zm521 92c-2,0 -4,0 -7,0 -73,-17 -146,-32 -221,-46 -17,-3 -29,-20 -26,-38 3,-17 21,-29 38,-26 75,14 150,30 224,46 17,4 28,22 24,39 -3,15 -17,25 -32,25zm510 144c-4,0 -7,0 -11,-2 -70,-24 -142,-46 -215,-67 -17,-5 -27,-23 -22,-40 5,-18 23,-28 40,-23 74,22 147,45 218,69 17,6 26,24 20,41 -4,14 -17,22 -30,22zm489 200c-5,0 -9,-1 -14,-3 -66,-32 -135,-63 -205,-93 -16,-7 -24,-25 -17,-42 7,-17 26,-24 42,-17 71,29 141,61 208,94 17,8 23,27 15,43 -5,12 -17,18 -29,18zm453 273c-7,0 -13,-2 -19,-7 -57,-42 -119,-84 -186,-125 -15,-9 -20,-29 -10,-45 9,-15 29,-20 44,-10 68,41 132,85 191,128 14,11 17,31 6,46 -6,8 -16,13 -26,13zm367 377c-11,0 -22,-5 -28,-15 -7,-11 -14,-22 -22,-33 -32,-47 -70,-94 -114,-140 -12,-13 -11,-33 2,-45 12,-13 33,-12 45,1 46,48 87,98 121,147 8,12 16,24 23,36 10,15 5,35 -10,44 -5,4 -11,5 -17,5zm94 504c-3,0 -6,-1 -9,-1 -17,-6 -27,-24 -22,-41 13,-44 20,-90 20,-136 0,-25 -2,-49 -5,-74 -3,-18 9,-34 27,-37 17,-3 34,10 37,28 4,27 6,55 6,83 0,52 -8,105 -23,155 -4,14 -17,23 -31,23zm-335 394c-11,0 -22,-6 -28,-15 -9,-16 -5,-36 10,-45 67,-42 125,-87 172,-135 13,-13 34,-13 46,0 13,12 13,33 0,45 -51,52 -112,101 -183,145 -5,3 -11,5 -17,5zm-487 201c-15,0 -28,-9 -32,-24 -4,-17 6,-35 23,-39 75,-20 146,-43 213,-68 16,-7 35,2 42,18 6,17 -2,36 -19,42 -69,26 -142,50 -219,70 -3,1 -6,1 -8,1zm-521 90c-17,0 -31,-12 -32,-29 -2,-18 11,-34 29,-35 75,-7 150,-17 223,-28 18,-3 34,9 37,27 3,18 -9,34 -27,37 -74,12 -151,21 -227,28 -1,0 -2,0 -3,0z"/>
   <path class="fil1" d="M10911 17492c-18,0 -32,-15 -32,-32 0,-18 14,-33 32,-33 37,0 73,0 108,-1 16,-3 33,14 34,32 0,18 -14,32 -32,33 -36,1 -73,1 -110,1z"/>
   <path class="fil1" d="M9578 15157c-793,3 -1421,213 -1642,550 -99,152 -110,319 -33,498 284,653 1628,1207 2952,1222l-1277 -2270zm1388 2335l-55 0c-1366,0 -2770,-578 -3067,-1261 -86,-197 -72,-391 38,-559 235,-358 892,-580 1715,-580l19 0 10 17 1340 2383z"/>
   <path class="fil1" d="M1087 18798l-5 -72c1199,-83 2224,-494 2674,-1072 199,-256 275,-525 225,-801 -157,-867 -1717,-1572 -3477,-1572l0 -73c1794,0 3386,732 3549,1632 53,293 -30,590 -240,859 -462,594 -1507,1015 -2726,1099z"/>
   <polygon class="fil0" points="17232,16770 17812,16770 17812,5800 17232,5800 "/>
   <polygon class="fil0" points="11814,10178 12500,10178 12500,0 11814,0 "/>
   <polygon class="fil0" points="12291,6381 17812,6381 17812,5800 12291,5800 "/>
   <polygon class="fil0" points="12277,4123 12363,3798 17154,6055 17069,6381 "/>
   <path class="fil0" d="M9888 4746c-1098,0 -1746,226 -1786,347 40,114 688,339 1786,339 1088,0 1734,-221 1785,-343 -51,-122 -697,-343 -1785,-343zm0 968c-767,0 -2067,-132 -2067,-625 0,-493 1300,-624 2067,-624 768,0 2067,131 2067,624 0,493 -1299,625 -2067,625z"/>
  </g>
 </g>
</svg>
