<?xml version="1.0" encoding="UTF-8"?>
<!DOCTYPE svg PUBLIC "-//W3C//DTD SVG 1.1//EN" "http://www.w3.org/Graphics/SVG/1.1/DTD/svg11.dtd">
<!-- Creator: CorelDRAW X7 -->
<svg xmlns="http://www.w3.org/2000/svg" xml:space="preserve" width="730.213mm" height="430.405mm" version="1.1" style="shape-rendering:geometricPrecision; text-rendering:geometricPrecision; image-rendering:optimizeQuality; fill-rule:evenodd; clip-rule:evenodd"
viewBox="0 0 73021 43040"
 xmlns:xlink="http://www.w3.org/1999/xlink">
 <defs>
  <style type="text/css">
   <![CDATA[
    .fil0 {fill:#1D1D1E;fill-rule:nonzero}
   ]]>
  </style>
 </defs>
 <g id="Layer_x0020_1">
  <metadata id="CorelCorpID_0Corel-Layer"/>
  <path class="fil0" d="M73017 4008c-43,-418 -425,-736 -831,-842 -406,-106 -834,-46 -1250,11 -107,14 -213,29 -320,43 82,-170 166,-339 253,-507 98,-189 201,-387 196,-600 -15,-518 -700,-795 -1181,-600 -481,196 -776,676 -1014,1136 -137,264 -264,530 -383,800 -353,27 -707,47 -1062,59 -1949,65 -3897,-127 -5846,-161 -11686,-199 -23367,-758 -35046,-1209 -2748,0 -5494,-96 -8243,-159 161,-384 226,-780 87,-1171 -231,-648 -1071,-997 -1692,-703 -459,217 -735,684 -985,1125 -132,234 -263,467 -394,701 -457,-3 -913,-5 -1371,-3 -631,2 -1291,11 -1851,304 -838,440 -1271,2120 -1157,3006 99,770 1302,987 2432,1045 -374,1110 -688,2242 -993,3374 -22,-1 -43,0 -64,1 -403,15 -775,206 -1141,376 -544,254 -1106,471 -1680,648 -1500,465 -2844,1084 -3703,2482 -867,1412 -449,3004 622,4171 295,322 606,628 931,919 -310,-26 -622,-45 -935,-55 -1915,-60 -3871,154 -5620,936 -244,109 -495,239 -639,464 -208,326 -161,546 19,692 -67,436 -19,890 33,1332 42,360 243,285 558,307 792,66 1586,117 2379,169 -41,65 -79,132 -111,201 -164,350 -222,741 -244,1127 -7,123 -7,258 70,355 97,122 273,134 429,153 748,89 1155,612 1711,982 -54,544 140,1092 332,1610 147,400 295,799 442,1199 12,32 24,64 37,96 -303,416 -506,928 -671,1413 -62,185 -124,370 -185,555 -371,1119 -725,2244 -1148,3344 -341,885 -1229,2638 -393,3507 839,869 1496,-2459 1647,-2916 444,-1337 945,-2718 1306,-4043 107,-393 154,-826 642,-830 792,-6 1526,6 2085,-658 221,-262 348,-555 396,-859 653,-365 1721,-718 2337,-1220 735,1836 1578,3650 1789,4097 224,475 490,982 969,1197 644,290 1691,-81 1748,-865 4,-55 2,-113 -23,-162 -86,-171 -404,-156 -565,-213 -279,-97 -527,-267 -722,-488 -762,-861 -1118,-2011 -1621,-3022 -611,-1228 -1157,-2494 -1514,-3822 -15,-56 -30,-113 -46,-170 5195,318 10396,610 15588,960 7693,517 15373,1082 23077,1479 3266,168 6550,267 9825,444 -8,71 -14,142 -24,212 -130,962 -856,1858 -635,2803 188,808 926,1220 1453,1782 578,616 498,1208 349,2041 -550,3087 -1191,6158 -1921,9207 -129,536 -130,1697 765,1396 1011,-340 912,-1943 1071,-2802 172,-921 283,-1852 411,-2780 179,-1297 390,-2601 834,-3839 500,-1396 1156,-2013 2497,-2629 414,-190 1011,-327 1234,70 79,143 77,315 83,478 45,1174 678,2311 1650,2969 239,162 515,300 803,279 288,-21 576,-254 564,-543 -13,-302 -312,-496 -546,-688 -774,-635 -1049,-1676 -1472,-2585 -216,-463 -533,-928 -923,-1258 48,-70 87,-148 120,-225 243,-555 328,-1178 243,-1778 -72,-503 -260,-985 -318,-1489 -57,-497 24,-876 316,-1275 34,-23 67,-50 95,-77 872,-828 1627,-1479 2640,-2087 657,-394 1667,-1171 1241,-2060 -172,-356 -534,-579 -894,-742 -445,-203 -2097,-799 -3048,-641 254,-795 271,-1650 250,-2495 635,45 1271,78 1907,91 588,11 1686,136 2124,-341 336,-366 323,-1491 350,-1952 25,-420 -45,-718 -184,-930 -181,-276 -482,-404 -844,-465 -315,-337 -746,-586 -1189,-733 -200,-67 -418,-125 -556,-285 -163,-188 -168,-462 -161,-711 27,-920 118,-1838 271,-2746 731,24 1466,-21 2214,-204 215,-52 434,-119 600,-266 195,-172 289,-430 373,-677 339,-1002 637,-2018 894,-3044 43,-171 85,-347 67,-523zm-11522 14102c32,551 162,1074 372,1561 -605,-128 -1291,-97 -2108,-146 -1696,-103 -3392,-205 -5089,-307 -1892,-114 -3785,-229 -5678,-343 -7093,-428 -14186,-856 -21286,-1138 -2891,-115 -5782,-206 -8671,-352 -1474,-75 -2947,-163 -4418,-277 -454,-35 -1053,-190 -1594,-220 255,-1055 511,-2109 766,-3164 9695,770 19410,1128 29114,1617 5944,300 11887,600 17830,900 333,16 667,38 1000,62 -245,564 -265,1314 -238,1807zm3984 -340c210,-7 406,14 554,157 88,85 140,202 171,321 86,336 -9,735 -293,934 -285,199 -752,109 -881,-213 -165,-408 234,-797 449,-1199zm76 6382c245,-57 488,-133 726,-231 -185,404 -358,845 -751,1031 -6,3 -13,5 -18,7 75,-278 150,-557 225,-835 -4,17 -70,26 -182,28zm-6553 -2600c-2429,-130 -4886,-88 -7301,-301 -2463,-218 -4930,-398 -7399,-530 -2675,-143 -5351,-269 -8027,-395 -5874,-275 -11742,-667 -17610,-1053 -1963,0 -3949,-281 -5911,-381 -775,-40 -1546,-134 -2318,-241 178,-85 470,-207 658,-358 0,2 0,4 1,7 369,19 737,38 1106,57 69,4 140,7 207,-3 8976,581 18030,986 27052,1396 4204,190 8402,482 12602,741 2128,131 4257,254 6387,351 1404,64 2852,196 4270,174 276,320 589,610 928,866 -1538,-208 -3114,-248 -4645,-330zm-47782 -6630c-47,186 -113,364 -215,527 -194,309 -499,530 -731,811 -87,107 -163,230 -215,361 -266,-5 -545,52 -812,26 75,-336 75,-690 -50,-1009 -62,-156 -152,-303 -192,-466 -39,-164 -15,-359 116,-464 193,-153 470,-34 698,58 441,178 931,231 1401,156zm-585 -2079c31,64 66,125 107,182 -149,-32 -301,-36 -455,0 -169,39 -325,124 -486,191 233,-135 396,-427 664,-420 63,1 118,19 170,47zm-1568 -995c-145,303 -235,658 -123,975 97,277 392,493 671,458 -40,11 -81,19 -123,24 -340,37 -659,-160 -933,-367 -273,-206 -552,-438 -891,-488 -5,-1 -11,-1 -16,-2 0,0 0,0 1,-1 388,-359 889,-664 1414,-599zm-2720 3433c-162,-707 183,-1475 646,-2099 64,130 173,245 272,355 828,921 1224,2216 1053,3443 -31,217 -146,486 -364,467 -75,-7 -141,-50 -202,-93 -687,-488 -1215,-1248 -1405,-2073zm-1507 7819c-167,-259 -97,-588 17,-885 895,62 1791,123 2687,181 57,199 74,410 47,615 -561,27 -1127,147 -1608,435 -105,62 -204,134 -298,213 -160,-77 -318,-158 -472,-247 -142,-82 -285,-174 -373,-312zm3451 1853c-349,-264 -741,-476 -1142,-658 -78,-35 -157,-70 -235,-104 77,-106 173,-194 293,-247 372,-164 790,74 1127,302 132,89 282,222 242,377 -21,78 -86,134 -146,189 -48,45 -95,92 -139,141zm-1118 2017c-134,16 -259,45 -376,83 -43,-139 -93,-278 -134,-416 -123,-417 -162,-858 -117,-1290 13,1 26,3 39,4 411,53 844,175 1103,497 28,35 52,73 73,113 -66,269 -86,550 -55,825 -129,144 -314,158 -533,184zm3086 -1447c-153,60 -300,127 -439,202 48,-351 34,-701 -21,-1050 93,-60 187,-121 280,-182 110,-72 680,-161 1072,-128 81,237 169,481 262,730 -242,268 -767,274 -1154,428zm540 -2296c-452,-84 -937,0 -1334,232 -111,-301 -235,-598 -358,-889 -11,-25 -21,-50 -32,-75 528,34 1057,67 1586,100 30,187 77,400 138,632zm32608 -140c-5098,-296 -10198,-709 -15286,-1027 -5140,-321 -10281,-634 -15418,-1006 -118,-8 -237,-17 -356,-26 -1974,-142 -3949,-285 -5923,-426 -985,-70 -1970,-140 -2954,-209 -198,-14 -396,-27 -594,-41 1810,-222 3728,75 5525,172 2379,129 4757,265 7135,408 11754,698 23492,1619 35252,2213 2913,147 5810,348 8703,666 -306,-17 -612,-34 -917,-47 -5055,-211 -10113,-383 -15167,-677zm19417 2617c-1,1 -2,2 -3,3 -108,138 -220,285 -245,459 -36,257 131,503 330,670 160,134 344,238 508,367 -634,98 -1364,213 -1888,505 -130,-654 -28,-1383 138,-2080 387,23 773,49 1160,76zm760 4040c-531,-235 -1080,-484 -1480,-899 587,-258 1245,-500 1775,-849 18,-12 36,-24 52,-37 177,513 191,1121 346,1663 -116,90 -235,192 -381,203 -108,8 -212,-37 -312,-81zm1949 -533c-78,-396 -210,-783 -390,-1145 -86,-175 -187,-376 -109,-555 112,-259 475,-251 753,-200 82,15 170,33 226,95 62,67 69,167 70,258 7,548 -66,1096 -214,1624 -109,-38 -221,-64 -336,-77zm2557 -8649c289,7 576,74 839,197 128,60 267,164 253,305 -12,122 -134,198 -242,256 -513,273 -1118,551 -1649,315 -197,-87 -378,-244 -592,-232 -97,5 -188,44 -276,86 -179,87 -352,186 -519,296 74,-370 190,-732 345,-1077 45,-99 94,-197 143,-295 16,3 32,4 48,6 565,46 1079,130 1650,143zm-3659 -3002c-29,78 -63,153 -108,222 -127,196 -336,322 -528,454 -194,133 -388,293 -458,516 -70,224 47,518 279,553 295,44 586,-330 848,-185 87,49 137,143 178,234 278,617 371,1316 263,1984 -1270,-902 -2310,-2187 -2089,-3871 32,-244 171,-664 249,-1051 401,37 803,77 1204,117 -149,336 -78,768 162,1027zm2406 -6525c-15,214 -30,439 -148,619 -120,181 -323,286 -509,397 -407,242 -772,555 -1076,917 -10042,-402 -20060,-1324 -30093,-1794 -6797,-318 -13598,-574 -20398,-851 58,-236 115,-473 172,-709 222,-916 445,-1835 767,-2721 72,-196 149,-391 230,-583 10117,122 20233,414 30341,876 3210,147 6419,311 9627,493 3041,171 6147,632 9185,632 727,55 1444,159 2159,250 -119,822 -199,1649 -257,2474z"/>
 </g>
</svg>
