<?xml version="1.0" encoding="UTF-8"?>
<!DOCTYPE svg PUBLIC "-//W3C//DTD SVG 1.1//EN" "http://www.w3.org/Graphics/SVG/1.1/DTD/svg11.dtd">
<!-- Creator: CorelDRAW X7 -->
<svg xmlns="http://www.w3.org/2000/svg" xml:space="preserve" width="31.4157mm" height="23.0536mm" version="1.1" style="shape-rendering:geometricPrecision; text-rendering:geometricPrecision; image-rendering:optimizeQuality; fill-rule:evenodd; clip-rule:evenodd"
viewBox="0 0 2953 2167"
 xmlns:xlink="http://www.w3.org/1999/xlink">
 <defs>
  <style type="text/css">
   <![CDATA[
    .fil0 {fill:#A75F4A;fill-rule:nonzero}
   ]]>
  </style>
 </defs>
 <g id="Layer_x0020_1">
  <metadata id="CorelCorpID_0Corel-Layer"/>
  <g id="_1378979010928">
   <path class="fil0" d="M187 1061c7,0 12,-1 17,-1 146,0 292,1 438,0 58,-1 119,41 135,97 3,10 5,21 5,31 1,43 0,86 0,128 0,6 0,12 0,19 7,1 12,1 17,1 51,1 102,0 154,1 12,0 18,-4 17,-17 -2,-56 1,-113 -4,-168 -6,-54 -27,-104 -61,-149 -36,-46 -80,-82 -134,-105 -37,-15 -78,-23 -119,-23 -210,0 -419,0 -629,0 -23,0 -23,0 -23,-23 0,-14 0,-28 0,-42 0,-30 -2,-26 27,-26 91,0 182,0 273,0 24,0 24,0 24,-24 0,-124 0,-249 0,-374 0,-21 0,-21 -21,-21 -64,0 -128,0 -192,0 -6,0 -11,0 -18,0 0,-122 0,-243 0,-365 922,0 1843,0 2765,0 0,121 0,242 0,365 -5,0 -11,0 -16,0 -65,0 -130,0 -195,0 -14,-1 -19,2 -19,17 1,128 1,256 0,384 0,16 6,18 20,18 95,0 191,0 286,0 15,0 19,4 19,19 -1,23 -1,46 -1,72 -7,0 -13,0 -20,0 -210,0 -420,0 -630,0 -65,0 -126,19 -180,57 -47,33 -84,75 -108,125 -20,41 -32,87 -32,134 1,44 1,87 0,130 0,12 4,16 16,16 52,-1 104,-1 157,0 12,0 15,-5 14,-16 0,-42 0,-85 0,-127 0,-39 16,-69 45,-96 30,-28 65,-38 104,-38 143,0 285,0 427,0 16,0 22,3 21,20 -1,18 -1,37 0,56 0,12 -4,16 -16,16 -33,-1 -67,0 -101,-1 -13,0 -18,5 -18,19 -1,162 -2,324 -2,486 0,17 -4,30 -20,40 -10,6 -16,18 -24,26 -29,28 -58,55 -86,83 -25,26 -50,53 -75,79 -29,28 -59,55 -87,83 -27,28 -53,56 -81,83 -25,25 -51,49 -76,74 -9,9 -18,19 -26,30 -9,11 -19,13 -32,13 -188,-1 -377,-1 -565,-1 -239,0 -478,0 -718,1 -21,0 -36,-6 -49,-22 -11,-13 -25,-24 -37,-37 -28,-29 -56,-60 -86,-89 -28,-29 -58,-56 -87,-85 -26,-25 -50,-52 -75,-77 -26,-26 -54,-51 -80,-77 -25,-25 -49,-51 -74,-77 0,-1 -1,-1 -1,-1 -27,-14 -27,-38 -27,-64 1,-155 1,-310 1,-465 0,-21 0,-21 -22,-21 -33,0 -67,-1 -101,0 -11,0 -15,-4 -14,-15 1,-25 0,-50 0,-76zm1289 -970l0 0c-102,0 -204,0 -307,0 -321,0 -643,0 -964,0 -22,0 -22,0 -22,21 0,48 0,96 0,144 0,20 1,21 21,21 62,0 125,0 187,0 22,0 22,0 22,22 0,155 0,310 -1,465 0,15 4,21 20,20 73,0 146,-1 219,0 30,1 61,5 91,11 50,10 95,32 136,60 28,20 56,42 79,70 22,25 39,54 56,82 33,56 44,119 45,183 1,72 0,144 1,216 0,16 -5,20 -21,20 -107,0 -214,0 -321,0 -24,0 -24,0 -24,-24 0,-65 0,-131 -1,-196 0,-38 -15,-54 -50,-54 -69,-1 -139,0 -208,0 -16,0 -22,5 -22,21 1,151 0,301 1,451 0,9 5,20 11,26 52,53 105,105 157,157 85,85 169,169 253,254 9,10 19,13 32,13 258,0 515,0 773,0 149,0 299,0 449,0 7,0 17,-2 22,-6 23,-22 45,-45 67,-67 116,-116 233,-233 349,-349 10,-9 14,-18 14,-31 -1,-151 -1,-301 0,-451 0,-15 -6,-19 -19,-19 -66,1 -131,1 -197,1 -8,0 -17,1 -25,1 -24,1 -34,17 -38,38 -1,7 -1,14 -1,21 0,65 0,129 1,194 0,14 -4,20 -20,20 -110,0 -220,0 -329,0 -14,0 -19,-3 -19,-18 1,-71 -1,-143 1,-214 1,-45 4,-91 21,-133 11,-25 26,-48 36,-73 15,-37 43,-63 70,-90 28,-28 61,-52 98,-70 58,-27 116,-45 181,-44 72,1 145,0 217,0 23,0 23,0 23,-22 0,-155 0,-311 -1,-467 0,-15 5,-19 20,-19 64,1 128,1 192,1 13,0 19,-3 18,-17 0,-51 0,-102 0,-154 1,-13 -4,-16 -16,-15 -13,0 -26,0 -39,0 -412,0 -825,0 -1238,0z"/>
   <path class="fil0" d="M91 1060c0,29 0,56 -1,83 0,3 -6,8 -10,8 -22,1 -45,0 -68,0 -9,0 -12,-4 -12,-13 0,-22 0,-44 1,-66 0,-4 5,-11 9,-11 26,-1 53,-1 81,-1z"/>
   <path class="fil0" d="M2862 1060c28,0 54,0 80,1 4,0 10,6 10,10 1,23 1,46 0,69 0,4 -7,11 -11,11 -23,1 -46,1 -69,0 -3,0 -10,-7 -10,-10 -1,-26 0,-52 0,-81z"/>
   <path class="fil0" d="M2121 535c108,-72 222,-94 348,-37 -13,26 -25,52 -38,79 -16,-4 -32,-10 -48,-12 -29,-3 -58,-7 -87,-4 -42,4 -83,18 -117,45 -9,8 -18,15 -26,23 -22,20 -43,19 -65,-1 -63,-59 -138,-80 -223,-65 -51,8 -94,32 -130,69 -13,15 -42,15 -57,1 -63,-61 -138,-85 -225,-71 -41,7 -80,22 -111,52 -9,9 -19,17 -29,26 -8,6 -42,2 -48,-4 -31,-29 -62,-55 -105,-66 -40,-11 -80,-16 -121,-8 -41,8 -79,20 -110,51 -10,9 -21,17 -32,26 -9,7 -38,4 -47,-4 -18,-14 -36,-28 -54,-42 -32,-24 -70,-30 -108,-34 -46,-4 -91,5 -133,25 -17,8 -31,2 -40,-18 -4,-9 -9,-18 -14,-27 -6,-9 -6,-19 4,-24 25,-14 51,-30 78,-37 35,-8 71,-12 107,-11 52,2 102,18 147,46 11,8 23,14 34,20 4,2 10,1 13,-1 75,-51 155,-76 246,-62 26,3 51,8 74,23 17,10 38,14 55,25 22,13 38,17 62,1 32,-20 69,-35 105,-44 34,-9 71,-9 106,-7 47,3 91,18 131,45 12,7 23,14 36,20 3,1 10,1 14,-2 39,-25 81,-46 127,-57 37,-9 75,-10 114,-6 46,6 89,22 129,46 12,7 25,14 38,21z"/>
   <path class="fil0" d="M1062 874c0,-30 0,-59 0,-89 276,0 551,0 827,0 0,30 0,59 0,89 -275,0 -550,0 -827,0z"/>
   <path class="fil0" d="M1704 1015c0,29 0,57 0,87 -152,0 -303,0 -456,0 0,-29 0,-57 0,-87 151,0 303,0 456,0z"/>
  </g>
 </g>
</svg>
