<?xml version="1.0" encoding="UTF-8"?>
<!DOCTYPE svg PUBLIC "-//W3C//DTD SVG 1.1//EN" "http://www.w3.org/Graphics/SVG/1.1/DTD/svg11.dtd">
<!-- Creator: CorelDRAW X7 -->
<svg xmlns="http://www.w3.org/2000/svg" xml:space="preserve" width="34.2127mm" height="34.3826mm" version="1.1" style="shape-rendering:geometricPrecision; text-rendering:geometricPrecision; image-rendering:optimizeQuality; fill-rule:evenodd; clip-rule:evenodd"
viewBox="0 0 374 376"
 xmlns:xlink="http://www.w3.org/1999/xlink">
 <defs>
  <style type="text/css">
   <![CDATA[
    .fil1 {fill:#FEFEFE;fill-rule:nonzero}
    .fil0 {fill:#A75F4A;fill-rule:nonzero}
   ]]>
  </style>
 </defs>
 <g id="Layer_x0020_1">
  <metadata id="CorelCorpID_0Corel-Layer"/>
  <g id="_1379454994704">
   <g>
    <polygon class="fil0" points="186,27 212,187 197,348 171,188 "/>
    <polygon class="fil0" points="31,193 191,167 352,182 192,208 "/>
    <polygon class="fil0" points="116,117 200,178 267,258 182,197 "/>
    <polygon class="fil0" points="121,263 182,178 262,112 201,196 "/>
   </g>
   <path class="fil1" d="M174 188c0,10 8,17 18,17 10,0 17,-8 17,-18 0,-10 -8,-17 -18,-17 -10,0 -17,8 -17,18z"/>
   <path class="fil0" d="M189 375l0 -6c1,1 2,2 3,2 2,0 3,0 4,0 1,0 1,0 2,0 0,0 1,0 1,0 0,-1 1,-1 1,-1 0,0 0,-1 0,-1 0,-1 0,-1 0,-1 -1,-1 -1,-1 -2,-1 0,-1 -1,-1 -1,-1 -1,-1 -2,-1 -2,-1 -2,-1 -4,-2 -5,-3 -1,-1 -1,-2 -1,-4 0,-1 0,-2 0,-3 1,-1 2,-2 2,-3 1,0 2,-1 3,-1 2,0 3,-1 4,-1 1,0 3,0 4,0 1,1 1,1 2,1l0 5c0,0 0,0 -1,-1 0,0 -1,0 -1,0 -1,0 -1,0 -2,0 0,0 -1,0 -1,0 -1,0 -2,0 -2,0 -1,0 -1,0 -1,0 -1,1 -1,1 -1,1 0,1 0,1 0,1 0,1 0,1 0,1 0,1 0,1 1,1 0,1 1,1 1,1 1,0 2,1 2,1 1,0 2,1 3,1 1,1 1,1 2,2 1,0 1,1 1,2 1,0 1,1 1,2 0,2 0,3 -1,4 0,1 -1,1 -2,2 -1,1 -2,1 -3,1 -1,1 -2,1 -4,1 -1,0 -2,0 -3,0 -2,-1 -3,-1 -4,-1z"/>
   <path class="fil0" d="M197 25l-6 0 -10 -16c-1,-1 -1,-1 -1,-2l0 0c0,1 0,3 0,4l0 14 -5 0 -1 -25 6 0 10 15c1,1 1,1 2,2l0 0c0,-1 -1,-2 -1,-3l0 -14 5 0 1 25z"/>
   <path class="fil0" d="M29 183l-5 21 -5 0 -4 -13c0,-1 0,-2 0,-3l0 0c0,1 0,2 0,3l-3 13 -6 0 -6 -20 5 0 4 13c0,1 0,2 0,3l0 0c0,-1 0,-2 0,-3l4 -14 5 0 3 14c1,1 1,1 1,2l0 0c0,0 0,-1 0,-2l2 -14 5 0z"/>
   <polygon class="fil0" points="374,193 360,193 359,170 373,169 373,174 364,174 365,179 372,179 373,183 365,183 365,189 374,189 "/>
  </g>
 </g>
</svg>
