<?xml version="1.0" encoding="UTF-8"?>
<!DOCTYPE svg PUBLIC "-//W3C//DTD SVG 1.1//EN" "http://www.w3.org/Graphics/SVG/1.1/DTD/svg11.dtd">
<!-- Creator: CorelDRAW X7 -->
<svg xmlns="http://www.w3.org/2000/svg" xml:space="preserve" width="30.7281mm" height="18.9745mm" version="1.1" style="shape-rendering:geometricPrecision; text-rendering:geometricPrecision; image-rendering:optimizeQuality; fill-rule:evenodd; clip-rule:evenodd"
viewBox="0 0 2768 1709"
 xmlns:xlink="http://www.w3.org/1999/xlink">
 <defs>
  <style type="text/css">
   <![CDATA[
    .fil0 {fill:#A75F4A}
   ]]>
  </style>
 </defs>
 <g id="Layer_x0020_1">
  <metadata id="CorelCorpID_0Corel-Layer"/>
  <path class="fil0" d="M2357 1482l0 -527c0,-138 158,-113 158,-29l0 591c0,75 -158,109 -158,-35zm-2027 100c-41,0 -76,-32 -76,-65l0 -591c0,-84 158,-109 158,29l0 527c0,57 -26,100 -82,100zm164 -604l545 0c55,0 42,-85 235,-146 72,-22 145,-22 217,-1 30,9 67,22 91,37 41,24 79,50 107,87 10,14 17,23 41,23l545 0 0 481 -516 0c-83,0 -59,41 -160,103 -135,82 -295,82 -429,0 -207,-127 92,-103 -676,-103l0 -481zm732 -222l0 -82c12,-8 15,-18 29,-18l258 0c14,0 17,10 29,18l0 82c-23,-2 -42,-10 -66,-15 -132,-27 -194,10 -250,15zm-23 -428l363 0c-6,24 -13,37 -21,61 -9,23 -14,36 -23,60l-44 119 -187 0c-22,-44 -72,-203 -88,-240zm-141 -158c0,-44 29,-82 70,-82l504 0c96,0 89,158 -6,158l-492 0c-37,0 -76,-38 -76,-76zm-82 -24c0,56 0,97 51,143 100,89 38,-65 133,183 14,36 28,84 44,114 -85,23 -70,151 -70,217 -31,7 -81,55 -103,78 -27,26 -106,15 -172,15 -125,0 -250,0 -375,0 -9,-37 -26,-60 -51,-83 -91,-81 -238,-33 -265,83l-170 0c0,105 -30,82 164,82l0 481 -147 0c-24,0 -17,20 -17,70 0,27 46,18 76,18 31,0 62,0 94,0 19,41 18,55 56,83 117,89 239,7 260,-83l539 0c9,33 115,99 144,113 102,48 217,63 327,35 36,-9 64,-19 95,-33 30,-14 140,-82 149,-115l539 0c19,83 113,146 216,110 19,-6 27,-13 44,-26 33,-25 38,-47 56,-84 31,0 62,0 94,0 84,0 76,13 76,-71 0,-13 -4,-17 -18,-17l-146 0 0 -481 146 0c26,0 18,-24 18,-82l-170 0c-38,-163 -278,-163 -316,0l-463 0c-108,1 -53,-1 -130,-57 -18,-14 -34,-31 -58,-36 0,-67 15,-194 -70,-217l85 -225c26,-71 25,-15 89,-70 102,-85 67,-291 -127,-291l-445 0c-99,0 -182,64 -182,146z"/>
 </g>
</svg>
