<?xml version="1.0" encoding="UTF-8"?>
<!DOCTYPE svg PUBLIC "-//W3C//DTD SVG 1.1//EN" "http://www.w3.org/Graphics/SVG/1.1/DTD/svg11.dtd">
<!-- Creator: CorelDRAW X7 -->
<svg xmlns="http://www.w3.org/2000/svg" xml:space="preserve" width="357.218mm" height="323.695mm" version="1.1" style="shape-rendering:geometricPrecision; text-rendering:geometricPrecision; image-rendering:optimizeQuality; fill-rule:evenodd; clip-rule:evenodd"
viewBox="0 0 35722 32369"
 xmlns:xlink="http://www.w3.org/1999/xlink">
 <defs>
  <style type="text/css">
   <![CDATA[
    .fil0 {fill:#2B2A29;fill-rule:nonzero}
   ]]>
  </style>
 </defs>
 <g id="Layer_x0020_1">
  <metadata id="CorelCorpID_0Corel-Layer"/>
  <g id="_1288293859024">
   <polygon class="fil0" points="0,32369 17760,32369 17760,30243 0,30243 "/>
   <path class="fil0" d="M33288 17282l-1552 0c-1371,0 -2482,-1111 -2482,-2482l0 0c0,-1371 1111,-2482 2482,-2482l1552 0 0 4964z"/>
   <path class="fil0" d="M35293 14016l-2764 0c-237,0 -429,-191 -429,-428 0,-236 192,-428 429,-428l2764 0c237,0 429,192 429,428 0,237 -192,428 -429,428z"/>
   <path class="fil0" d="M35293 16513l-2764 0c-237,0 -429,-191 -429,-428 0,-236 192,-428 429,-428l2764 0c237,0 429,192 429,428 0,237 -192,428 -429,428z"/>
   <path class="fil0" d="M22979 29722c-1496,0 -2713,-1217 -2713,-2713l0 -10067c0,-866 -704,-1571 -1570,-1571l-3665 0 0 -1142 3665 0c1495,0 2712,1217 2712,2713l0 10067c0,866 705,1571 1571,1571 866,0 1570,-705 1570,-1571l0 -10067c0,-1496 1217,-2713 2713,-2713l4008 0 0 1142 -4008 0c-866,0 -1570,705 -1570,1571l0 10067c0,1496 -1217,2713 -2713,2713z"/>
   <path class="fil0" d="M7617 19556l1029 -2793 -1029 0 0 0 0 0 0 -1 859 -2996 1557 0 -1084 2165 1569 0 -2901 3625zm1263 -7145c-2343,0 -4250,1907 -4250,4250 0,2343 1907,4250 4250,4250 2343,0 4250,-1907 4250,-4250 0,-2343 -1907,-4250 -4250,-4250z"/>
   <path class="fil0" d="M13905 9884l-10050 0 0 -7066 10050 0 0 7066zm-5025 11598c-2658,0 -4821,-2163 -4821,-4821 0,-2658 2163,-4821 4821,-4821 2659,0 4821,2163 4821,4821 0,2658 -2162,4821 -4821,4821zm4668 -21482l-9336 0c-1143,0 -2070,927 -2070,2070l0 27531 13477 0 0 -27531c0,-1143 -927,-2070 -2071,-2070z"/>
  </g>
 </g>
</svg>
