<?xml version="1.0" encoding="UTF-8"?>
<!DOCTYPE svg PUBLIC "-//W3C//DTD SVG 1.1//EN" "http://www.w3.org/Graphics/SVG/1.1/DTD/svg11.dtd">
<!-- Creator: CorelDRAW X7 -->
<svg xmlns="http://www.w3.org/2000/svg" xml:space="preserve" width="32.7896mm" height="23.4883mm" version="1.1" style="shape-rendering:geometricPrecision; text-rendering:geometricPrecision; image-rendering:optimizeQuality; fill-rule:evenodd; clip-rule:evenodd"
viewBox="0 0 345 247"
 xmlns:xlink="http://www.w3.org/1999/xlink">
 <defs>
  <style type="text/css">
   <![CDATA[
    .fil0 {fill:#A75F4A;fill-rule:nonzero}
   ]]>
  </style>
 </defs>
 <g id="Layer_x0020_1">
  <metadata id="CorelCorpID_0Corel-Layer"/>
  <g id="_1378979028048">
   <path class="fil0" d="M121 79c-2,10 -5,20 -7,31 0,1 1,3 2,4 6,8 13,16 19,24 3,4 4,8 4,12 0,15 1,30 1,45 0,5 -1,9 -6,11 -3,2 -7,1 -10,-2 -2,-3 -3,-6 -4,-10 0,-12 0,-25 -1,-38 0,-2 -1,-5 -2,-6 -5,-7 -10,-13 -16,-19 2,4 3,8 5,12 2,5 1,9 -1,14 -5,14 -11,28 -17,42 -3,8 -8,11 -14,8 -5,-3 -7,-10 -4,-17 5,-12 10,-24 14,-36 1,-2 1,-6 1,-8 -5,-11 -9,-22 -13,-34 -1,-3 -1,-8 -1,-12 1,-6 3,-11 4,-17 0,-2 0,-5 -1,-7 -3,-3 -5,-6 -8,-9 -3,-4 -3,-8 1,-12 5,-5 11,-10 16,-14 2,-2 5,-2 7,-2 10,2 19,5 28,8 3,0 5,3 6,5 5,9 8,18 13,26 1,3 3,5 5,6 7,3 15,6 22,9 5,2 7,5 5,9 -1,5 -4,6 -9,4 -9,-3 -17,-6 -26,-9 -3,-1 -6,-4 -7,-7 -2,-4 -3,-8 -5,-11 0,0 -1,0 -1,0z"/>
   <path class="fil0" d="M133 242c5,-5 9,-9 13,-13 63,-66 127,-131 190,-196 3,-3 5,-4 9,-2 -1,1 -1,2 -2,3 -65,70 -129,141 -193,211 -2,2 -4,3 -7,1 -3,-1 -6,-2 -10,-4z"/>
   <path class="fil0" d="M94 21c0,-12 8,-21 18,-21 10,0 18,9 18,20 0,11 -8,21 -15,21 -13,0 -21,-8 -21,-20z"/>
   <path class="fil0" d="M0 189c25,-19 50,-38 74,-56 5,6 5,7 0,12 -20,15 -39,30 -58,46 -3,3 -6,3 -10,1 -1,-1 -3,-2 -6,-3z"/>
   <path class="fil0" d="M246 8c-8,6 -15,12 -23,18 -22,18 -45,36 -67,54 -4,3 -7,3 -11,0 1,-1 2,-2 3,-2 30,-23 61,-47 92,-70 1,-1 3,-1 5,-2 0,1 0,2 1,2z"/>
   <path class="fil0" d="M129 101c-3,2 -6,5 -10,8 0,-5 0,-11 4,-13 2,0 4,2 6,3 0,0 0,1 0,2z"/>
  </g>
 </g>
</svg>
