<?xml version="1.0" encoding="UTF-8"?>
<!DOCTYPE svg PUBLIC "-//W3C//DTD SVG 1.1//EN" "http://www.w3.org/Graphics/SVG/1.1/DTD/svg11.dtd">
<!-- Creator: CorelDRAW X7 -->
<svg xmlns="http://www.w3.org/2000/svg" xml:space="preserve" width="31.1022mm" height="16.6422mm" version="1.1" style="shape-rendering:geometricPrecision; text-rendering:geometricPrecision; image-rendering:optimizeQuality; fill-rule:evenodd; clip-rule:evenodd"
viewBox="0 0 2867 1534"
 xmlns:xlink="http://www.w3.org/1999/xlink">
 <defs>
  <style type="text/css">
   <![CDATA[
    .fil0 {fill:#A75F4A;fill-rule:nonzero}
   ]]>
  </style>
 </defs>
 <g id="Layer_x0020_1">
  <metadata id="CorelCorpID_0Corel-Layer"/>
  <path class="fil0" d="M2599 1387c0,48 0,94 0,143 -775,0 -1547,0 -2323,0 0,-47 0,-94 0,-141 -29,-11 -42,-6 -41,24 1,29 0,59 1,88 0,23 -9,33 -32,33 -58,-1 -115,-1 -173,0 -28,0 -30,-16 -30,-38 0,-86 0,-171 0,-257 0,-313 0,-626 -1,-939 0,-38 12,-49 48,-47 52,3 103,1 154,0 25,0 35,9 34,34 -2,47 0,95 -1,142 0,26 8,37 38,26 0,-26 0,-53 0,-85 84,0 163,-1 242,0 25,1 41,-6 58,-26 82,-93 182,-165 293,-217 219,-101 449,-143 690,-121 141,13 274,52 406,103 89,34 160,93 239,140 40,23 67,66 101,98 13,11 32,21 48,22 69,2 138,1 208,1 12,0 25,0 41,0 0,31 0,59 0,86 27,8 37,1 37,-24 -1,-46 1,-92 -1,-138 -1,-29 6,-42 38,-41 53,2 106,2 158,0 26,0 36,7 36,35 0,403 0,805 0,1208 0,28 -9,39 -37,38 -53,-2 -106,-2 -158,0 -30,1 -38,-11 -37,-39 2,-28 0,-56 1,-84 1,-26 -10,-32 -37,-24zm-1196 -354l0 0c-67,-27 -135,-43 -191,-79 -57,-37 -112,-85 -139,-153 -26,-65 -42,-131 -38,-201 4,-78 20,-154 68,-215 76,-95 170,-166 298,-166 0,-53 0,-100 0,-147 -8,-1 -13,-2 -18,-2 -167,16 -332,37 -485,115 -107,55 -204,121 -282,211 -25,28 -49,45 -87,39 -16,-2 -33,0 -50,0 -47,0 -94,0 -138,0 0,240 0,474 0,707 356,0 708,0 1062,0 0,-41 0,-79 0,-109zm1130 -598l0 0c-74,0 -145,0 -215,-1 -13,0 -29,-2 -38,-10 -22,-18 -42,-38 -59,-59 -84,-103 -200,-159 -318,-210 -127,-56 -265,-71 -402,-84 -10,-1 -20,1 -31,1 0,50 0,97 0,146 106,11 195,47 265,130 53,63 90,128 100,210 19,165 -36,295 -169,394 -50,38 -107,56 -169,63 -10,2 -27,12 -28,19 -2,36 -1,72 -1,108 359,0 711,0 1065,0 0,-236 0,-469 0,-707zm-2367 -113l0 0c-21,0 -36,0 -51,0 -53,0 -53,0 -53,53 0,229 0,458 0,688 0,124 0,248 1,373 0,12 12,34 20,35 27,5 55,2 83,2 0,-386 0,-766 0,-1151zm2636 3l0 0c-13,-1 -23,-3 -33,-2 -66,1 -66,-15 -66,66 0,346 1,692 0,1038 0,32 4,49 43,47 59,-3 60,-1 60,-46 0,-352 0,-704 0,-1057 0,-15 -3,-30 -4,-46zm-1367 476l0 0c116,-10 179,-75 183,-185 4,-100 -82,-180 -182,-183 -93,-2 -185,88 -185,182 1,101 84,187 184,186zm340 -163l0 0c-35,0 -64,-1 -93,1 -8,0 -19,10 -20,16 -7,56 -40,94 -78,132 -51,51 -113,71 -181,57 -99,-20 -166,-78 -192,-178 -3,-11 -15,-26 -25,-27 -27,-3 -56,-1 -83,-1 -10,92 58,206 161,270 136,83 269,61 389,-29 76,-57 109,-143 122,-241zm-679 -40l0 0c26,0 45,-2 64,1 35,5 48,-11 55,-44 17,-71 68,-117 129,-147 129,-65 254,13 309,134 8,18 8,45 21,53 17,9 43,3 64,3 10,1 20,0 37,0 -18,-115 -63,-206 -164,-267 -116,-70 -232,-71 -347,-2 -101,59 -153,149 -168,269zm-449 743l0 0c0,13 0,26 0,38 3,114 -20,91 99,94 24,1 31,-9 31,-31 0,-45 1,-90 0,-134 -2,-116 21,-93 -101,-96 -21,-1 -29,8 -29,29 1,34 0,67 0,100zm1261 5l0 0c0,-13 0,-25 0,-38 -3,-115 23,-93 -101,-96 -22,-1 -30,8 -30,29 1,46 0,92 1,138 2,113 -22,92 99,94 1,0 3,1 3,0 10,-9 26,-17 27,-27 3,-33 1,-67 1,-100zm-818 127l0 0c0,-84 1,-162 -1,-240 -1,-7 -22,-21 -32,-20 -31,5 -69,-20 -94,16 -2,3 -1,8 -1,12 0,68 0,136 0,204 0,18 5,29 26,28 32,-1 64,0 102,0zm1003 0l0 0c36,0 66,-1 97,0 24,1 31,-9 31,-31 -1,-46 1,-92 0,-139 -3,-107 21,-89 -98,-91 -3,0 -6,-1 -8,1 -7,7 -21,15 -21,23 -2,77 -1,153 -1,237zm-1820 -945l0 0c-36,-6 -37,-6 -37,23 -1,243 0,486 -1,729 0,30 13,35 38,25 0,-260 0,-519 0,-777zm2328 777l0 0c4,3 8,6 13,9 7,-10 21,-20 21,-30 1,-245 0,-489 1,-734 0,-26 -11,-32 -35,-24 0,260 0,519 0,779zm-180 -92l0 0c0,89 0,173 0,258 38,0 73,0 110,0 0,-86 0,-171 0,-258 -38,0 -72,0 -110,0zm-1022 258l0 0c3,-5 5,-8 5,-10 0,-49 1,-97 1,-146 0,-106 0,-106 -105,-102 -3,0 -5,2 -8,4 0,84 0,169 0,254 38,0 73,0 107,0zm71 -257l0 0c0,88 0,171 0,256 38,0 74,0 112,0 0,-86 0,-170 0,-256 -38,0 -73,0 -112,0zm-1018 -2l0 0c-34,0 -63,-1 -92,1 -8,1 -22,14 -22,22 -2,72 -2,143 0,215 0,8 11,21 17,22 32,2 63,1 97,1 0,-89 0,-172 0,-261zm469 0l0 0c-29,0 -53,-3 -77,1 -11,2 -28,16 -28,25 -2,70 -2,140 0,210 0,9 13,23 21,24 27,3 55,1 86,1 0,-79 0,-153 0,-226 0,-10 -1,-20 -2,-35zm713 261l0 0c23,0 44,-2 64,0 27,3 36,-9 35,-35 -1,-47 0,-94 0,-141 0,-93 0,-93 -93,-83 -1,0 -2,1 -6,3 0,83 0,168 0,256zm-397 -261l0 0c-24,0 -44,1 -64,0 -27,-2 -37,8 -36,35 2,47 0,94 0,141 0,95 0,95 95,83 1,0 2,-1 5,-3 0,-83 0,-166 0,-256zm1130 259l0 0c0,-87 0,-170 0,-254 -93,-18 -99,-14 -99,75 0,23 0,46 0,69 0,37 0,73 0,110 37,0 68,0 99,0zm-1863 2l0 0c23,0 44,-2 63,1 29,3 36,-11 35,-36 -1,-47 0,-94 0,-142 0,-92 0,-92 -92,-82 -1,0 -2,1 -6,3 0,83 0,168 0,256zm1547 -4l0 0c0,-86 0,-169 0,-257 -22,0 -41,1 -60,0 -31,-3 -40,11 -39,40 2,46 0,92 1,138 2,94 -17,83 88,83 2,0 5,-2 10,-4z"/>
 </g>
</svg>
