<svg width="1128" height="987" viewBox="0 0 1128 987" fill="none" xmlns="http://www.w3.org/2000/svg">
<path d="M41.0834 792.474L40.8944 789.752C86.2108 786.615 124.951 771.082 141.959 749.236C149.48 739.56 152.352 729.393 150.462 718.962C144.529 686.194 85.5682 659.548 19.0488 659.548V656.789C86.8533 656.789 147.023 684.455 153.184 718.471C155.187 729.545 152.05 740.77 144.113 750.937C126.652 773.387 87.1556 789.299 41.0834 792.474Z" fill="black"/>
<path d="M335.999 406.395H331.35V400.801C331.35 387.27 329.309 373.853 325.265 360.965L298.695 275.775L303.155 274.414L329.725 359.566C333.883 372.946 335.999 386.779 335.999 400.801V406.395Z" fill="#1D1D1E"/>
<path d="M416.086 406.395H411.438V400.801C411.438 386.817 413.554 372.946 417.711 359.566L444.281 274.414L448.741 275.775L422.171 360.965C418.127 373.891 416.086 387.27 416.086 400.801V406.395Z" fill="#1D1D1E"/>
<path d="M311.357 306.617L309.77 305.37L324.396 287.152L325.984 288.437L311.357 306.617Z" fill="#1D1D1E"/>
<path d="M314.946 325.44L313.396 324.079L342.914 290.441L344.426 291.764L314.946 325.44Z" fill="#1D1D1E"/>
<path d="M321.787 344.109L320.162 342.862L359.658 291.801L361.283 293.086L321.787 344.109Z" fill="#1D1D1E"/>
<path d="M326.664 361.871L325.076 360.624L379.766 292.555L381.353 293.84L326.664 361.871Z" fill="#1D1D1E"/>
<path d="M332.105 379.9L330.518 378.615L402.442 289.078L404.029 290.363L332.105 379.9Z" fill="#1D1D1E"/>
<path d="M334.298 401.935L332.711 400.65L424.1 286.887L425.687 288.172L334.298 401.935Z" fill="#1D1D1E"/>
<path d="M350.095 407.036L348.508 405.751L439.443 292.555L441.03 293.84L350.095 407.036Z" fill="#1D1D1E"/>
<path d="M370.015 407.037L368.428 405.752L428.068 331.484L429.656 332.769L370.015 407.037Z" fill="#1D1D1E"/>
<path d="M390.046 406.85L388.459 405.602L416.503 370.68L418.09 371.965L390.046 406.85Z" fill="#1D1D1E"/>
<path d="M435.664 306.617L421.037 288.437L422.625 287.152L437.251 305.37L435.664 306.617Z" fill="#1D1D1E"/>
<path d="M432.074 325.44L402.594 291.764L404.106 290.441L433.624 324.079L432.074 325.44Z" fill="#1D1D1E"/>
<path d="M425.232 344.109L385.736 293.086L387.362 291.801L426.857 342.862L425.232 344.109Z" fill="#1D1D1E"/>
<path d="M420.358 361.871L365.668 293.84L367.255 292.555L421.945 360.624L420.358 361.871Z" fill="#1D1D1E"/>
<path d="M414.914 379.9L342.99 290.363L344.578 289.078L416.502 378.615L414.914 379.9Z" fill="#1D1D1E"/>
<path d="M412.723 401.935L321.334 288.172L322.921 286.887L414.31 400.65L412.723 401.935Z" fill="#1D1D1E"/>
<path d="M396.925 407.036L305.99 293.84L307.578 292.555L398.513 405.751L396.925 407.036Z" fill="#1D1D1E"/>
<path d="M377.006 407.037L317.365 332.769L318.953 331.484L378.593 405.752L377.006 407.037Z" fill="#1D1D1E"/>
<path d="M356.976 406.85L328.932 371.965L330.519 370.68L358.563 405.602L356.976 406.85Z" fill="#1D1D1E"/>
<path d="M91.0476 932.164H918.685L543.455 555.384H24.755L91.0476 932.164ZM925.299 934.885H88.7421L21.4668 552.625H544.627L545.005 553.041L925.299 934.885Z" fill="black"/>
<path d="M413.29 740.654H728.199L642.745 654.859H364.988L413.29 740.654ZM734.095 743.111H411.854L411.514 742.506L360.793 652.402H643.765L644.143 652.78L734.095 743.111Z" fill="black"/>
<path d="M441.22 572.013C345.22 572.013 271.066 595.559 242.833 635.055C230.134 652.781 227.488 672.775 234.896 694.507C266.077 785.896 467.903 888.131 691.31 888.131H874.843L560.01 572.013H441.22ZM881.457 890.89H691.31C466.769 890.89 263.771 787.672 232.288 695.376C224.578 672.775 227.375 651.95 240.603 633.468C269.365 593.254 344.351 569.254 441.22 569.254H561.143L561.559 569.632L881.457 890.89Z" fill="black"/>
<path d="M366.877 654.897C366.839 654.897 366.839 654.897 366.839 654.897C365.478 654.859 364.08 654.859 362.719 654.859C362.039 654.859 361.51 654.33 361.51 653.65C361.51 652.969 362.039 652.402 362.719 652.402C364.118 652.402 365.516 652.44 366.877 652.44C367.557 652.478 368.086 653.045 368.086 653.725C368.048 654.368 367.519 654.897 366.877 654.897Z" fill="black"/>
<path d="M386.796 656.41C386.758 656.41 386.683 656.41 386.645 656.41C383.81 656.032 381.013 655.73 378.179 655.503C377.499 655.465 377.007 654.861 377.045 654.18C377.083 653.5 377.688 653.046 378.368 653.084C381.24 653.311 384.113 653.613 386.947 653.991C387.628 654.067 388.081 654.672 388.006 655.352C387.93 655.957 387.401 656.41 386.796 656.41ZM406.487 659.887C406.412 659.887 406.336 659.887 406.223 659.887C403.464 659.245 400.705 658.678 397.87 658.149C397.228 658.035 396.774 657.393 396.887 656.713C397.001 656.07 397.681 655.617 398.324 655.73C401.158 656.259 403.993 656.864 406.79 657.468C407.432 657.62 407.848 658.3 407.697 658.942C407.583 659.509 407.054 659.887 406.487 659.887ZM425.763 665.33C425.612 665.33 425.498 665.33 425.347 665.254C422.702 664.347 419.98 663.516 417.221 662.722C416.579 662.533 416.201 661.853 416.39 661.21C416.579 660.53 417.259 660.152 417.902 660.341C420.698 661.172 423.457 662.042 426.141 662.949C426.783 663.176 427.124 663.856 426.897 664.498C426.746 665.027 426.254 665.33 425.763 665.33ZM444.245 672.889C444.056 672.889 443.905 672.851 443.716 672.775C441.221 671.566 438.613 670.394 435.968 669.261C435.363 668.996 435.061 668.316 435.325 667.673C435.59 667.031 436.308 666.766 436.912 667.031C439.596 668.127 442.242 669.336 444.774 670.583C445.416 670.886 445.643 671.604 445.341 672.209C445.152 672.662 444.698 672.889 444.245 672.889ZM461.366 683.207C461.101 683.207 460.875 683.131 460.648 682.942C458.493 681.355 456.15 679.768 453.618 678.218C453.051 677.878 452.862 677.122 453.24 676.517C453.58 675.95 454.336 675.761 454.903 676.139C457.473 677.689 459.892 679.352 462.122 680.977C462.651 681.393 462.764 682.149 462.349 682.716C462.122 683.018 461.744 683.207 461.366 683.207ZM475.237 697.456C474.821 697.456 474.405 697.267 474.178 696.889C473.914 696.473 473.649 696.057 473.347 695.642C472.138 693.865 470.701 692.089 469.038 690.35C468.585 689.859 468.623 689.103 469.114 688.649C469.567 688.158 470.361 688.196 470.815 688.687C472.553 690.501 474.103 692.391 475.388 694.243C475.69 694.697 475.993 695.15 476.257 695.604C476.635 696.171 476.446 696.927 475.879 697.267C475.69 697.418 475.463 697.456 475.237 697.456ZM478.789 716.504C478.676 716.504 478.563 716.467 478.449 716.467C477.807 716.24 477.429 715.56 477.618 714.917C478.109 713.254 478.374 711.515 478.374 709.777C478.374 708.832 478.298 707.925 478.185 706.98C478.071 706.3 478.525 705.695 479.205 705.582C479.848 705.468 480.49 705.96 480.604 706.64C480.755 707.66 480.83 708.719 480.83 709.777C480.83 711.742 480.528 713.745 479.961 715.635C479.81 716.164 479.319 716.504 478.789 716.504ZM466.128 731.396C465.712 731.396 465.297 731.169 465.07 730.829C464.73 730.224 464.881 729.468 465.448 729.128C467.98 727.541 470.172 725.84 471.949 724.026C472.44 723.534 473.234 723.534 473.687 724.026C474.178 724.479 474.178 725.273 473.687 725.726C471.76 727.692 469.454 729.544 466.771 731.207C466.582 731.32 466.355 731.396 466.128 731.396ZM447.722 738.993C447.155 738.993 446.664 738.652 446.512 738.085C446.361 737.443 446.739 736.763 447.382 736.611C450.216 735.856 452.9 734.986 455.432 734.041C456.037 733.777 456.755 734.117 457.019 734.722C457.246 735.364 456.944 736.082 456.301 736.309C453.694 737.292 450.934 738.199 448.024 738.955C447.911 738.993 447.797 738.993 447.722 738.993ZM428.031 742.394C427.388 742.394 426.859 741.941 426.821 741.298C426.746 740.618 427.237 740.013 427.917 739.975C430.752 739.711 433.587 739.333 436.346 738.917C437.026 738.804 437.631 739.257 437.744 739.937C437.857 740.618 437.404 741.222 436.724 741.336C433.927 741.789 431.016 742.13 428.144 742.394C428.106 742.394 428.068 742.394 428.031 742.394Z" fill="black"/>
<path d="M412.383 743.113C411.703 743.113 411.174 742.546 411.174 741.904C411.174 741.223 411.703 740.656 412.383 740.656C413.782 740.656 415.142 740.656 416.465 740.619C417.07 740.505 417.712 741.148 417.75 741.828C417.75 742.508 417.221 743.037 416.541 743.075C415.18 743.113 413.782 743.113 412.383 743.113Z" fill="black"/>
<path d="M362.001 654.859C332.029 654.972 308.294 662.909 299.941 675.646C296.2 681.391 295.784 687.703 298.694 694.468C309.428 719.149 360.225 740.087 410.265 740.654L362.001 654.859ZM414.461 743.111H412.382C360.754 743.111 307.689 721.265 296.464 695.451C293.214 688.005 293.743 680.673 297.9 674.324C306.782 660.793 331.614 652.402 362.719 652.402H363.437L363.815 653.045L414.461 743.111Z" fill="black"/>
<path d="M651.285 715.823H673.206V301.211H651.285V715.823Z" fill="#1D1D1E"/>
<path d="M446.512 466.679H472.439V82H446.512V466.679Z" fill="#1D1D1E"/>
<path d="M464.539 323.17H673.206V301.211H464.539V323.17Z" fill="#1D1D1E"/>
<path d="M464.01 237.83L467.26 225.547L648.337 310.85L645.124 323.172L464.01 237.83Z" fill="#1D1D1E"/>
<path d="M373.718 261.374C332.219 261.374 307.728 269.916 306.216 274.489C307.728 278.798 332.219 287.302 373.718 287.302C414.839 287.302 439.255 278.949 441.183 274.338C439.255 269.727 414.839 261.374 373.718 261.374ZM373.718 297.96C344.729 297.96 295.596 292.971 295.596 274.338C295.596 255.705 344.729 250.754 373.718 250.754C402.745 250.754 451.841 255.705 451.841 274.338C451.841 292.971 402.745 297.96 373.718 297.96Z" fill="#1D1D1E"/>
</svg>
