<?xml version="1.0" encoding="UTF-8"?>
<!DOCTYPE svg PUBLIC "-//W3C//DTD SVG 1.1//EN" "http://www.w3.org/Graphics/SVG/1.1/DTD/svg11.dtd">
<!-- Creator: CorelDRAW X7 -->
<svg xmlns="http://www.w3.org/2000/svg" xml:space="preserve" width="533.667mm" height="533.667mm" version="1.1" style="shape-rendering:geometricPrecision; text-rendering:geometricPrecision; image-rendering:optimizeQuality; fill-rule:evenodd; clip-rule:evenodd"
viewBox="0 0 53367 53367"
 xmlns:xlink="http://www.w3.org/1999/xlink">
 <defs>
  <style type="text/css">
   <![CDATA[
    .fil0 {fill:black}
   ]]>
  </style>
 </defs>
 <g id="Layer_x0020_1">
  <metadata id="CorelCorpID_0Corel-Layer"/>
  <path class="fil0" d="M49924 1722l1721 0 0 49923 -1721 0 0 -49923zm-3551 48417c561,375 1022,943 1399,1506l-2798 0 1399 -1506zm-7639 -108c100,67 1316,1304 1399,1614l-2798 0c258,-487 305,-451 675,-832 287,-295 393,-560 724,-782zm-7639 108c331,222 433,373 691,708 261,339 489,471 707,798l-2797 0c377,-563 838,-1131 1399,-1506zm-5272 -48417l1721 0 0 49923 -1721 0 0 -49923zm-3551 48417c560,375 1022,943 1399,1506l-2798 0c208,-311 426,-442 662,-737 278,-348 359,-516 737,-769zm-7639 -108c100,67 1316,1304 1399,1614l-2798 0 1399 -1614zm-7639 108c331,222 433,373 691,708 261,339 489,471 707,798l-2797 0c377,-563 838,-1131 1399,-1506zm-5272 -48417l1721 0 0 49923 -1721 0 0 -49923zm38303 46911c0,-184 964,-1231 1155,-1428 489,-504 872,-1070 1320,-1370 442,661 2243,2265 2582,2905 -340,508 -2029,2499 -2475,2798 -201,-135 -2582,-2636 -2582,-2905zm-24101 0c0,-184 964,-1231 1155,-1428 489,-504 872,-1070 1320,-1370 299,447 871,908 1275,1415 457,573 947,809 1307,1490 -340,508 -2029,2499 -2475,2798 -599,-402 -1421,-1547 -1962,-2127 -191,-204 -620,-466 -620,-778zm32278 -646l0 1399c-313,-230 -239,-373 -645,-646 109,-164 499,-646 645,-753zm-18936 1399l0 -1399c146,107 536,589 645,753 -407,273 -332,416 -645,646zm-5810 -753c406,-273 332,-417 645,-646l0 1399c-146,-107 -536,-590 -645,-753zm-18291 753l0 -1399c146,107 535,589 645,753 -407,273 -332,416 -645,646zm29696 2152c-259,-173 -461,-376 -662,-630 -540,-681 -1337,-1457 -1813,-2168 193,-365 2250,-2611 2690,-2905l2474 2798 -2689 2905zm-24102 0c-558,-375 -1388,-1550 -1855,-2018 -325,-326 -375,-415 -619,-780 297,-561 2307,-2494 2582,-2905 508,341 1435,1533 1911,2070 254,289 461,413 671,728l-2690 2905zm32924 -7102c185,-276 344,-369 554,-629l1706 -1953c327,219 2259,2320 2259,2582l0 646c0,357 -1562,1860 -1829,2259 -577,-386 -879,-938 -1370,-1427 -503,-500 -913,-870 -1320,-1478zm-7424 0l2475 -2582 2475 2582 -2475 2798 -2475 -2798zm-5164 2905c-268,-399 -1829,-1902 -1829,-2259l0 -646c0,-361 1858,-2143 2152,-2582 411,276 2196,2328 2367,2582 -127,190 -446,583 -620,780l-2070 2125zm-11513 -2905l2367 -2582c294,439 2152,2221 2152,2582l0 646c0,357 -1562,1860 -1829,2259l-2690 -2905zm-7424 0c389,-447 804,-803 1210,-1265 424,-482 745,-968 1265,-1317l2475 2582 -2475 2798 -2475 -2798zm-5164 2905c-268,-399 -1829,-1902 -1829,-2259l0 -646c0,-361 1857,-2143 2151,-2582 412,276 2197,2328 2367,2582l-2689 2905zm40240 -6886c154,-230 749,-928 968,-1076l0 2152c-219,-147 -814,-845 -968,-1076zm-7209 0l2475 -2689c189,282 253,414 509,674l1750 2015c-461,690 -1924,2057 -2259,2690 -553,-370 -812,-852 -1262,-1320 -525,-545 -783,-728 -1213,-1370zm-7316 0c461,-689 1924,-2056 2259,-2689l2475 2689c-430,642 -688,825 -1213,1370 -451,468 -710,950 -1262,1320 -355,-671 -1778,-1970 -2259,-2690zm-3443 1076l0 -2152c219,148 814,846 968,1076 -154,231 -749,929 -968,1076zm-6133 -1076c154,-230 749,-928 968,-1076l0 2152c-219,-147 -814,-845 -968,-1076zm-7209 0l2475 -2689c585,874 1759,1942 2259,2689 -334,499 -755,850 -1152,1323 -453,542 -869,916 -1107,1367 -553,-370 -812,-852 -1262,-1320 -525,-545 -783,-728 -1213,-1370zm-7316 0c461,-689 1924,-2056 2259,-2689 552,369 811,851 1262,1320 525,545 783,728 1213,1369l-2475 2690c-355,-671 -1778,-1970 -2259,-2690zm-3443 1076l0 -2152c219,148 814,846 968,1076 -154,231 -749,929 -968,1076zm38518 -5057c128,-191 392,-510 570,-721 203,-242 414,-425 641,-650 293,-289 354,-379 602,-689 236,-294 454,-426 662,-737 319,214 2044,1810 2044,2152 0,1019 67,762 -1050,1962 -351,378 -636,882 -1209,1266 -191,-285 -335,-362 -564,-620l-1696 -1963zm-12265 2583c-294,-439 -2152,-2221 -2152,-2583l0 -645c0,-373 1648,-1721 1936,-2152l1963 2018c174,197 493,590 620,779 -185,277 -345,370 -554,630l-1813 1953zm-11836 -2583c553,-824 1163,-1248 1813,-2060 236,-294 454,-426 662,-737 319,214 2044,1810 2044,2152 0,1019 67,762 -1050,1962 -242,260 -280,383 -535,649 -233,244 -412,441 -674,617l-1660 -1891c-235,-303 -405,-401 -600,-692zm-12266 2583c-294,-439 -2151,-2221 -2151,-2583l0 -645c0,-373 1648,-1721 1936,-2152l1963 2018c174,197 492,590 619,779l-2367 2583zm31418 -5380l2475 2797 -2475 2583 -2475 -2583 2475 -2797zm-24101 0c338,226 1397,1564 1857,2016 320,315 381,429 618,781l-2475 2583 -2475 -2583 2475 -2797zm32791 -1266c129,-180 644,-787 778,-886l0 1614 -778 -728zm-7399 -133c0,-255 1786,-2035 2152,-2582l2716 2663c-114,379 -2104,2451 -2501,2717 -195,-291 -365,-389 -600,-691 -267,-345 -1767,-1859 -1767,-2107zm-10734 886l-25 -1639c134,99 649,706 753,861l-728 778zm-5968 -753c129,-180 644,-787 778,-886l0 1614 -778 -728zm-7399 -133c0,-255 1786,-2035 2152,-2582l2716 2663c-160,531 -1964,2075 -2393,2717 -539,-361 -1412,-1545 -1855,-2019 -191,-204 -620,-466 -620,-779zm-10734 886l-25 -1639c134,99 649,706 753,861l-728 778zm29886 1912c-433,-290 -974,-876 -1291,-1291 -324,-425 -1044,-875 -1184,-1399l2664 -2716 2285 2608 -2474 2798zm-24209 0c-412,-615 -2225,-2159 -2367,-2690l2663 -2716 1666 1937c248,266 423,377 620,671l-2582 2798zm33462 -5810l3443 0c-708,1057 -1357,1267 -1506,1829 -390,-104 -1697,-1471 -1937,-1829zm-6994 0l2798 0c-258,487 -305,451 -675,832 -287,295 -393,560 -724,782l-1399 -1614zm-7639 0l3443 0c-244,364 -564,617 -888,941 -321,322 -583,764 -1049,888 -145,-545 -809,-789 -1506,-1829zm-9468 0l3443 0c-708,1057 -1357,1267 -1507,1829 -448,-120 -686,-525 -995,-834 -340,-341 -684,-612 -941,-995zm-6994 0l2798 0 -1399 1614 -1399 -1614zm-7639 0l3443 0c-247,369 -1549,1725 -1937,1829 -145,-545 -809,-789 -1506,-1829zm23671 -3443l18936 0 0 1721 -18936 0 0 -1721zm-24101 0l18936 0 0 1721 -18936 0 0 -1721zm37873 -6886l0 1721 1721 0 0 -861c384,103 897,545 1291,754 239,-451 513,-773 755,-1189 301,-518 -205,-425 1397,-425l0 5164 -18936 0 0 -5164 3443 0 0 1721 1721 0 0 -861c384,103 897,545 1291,754l900 -1485c113,-151 -228,25 125,-105l1665 -24c1542,0 3085,0 4627,0zm-24101 0l0 1721 1721 0 0 -861c384,103 897,545 1291,754l875 -1434c103,-176 -131,-99 219,-174 167,-35 840,-6 1058,-6l0 5164 -18936 0 0 -5164 3443 0 0 1721 1721 0 0 -861c384,103 896,545 1291,754l899 -1485c114,-151 -228,25 125,-105l6293 -24zm24101 -10329l0 1721 1721 0 0 -861c384,103 897,545 1291,753 239,-450 513,-772 755,-1188 17,-29 104,-218 120,-245 103,-176 -131,-99 219,-174 167,-35 840,-6 1058,-6l0 8607 -3443 0 0 -1721 -1721 0 0 860c-384,-102 -897,-544 -1291,-753l-875 1434c-117,198 170,38 -150,156l-6292 24 0 -1721 -1721 0 0 860c-384,-102 -897,-544 -1291,-753l-875 1434c-103,175 130,99 -219,173 -167,36 -841,7 -1058,7l0 -8607 3443 0 0 1721 1721 0 0 -861c384,103 897,545 1291,753l875 -1433c116,-198 -170,-39 150,-156l6292 -24zm-24101 0l0 1721 1721 0 0 -861c384,103 897,545 1291,753l875 -1433c103,-176 -131,-99 219,-174 167,-35 840,-6 1058,-6l0 8607 -3443 0 0 -1721 -1721 0 0 860c-384,-102 -897,-544 -1292,-753l-874 1434c-6,11 -17,41 -25,51 -113,151 228,-25 -125,105l-1665 24c-1543,0 -3085,0 -4627,0l0 -1721 -1721 0 0 860c-384,-102 -897,-544 -1292,-753l-874 1434c-103,175 130,99 -219,173 -167,36 -841,7 -1058,7l0 -8607 3443 0 0 1721 1721 0 0 -861c384,103 896,545 1291,753l875 -1433c116,-198 -171,-39 149,-156l1666 -24c1542,0 3084,0 4627,0zm-18937 -7102l0 51861 53367 0 0 -51861c0,-672 -835,-1506 -1507,-1506l-2151 0c-672,0 -1507,834 -1507,1506l0 5380 -3443 0 0 -1721 -1721 0 0 860c-384,-102 -897,-544 -1291,-753l-875 1434c-53,90 169,188 -617,188 -398,-1 -799,-8 -1198,-8 -1542,0 -3085,0 -4627,0l0 -1721 -1721 0 0 860c-384,-102 -897,-544 -1291,-753l-875 1434c-103,175 130,99 -219,173 -167,36 -841,7 -1058,7l0 -5380c0,-672 -835,-1506 -1507,-1506l-2152 0c-671,0 -1506,834 -1506,1506l0 5380 -3443 0 0 -1721 -1721 0 0 860c-384,-102 -897,-544 -1292,-753l-874 1434c-53,90 169,188 -617,188l-5825 -8 0 -1721 -1721 0 0 860c-384,-102 -897,-544 -1292,-753l-874 1434c-103,175 130,99 -219,173 -167,36 -841,7 -1058,7l0 -5380c0,-672 -835,-1506 -1507,-1506l-2152 0c-672,0 -1506,834 -1506,1506z"/>
 </g>
</svg>
