<svg width="591" height="626" viewBox="0 0 591 626" fill="none" xmlns="http://www.w3.org/2000/svg">
<path d="M268.501 625.165C259.741 620.655 256.911 613.475 257.111 603.735C257.611 579.735 257.281 555.735 257.281 531.735V524.085H249.221C183.287 524.085 117.357 524.085 51.4305 524.085C20.5305 524.085 -2.73947 499.505 0.260527 469.975C2.78053 445.095 5.96053 420.285 8.87053 395.445C13.5905 355.252 18.3139 315.065 23.0405 274.885C28.1139 231.412 33.1505 187.955 38.1505 144.515C42.0205 111.385 46.0605 78.285 49.8205 45.155C52.7505 19.345 73.1505 0.155 99.0705 0.095C229.911 -0.0316667 360.751 -0.0316667 491.591 0.095C517.511 0.095 537.831 19.305 540.831 45.155C548.377 110.008 555.994 174.842 563.681 239.655C565.574 255.815 567.404 271.978 569.171 288.145C569.951 295.225 566.961 299.715 561.291 300.295C555.971 300.845 551.961 297.295 551.141 290.525C547.581 261.045 544.221 231.525 540.771 202.065C535.691 158.445 530.587 114.825 525.461 71.205C524.534 63.325 523.59 55.4483 522.63 47.575C520.45 29.575 507.97 18.385 489.63 18.375C418.004 18.3217 346.377 18.3217 274.751 18.375H103.221C82.2205 18.375 70.4705 28.375 67.9705 49.115C61.7805 100.595 55.8805 152.115 49.8405 203.605C43.5139 257.525 37.1805 311.445 30.8405 365.365C26.7205 400.505 22.5205 435.635 18.5605 470.785C16.3905 490.025 31.0305 505.685 51.2005 505.715C107.974 505.815 164.747 505.815 221.521 505.715H256.791V482.515H65.8105C49.0005 482.515 41.4405 473.595 43.4305 456.945C49.4305 406.875 55.1505 356.785 61.0505 306.695C66.9505 256.605 72.9305 206.515 78.8605 156.425C82.6339 124.485 86.3972 92.5784 90.1505 60.705C91.6005 48.405 98.9305 41.645 111.261 41.625C164.781 41.565 218.297 41.565 271.811 41.625C278.891 41.625 283.12 45.155 283.13 50.775C283.14 56.395 278.911 59.895 271.821 59.905C220.141 59.905 168.474 59.905 116.821 59.905H108.671C92.7972 194.572 76.9372 329.182 61.0905 463.735H148.351C148.351 457.735 147.941 451.655 148.431 445.675C149.381 434.175 148.981 422.135 152.431 411.365C163.661 376.005 188.681 355.095 225.431 351.125C260.431 347.345 287.881 362.015 307.361 391.375C307.921 392.215 308.361 393.135 308.901 394.005C309.441 394.875 309.961 395.715 310.901 397.285L314.161 391.895C334.321 358.955 373.531 343.255 410.161 353.455C428.261 358.408 444.247 369.139 455.685 384.016C467.123 398.893 473.386 417.1 473.521 435.865C473.621 444.995 473.521 454.125 473.521 463.695H529.661C513.841 329.165 498.031 194.965 482.151 59.915H321.531C319.5 60.0443 317.461 59.9874 315.44 59.745C310.66 58.855 307.791 55.835 307.681 50.955C307.571 46.075 310.411 42.955 315.111 41.865C317.118 41.5555 319.154 41.4716 321.181 41.615H476.851C492.311 41.615 498.941 47.225 500.741 62.365C507.681 120.705 514.567 179.055 521.401 237.415C528.947 301.228 536.514 365.035 544.101 428.835C545.351 439.335 546.641 449.835 547.791 460.335C549.111 472.485 540.491 482.335 528.151 482.415C510.271 482.575 492.391 482.415 474.031 482.415V505.695H487.901C504.781 505.695 521.67 505.695 538.56 505.695C561.1 505.605 574.561 489.785 571.801 467.475C566.591 424.895 561.801 382.255 556.801 339.645C556.606 338.029 556.496 336.403 556.471 334.775C556.471 329.335 559.53 325.485 564.37 324.885C565.539 324.734 566.725 324.816 567.862 325.126C568.998 325.436 570.062 325.968 570.992 326.691C571.922 327.414 572.699 328.315 573.279 329.34C573.859 330.365 574.23 331.496 574.37 332.665C575.6 340.075 576.301 347.575 577.181 355.045C581.614 393.045 586.034 431.018 590.44 468.965C593.67 497.115 571.561 523.105 543.241 523.825C521.891 524.355 500.511 523.985 479.151 524.025H473.551V531.025C473.551 555.445 473.291 579.865 473.681 604.285C473.841 614.145 470.621 621.205 461.411 625.165H422.341C414.961 621.565 410.281 615.965 410.401 607.575H320.221C320.081 616.515 315.451 622.065 307.581 625.165H268.501ZM301.291 606.665C301.441 605.305 301.601 604.515 301.601 603.735C301.601 546.995 302.111 490.245 301.361 433.505C300.751 386.625 250.611 355.505 207.741 374.435C175.481 388.705 158.561 426.245 167.561 463.835H192.851C192.851 454.015 192.611 444.505 192.901 435.005C193.103 428.682 194.756 422.49 197.732 416.907C200.708 411.324 204.927 406.5 210.063 402.806C215.2 399.113 221.116 396.649 227.356 395.605C233.595 394.561 239.992 394.965 246.051 396.785C264.281 402.235 275.551 418.215 275.571 438.995C275.617 492.488 275.617 545.978 275.571 599.465V606.665H301.291ZM455.291 606.665V581.155C455.291 532.955 455.68 484.745 455.13 436.545C454.81 408.225 441.411 386.925 415.551 375.055C390.621 363.605 366.551 367.055 345.271 384.325C319.531 405.145 318.09 433.855 320.57 463.635H346.51C346.51 453.635 346.26 444.055 346.56 434.535C346.923 423.948 351.384 413.916 359.001 406.554C366.619 399.192 376.797 395.077 387.391 395.075C409.181 394.885 427.511 411.725 428.651 433.395C429.151 442.725 429.051 452.105 428.831 461.455C428.731 465.525 430.021 467.935 433.411 470.405C448.031 481.055 450.341 502.825 436.861 514.545C429.611 520.835 428.171 527.165 428.861 535.545C429.161 539.175 428.561 542.905 429.051 546.545C429.324 548.784 430.388 550.851 432.051 552.375C450.051 565.865 450.051 588.995 432.051 602.455C430.566 603.779 429.173 605.203 427.88 606.715L455.291 606.665ZM320.291 505.775H358.57C377.47 505.775 396.371 505.855 415.271 505.705C422.271 505.645 427.06 500.705 427.13 494.385C427.21 488.325 422.68 483.445 416.13 482.625C414.914 482.513 413.692 482.477 412.471 482.515C383.411 482.515 354.347 482.515 325.281 482.515C323.711 482.515 322.141 482.715 320.281 482.845L320.291 505.775ZM320.291 588.245C320.927 588.54 321.6 588.752 322.291 588.875C353.371 588.875 384.451 588.875 415.531 588.875C416.141 588.868 416.75 588.812 417.351 588.705C419.991 588.327 422.414 587.03 424.192 585.042C425.97 583.053 426.989 580.501 427.07 577.835C427.07 572.155 424.331 568.115 418.791 566.455C416.635 565.887 414.409 565.628 412.181 565.685C383.334 565.645 354.487 565.645 325.641 565.685C323.881 565.685 322.121 565.935 320.281 566.085L320.291 588.245ZM257.291 463.995C257.291 456.465 257.291 449.595 257.291 442.725C257.381 439.879 257.301 437.031 257.051 434.195C255.591 422.515 246.941 414.205 235.761 413.515C224.581 412.825 214.001 419.675 212.331 431.305C210.801 441.945 212.001 452.965 212.001 463.985L257.291 463.995ZM320.171 546.995H410.051V524.515H320.151L320.171 546.995ZM364.981 463.845H410.421C410.421 453.845 410.79 444.135 410.32 434.485C409.75 422.725 400.11 413.835 388.32 413.435C376.89 413.045 366.011 421.725 365.101 433.195C364.341 443.185 364.971 453.325 364.971 463.815L364.981 463.845Z" fill="black"/>
<path d="M310.71 313.099C285.97 337.739 247.3 340.509 219 313.299C208.51 323.749 196 330.559 181.14 332.199C175.891 332.761 170.594 332.697 165.36 332.009C159.88 331.289 157.1 327.149 157.8 322.009C158.5 316.869 161.85 313.849 167.01 314.249C183.86 315.589 197.51 309.879 208.81 297.249C214.86 290.509 224.16 291.249 230.81 298.539C237.63 305.949 245.58 311.249 255.5 313.269C271.5 316.529 285.29 312.149 296.75 300.649C307.17 290.189 314.02 290.129 324.4 300.759C328.527 305.07 333.486 308.499 338.977 310.838C344.469 313.177 350.377 314.377 356.345 314.366C362.314 314.355 368.218 313.132 373.7 310.773C379.182 308.413 384.129 304.966 388.24 300.639C398.5 290.099 405.47 290.139 415.86 300.769C424.86 309.969 435.86 314.369 448.72 314.319C450.14 314.319 451.57 314.169 452.99 314.149C459.19 314.149 462.84 316.909 463.34 322.079C463.88 327.589 460.7 331.599 454.43 332.289C439.728 334.034 424.896 330.35 412.72 321.929C409.04 319.439 405.72 316.419 401.77 313.279C389.28 325.699 374.15 332.759 356.24 332.699C338.54 332.699 323.43 325.979 310.71 313.099Z" fill="black"/>
<path d="M402.15 238.139C379.15 261.309 340.15 266.389 310.24 238.309C297.79 250.609 282.84 257.469 265.1 257.519C247.36 257.569 232.29 250.879 219.39 238.179C216.97 240.179 214.7 242.099 212.39 243.939C202.369 252.064 190.007 256.761 177.12 257.339C170.67 257.629 166.78 254.599 166.38 249.209C165.98 243.819 169.13 239.759 175.55 239.279C188.89 238.279 199.41 232.489 208.32 222.659C214.94 215.359 224.19 216.249 231.68 224.259C244.24 237.689 259.68 242.599 277.04 237.199C284.62 234.849 291.77 229.589 297.81 224.199C306.88 216.079 314.81 215.489 323.12 224.259C342.24 244.399 370.32 244.449 389.41 224.369C397.83 215.509 406.25 215.429 414.49 224.309C422.58 233.019 432.32 238.139 444.29 239.089C451.64 239.679 455.18 243.289 454.82 249.089C454.46 254.889 450.35 257.699 442.95 257.269C427.04 256.259 413.75 249.449 402.15 238.139Z" fill="black"/>
<path d="M402.23 162.539C376.68 187.539 337.89 188.989 310.3 162.619C297.84 174.899 282.9 181.809 265.16 181.869C247.42 181.929 232.35 175.289 219.35 162.519C217.9 163.739 216.53 164.829 215.22 165.989C206.96 173.229 197.6 178.359 186.74 180.379C180.99 181.459 176.81 178.689 175.61 173.539C174.51 168.839 177.02 164.369 182.39 162.949C192.452 160.276 201.499 154.685 208.39 146.879C214.96 139.679 224.17 140.759 231.76 148.759C245.29 162.999 264.15 167.759 281.23 160.259C287.37 157.559 293.03 153.099 297.95 148.429C306.5 140.319 314.75 139.919 322.78 148.339C342.33 168.819 370.15 168.899 389.51 148.529C397.62 139.989 406.31 139.869 414.16 148.399C420.138 155.119 427.958 159.935 436.65 162.249C443.77 164.119 446.8 168.429 445.34 173.859C443.78 179.649 438.92 181.859 431.57 179.859C420.401 176.85 410.26 170.863 402.23 162.539Z" fill="black"/>
</svg>
