<?xml version="1.0" encoding="UTF-8"?>
<!DOCTYPE svg PUBLIC "-//W3C//DTD SVG 1.1//EN" "http://www.w3.org/Graphics/SVG/1.1/DTD/svg11.dtd">
<!-- Creator: CorelDRAW X7 -->
<svg xmlns="http://www.w3.org/2000/svg" xml:space="preserve" width="30.5785mm" height="29.5516mm" version="1.1" style="shape-rendering:geometricPrecision; text-rendering:geometricPrecision; image-rendering:optimizeQuality; fill-rule:evenodd; clip-rule:evenodd"
viewBox="0 0 2729 2637"
 xmlns:xlink="http://www.w3.org/1999/xlink">
 <defs>
  <style type="text/css">
   <![CDATA[
    .fil0 {fill:#A75F4A;fill-rule:nonzero}
   ]]>
  </style>
 </defs>
 <g id="Layer_x0020_1">
  <metadata id="CorelCorpID_0Corel-Layer"/>
  <g id="_1379473573104">
   <path class="fil0" d="M398 2294c-4,9 -5,19 -10,24 -8,8 -19,14 -29,21 -6,-10 -15,-19 -16,-28 -2,-21 0,-43 0,-71 -85,0 -166,0 -246,0 -76,0 -97,-21 -97,-97 0,-420 0,-840 0,-1259 0,-81 25,-99 106,-95 69,4 139,0 208,-4 10,0 25,-18 27,-29 13,-58 27,-71 88,-72 34,0 69,0 104,0 1,-6 2,-11 3,-17 -20,-17 -40,-35 -64,-56 14,-14 26,-27 40,-37 39,-31 35,-105 -10,-127 -39,-19 -31,-38 -3,-56 26,-17 40,-37 38,-69 -2,-25 -6,-41 -29,-56 -43,-26 -39,-41 -4,-75 41,-38 80,-78 75,-142 -1,-16 10,-33 15,-49 5,1 10,2 14,2 3,11 10,21 8,31 -8,73 30,122 82,165 32,26 20,46 -7,67 -45,35 -47,84 -4,119 42,33 42,38 -4,67 -33,21 -36,95 -5,121 14,11 28,22 47,37 -25,21 -45,39 -65,56 28,22 567,29 634,10 -3,-7 -3,-17 -8,-21 -35,-28 -44,-53 -3,-87 27,-22 17,-98 -12,-120 -25,-20 -21,-36 -3,-56 40,-47 37,-80 0,-133 -10,-13 -10,-40 -3,-57 9,-23 25,-46 44,-63 31,-26 33,-58 33,-95 -1,-13 12,-27 19,-40 9,13 26,28 25,40 -11,68 40,106 72,151 18,27 23,44 -1,68 -34,34 -33,93 3,129 19,20 26,36 -3,55 -26,16 -36,106 -12,124 41,31 34,53 -2,79 -6,4 -5,17 -9,32 20,1 35,3 51,3 175,0 351,0 526,0 17,0 33,-7 50,-10 -10,-13 -20,-26 -30,-38 -7,-8 -13,-15 -23,-26 12,-13 22,-26 34,-35 37,-29 35,-107 -6,-128 -35,-18 -28,-35 -6,-56 50,-46 51,-84 1,-131 -23,-21 -25,-41 -1,-62 50,-42 83,-91 76,-160 -1,-11 11,-24 18,-36 7,13 22,26 21,37 -8,70 41,109 80,155 11,14 18,43 11,58 -4,9 -10,17 -17,25l-11 95c3,4 6,7 10,10 40,33 40,40 -3,69 -27,17 -33,92 -9,116 46,49 46,49 -5,88 -3,2 -4,8 -14,24 36,2 65,5 94,5 87,1 99,11 111,103 84,0 170,0 255,0 36,-1 66,11 75,49 3,10 -6,23 -9,34 -10,-5 -21,-9 -31,-15 -10,-6 -18,-21 -28,-21 -87,-2 -174,-1 -264,-1 0,454 0,903 0,1359 89,0 177,1 266,-1 8,-1 20,-18 24,-30 5,-12 2,-26 2,-39 0,-386 -1,-836 0,-1221 1,-87 44,-55 44,-1 6,83 2,832 1,1241 0,78 -22,99 -100,99 -78,0 -155,0 -240,0 0,50 0,97 0,145 0,72 -8,81 -82,84 -8,0 -16,1 -31,3 0,41 -1,82 0,123 1,28 -6,43 -38,42 -73,-1 -146,1 -218,-1 -13,-1 -35,-13 -36,-23 -4,-23 2,-123 4,-147 12,4 28,-9 35,0 7,8 4,113 7,129 69,0 137,0 208,0 0,-40 0,-79 0,-126 -103,0 -208,0 -307,0 -382,0 -764,0 -1146,0 -8,0 -16,1 -32,2 0,41 -1,81 0,122 2,32 -11,44 -43,44 -73,-1 -145,-1 -218,0 -33,1 -49,-10 -46,-46 2,-39 0,-78 0,-120 -21,-1 -37,-1 -53,-3 -80,16 -43,-119 -44,-151 4,-6 31,-5 37,1 8,9 7,93 10,108 647,0 1293,0 1946,0 0,-36 2,-70 -2,-104 -1,-10 -16,-19 -26,-27 -3,-3 -9,-1 -14,-1 -632,0 -1263,0 -1900,0zm1757 -1989l-5 -2c-11,-5 -20,-13 -30,-19 -5,12 -14,25 -14,37 -2,82 -2,164 -4,246 0,15 -5,29 -8,46 22,0 48,0 74,0 -35,-65 -32,-151 3,-192 -7,-14 -17,-26 -19,-40 -2,-12 5,-26 8,-39l-5 -37zm-796 1957l0 0c308,0 615,-1 923,1 44,0 59,-12 59,-58 -2,-476 -1,-953 0,-1429 0,-36 -14,-50 -50,-49 -73,2 -145,1 -218,1 -544,0 -1088,0 -1632,-1 -38,0 -52,11 -52,50 1,478 2,956 0,1434 0,42 12,52 53,52 306,-2 611,-1 917,-1zm-1017 -751l0 0c0,-210 -1,-420 1,-629 1,-40 -11,-51 -50,-51 -56,2 -111,-3 -167,-6 -51,-4 -79,13 -79,53 0,423 0,846 0,1268 0,34 11,48 46,47 66,-1 132,-2 198,1 42,2 53,-14 52,-54 -2,-210 -1,-419 -1,-629zm152 1085l0 0c71,0 138,0 206,0 0,-44 0,-83 0,-124 -70,0 -137,0 -206,0 0,42 0,80 0,124zm823 -1982l0 0c31,0 60,0 90,0 -30,-59 -28,-152 -6,-184 -6,-45 -12,-80 -14,-115 -1,-31 -14,-37 -40,-28 -6,45 -13,89 -21,142 24,29 25,136 -9,185zm-682 1l0 0c-5,-14 -13,-25 -13,-36 3,-51 11,-102 10,-153 -1,-44 -11,-89 -18,-133 -1,-3 -16,-10 -19,-8 -7,5 -13,14 -15,22 -6,34 -11,67 -15,101 -1,7 -3,16 0,22 29,62 14,122 -2,185 23,0 47,0 72,0zm729 -481l0 0c-19,40 -32,67 -48,101 33,0 61,0 96,0 -16,-34 -29,-60 -48,-101zm720 100l0 0c34,0 60,0 95,0 -23,-35 -40,-59 -56,-83 -12,25 -24,50 -39,83zm-1475 -82l0 0c-5,-1 -10,-3 -14,-4 -12,27 -24,54 -39,87 31,0 55,0 81,0 -11,-32 -19,-57 -28,-83z"/>
   <path class="fil0" d="M2489 1557c-23,-2 -40,-3 -56,-4 -11,-42 95,-206 169,-249 -5,58 -10,108 -14,162 8,1 24,0 32,7 9,9 18,30 13,37 -41,64 -86,126 -131,187 -6,9 -21,10 -32,15 -3,-12 -12,-25 -10,-35 7,-39 18,-76 29,-120z"/>
   <path class="fil0" d="M1359 2262c-306,0 -611,-1 -917,1 -41,0 -53,-10 -53,-52 2,-478 1,-956 0,-1434 0,-39 14,-50 52,-50 544,1 1088,1 1632,1 73,0 145,1 218,-1 36,-1 50,13 50,49 -1,476 -2,953 0,1429 0,46 -15,58 -59,58 -308,-2 -615,-1 -923,-1zm-359 -768l0 0c0,-178 1,-357 -1,-535 0,-19 -13,-39 -20,-58 -9,20 -25,40 -25,61 -2,356 -1,713 -1,1070 0,11 -3,25 2,34 5,10 17,16 26,24 6,-9 15,-17 18,-26 3,-13 1,-26 1,-40 0,-176 0,-353 0,-530zm-249 3l0 0c0,-15 0,-30 0,-45 0,-167 1,-333 -1,-500 0,-17 -14,-34 -22,-51 -8,18 -16,35 -24,53 -1,3 0,6 0,10 0,355 0,710 0,1065 0,15 1,30 5,44 2,7 14,16 21,16 6,0 17,-10 19,-18 3,-12 2,-26 2,-39 0,-178 0,-357 0,-535zm762 -2l0 0c0,-177 1,-354 -1,-530 0,-22 -14,-43 -21,-64 -9,22 -24,43 -24,65 -2,316 -2,631 -3,947 0,48 0,96 3,143 1,12 14,23 21,34 8,-11 19,-22 24,-36 4,-10 1,-22 1,-34 0,-175 0,-350 0,-525zm-173 -4l0 0c0,184 0,367 1,550 1,17 14,33 21,49 8,-17 17,-34 25,-51 1,-2 0,-6 0,-9 0,-357 0,-714 0,-1070 0,-14 1,-28 -3,-39 -4,-9 -15,-16 -24,-18 -5,-1 -16,11 -17,19 -3,14 -2,29 -2,44 -1,175 -1,350 -1,525zm765 1l0 0c0,178 0,357 0,535 0,16 1,33 4,49 1,6 11,13 16,13 6,1 15,-7 17,-13 4,-10 4,-22 4,-34 0,-365 0,-730 0,-1095 0,-5 1,-11 -1,-15 -5,-11 -11,-21 -17,-31 -7,10 -18,19 -22,31 -4,12 -1,26 -1,39 0,173 0,347 0,521zm-208 8l0 0c0,-185 0,-370 -1,-554 0,-15 -13,-30 -20,-45 -8,15 -17,30 -25,46 -2,4 0,9 0,14 0,357 0,713 0,1070 0,13 -2,27 3,39 3,8 14,16 24,19 3,1 15,-12 16,-20 4,-14 3,-29 3,-44 0,-175 0,-350 0,-525zm-1066 -6l0 0c0,179 0,357 1,535 1,21 14,41 22,61 7,-21 20,-42 20,-63 1,-354 1,-707 1,-1060 0,-15 1,-30 -3,-44 -2,-9 -14,-15 -21,-22 -6,8 -16,15 -18,24 -3,13 -2,26 -2,40 0,176 0,353 0,529zm425 -591l0 0c-48,-3 -39,30 -39,53 -1,359 -1,718 0,1076 0,20 14,39 22,58 7,-19 20,-38 20,-57 1,-359 1,-718 0,-1076 0,-18 -2,-36 -3,-54zm768 593l0 0c0,-177 1,-353 -1,-530 0,-22 -16,-43 -24,-65 -7,22 -20,43 -20,64 -1,354 -1,707 -1,1060 0,11 -2,24 1,34 4,11 12,21 19,31 8,-10 20,-19 25,-30 4,-12 1,-26 1,-39 0,-175 0,-350 0,-525zm-1430 597l0 0c6,-2 12,-3 17,-5 0,-395 0,-791 0,-1187 -5,-1 -11,-2 -16,-4 -6,16 -16,32 -16,48 -1,366 -1,733 0,1099 0,17 10,33 15,49zm1136 -601l0 0c0,182 -1,364 0,545 1,18 13,36 20,53 7,-18 14,-35 20,-53 1,-3 0,-7 0,-10 0,-355 0,-711 0,-1066 0,-15 0,-30 -4,-44 -1,-7 -12,-13 -20,-15 -3,-1 -13,9 -14,16 -2,14 -2,29 -2,44 0,177 0,353 0,530zm-617 -599l0 0c-30,50 -29,1160 2,1203 5,-22 12,-38 12,-54 1,-365 1,-730 0,-1095 0,-15 -8,-31 -14,-54zm514 6l0 0c-7,2 -14,3 -21,5 0,394 0,789 0,1184 6,1 11,3 16,4 5,-14 14,-27 14,-41 1,-64 0,-128 0,-193 0,-300 0,-601 0,-901 0,-19 -6,-39 -9,-58z"/>
   <path class="fil0" d="M150 1558c-70,-8 -74,-13 -42,-65 36,-58 78,-113 119,-168 6,-8 22,-8 33,-12 3,12 12,26 10,38 -8,37 -19,73 -29,109 66,22 72,34 34,92 -34,52 -75,99 -114,148 -6,7 -19,9 -29,13 -5,-11 -15,-23 -13,-33 8,-40 20,-79 31,-122z"/>
  </g>
 </g>
</svg>
