<?xml version="1.0" encoding="UTF-8"?>
<!DOCTYPE svg PUBLIC "-//W3C//DTD SVG 1.1//EN" "http://www.w3.org/Graphics/SVG/1.1/DTD/svg11.dtd">
<!-- Creator: CorelDRAW X7 -->
<svg xmlns="http://www.w3.org/2000/svg" xml:space="preserve" width="21.6969mm" height="20.9936mm" version="1.1" style="shape-rendering:geometricPrecision; text-rendering:geometricPrecision; image-rendering:optimizeQuality; fill-rule:evenodd; clip-rule:evenodd"
viewBox="0 0 157 152"
 xmlns:xlink="http://www.w3.org/1999/xlink">
 <defs>
  <style type="text/css">
   <![CDATA[
    .fil0 {fill:#A75F4A;fill-rule:nonzero}
   ]]>
  </style>
 </defs>
 <g id="Layer_x0020_1">
  <metadata id="CorelCorpID_0Corel-Layer"/>
  <g id="_1379455042192">
   <path class="fil0" d="M0 150c1,1 2,2 4,2 4,-1 8,0 13,0 2,0 3,-1 3,-3 0,-3 0,-6 0,-9 0,0 0,0 0,0 2,0 3,0 5,0 4,0 8,0 11,0 8,0 13,-5 13,-13 0,0 0,-1 0,-2 1,0 2,0 2,0 3,0 5,-2 5,-4 0,-3 0,-5 0,-7 0,-3 -2,-5 -5,-5 0,0 -1,0 -2,0 0,0 0,0 0,0 3,-4 3,-8 1,-12 4,0 7,-1 9,-3 3,-2 4,-5 5,-8 3,1 6,1 10,2 14,4 28,7 42,11 3,1 6,0 9,-2 3,-2 6,-6 8,-10 6,-10 10,-22 12,-33 0,-3 0,-5 0,-8 1,0 1,-1 1,-1 5,-2 8,-6 10,-11 0,-1 0,-2 1,-3 0,-1 0,-1 0,-2 -1,0 -2,-1 -3,-1 -11,-3 -22,-6 -33,-9 -4,-1 -7,-2 -11,-3 0,-2 1,-4 1,-6 1,-2 0,-3 -2,-3 -6,-2 -11,-3 -17,-5 -3,0 -4,0 -4,2 -1,2 -1,4 -2,6 0,0 -1,0 -1,0 -12,-3 -24,-6 -36,-9 -17,-4 -34,3 -42,17 -3,5 -4,10 -5,15 -1,2 0,3 2,4 2,0 4,1 6,1 -1,4 -2,8 -3,12 -3,11 4,22 16,26 1,0 2,0 3,0 -3,7 -1,13 6,16 -3,2 -4,5 -5,8 0,3 0,6 2,9 0,0 -1,0 -1,0 -4,0 -6,2 -6,6 0,2 0,4 0,6 -1,0 -3,0 -4,0 -3,0 -3,-1 -3,-4 0,-10 0,-21 0,-31 0,-2 -1,-3 -3,-3 -3,0 -6,0 -8,0 -2,0 -3,0 -4,1 0,22 0,44 0,66zm151 -118l0 0c-1,6 -6,10 -13,9 -17,-5 -33,-9 -49,-13 -8,-2 -15,3 -18,10 -2,6 -7,9 -13,7 -5,-1 -10,-2 -15,-4 -1,0 -2,0 -2,0 -1,1 -2,2 -2,3 0,1 1,2 2,2 6,1 12,3 18,4 2,1 4,1 5,0 6,-1 10,-4 12,-10 1,-4 4,-7 8,-7 3,0 5,0 7,1 0,0 0,0 0,0 0,1 0,1 0,1 -5,11 -8,23 -9,35 0,6 1,11 2,16 0,0 0,0 -1,0 -11,-3 -22,-6 -34,-9 -8,-2 -17,-4 -25,-6 -8,-2 -13,-10 -12,-18 1,-4 2,-8 3,-12 0,-1 0,-1 0,-2 1,1 2,1 2,1 2,0 3,0 3,-2 1,-1 0,-2 -2,-3 0,0 0,0 -1,0 -3,-1 -7,-2 -10,-3 0,-1 1,-2 1,-4 5,-17 22,-27 40,-22 30,7 60,15 90,22 4,1 9,2 13,4zm-41 60l0 0c-6,-1 -11,-2 -17,-4 -2,0 -3,-1 -3,-2 -1,-2 -2,-4 -2,-6 -1,-7 -1,-14 1,-21 1,-8 4,-16 7,-23 0,0 0,-1 1,-1 7,2 14,4 21,5 -1,2 -2,4 -2,6 -6,15 -10,30 -6,46zm-100 -4l0 0c0,10 0,20 0,30 0,5 3,7 8,7 8,0 16,0 24,0 1,0 1,0 2,0 1,7 -3,10 -9,10 -9,0 -19,0 -28,0 -1,0 -1,0 -2,0 0,-16 0,-32 0,-48 1,0 3,0 4,0 0,0 0,1 1,1zm130 -42l0 0c0,1 0,1 0,2 -1,13 -4,25 -10,36 -2,3 -4,6 -8,9 -3,2 -5,2 -7,-2 -1,-2 -1,-5 -1,-8 -1,-6 0,-13 1,-19 2,-7 4,-14 7,-21 0,-1 1,-1 1,-1 2,0 3,0 4,1 0,0 0,0 0,1 -5,9 -7,19 -8,30 -1,3 -1,6 -1,10 0,1 1,2 2,2 1,1 2,0 3,-1 0,0 1,-1 1,-2 6,-10 10,-21 11,-32 0,-2 1,-4 1,-6 1,0 3,1 4,1zm-81 39l0 0c-1,6 -6,8 -11,7 -4,-2 -8,-2 -12,-3 -5,-1 -8,-6 -5,-11 9,2 18,4 28,7zm-32 29l0 0c8,0 16,0 24,0 0,2 0,4 0,7 -8,0 -16,0 -24,0 0,-1 0,-1 0,-1 0,-2 0,-4 0,-6zm12 -5l0 0c-4,0 -7,-3 -7,-7 0,-4 3,-7 7,-7 4,0 8,3 8,7 0,4 -4,7 -8,7zm52 -97l0 0c0,-2 1,-3 1,-5 5,1 9,2 14,4 0,1 -1,3 -1,4 -5,-1 -9,-2 -14,-3zm-86 135l0 0c0,-3 0,-5 0,-7 3,0 6,0 10,0 0,2 0,4 0,7 -4,0 -7,0 -10,0zm118 -73l0 0c1,-9 4,-18 7,-26 0,9 -3,18 -7,26z"/>
   <path class="fil0" d="M24 40c1,1 1,2 2,2 2,1 4,1 5,1 2,1 3,0 3,-1 0,-2 0,-3 -1,-3 -2,-1 -4,-1 -6,-1 -1,-1 -2,0 -3,2z"/>
   <path class="fil0" d="M39 104c1,0 3,-1 3,-2 0,-2 -2,-3 -3,-3 -1,0 -2,1 -2,3 0,1 1,2 2,2z"/>
  </g>
 </g>
</svg>
