<?xml version="1.0" encoding="UTF-8"?>
<!DOCTYPE svg PUBLIC "-//W3C//DTD SVG 1.1//EN" "http://www.w3.org/Graphics/SVG/1.1/DTD/svg11.dtd">
<!-- Creator: CorelDRAW X7 -->
<svg xmlns="http://www.w3.org/2000/svg" xml:space="preserve" width="209.642mm" height="212.32mm" version="1.1" style="shape-rendering:geometricPrecision; text-rendering:geometricPrecision; image-rendering:optimizeQuality; fill-rule:evenodd; clip-rule:evenodd"
viewBox="0 0 20964 21232"
 xmlns:xlink="http://www.w3.org/1999/xlink">
 <defs>
  <style type="text/css">
   <![CDATA[
    .fil2 {fill:#C59A6C}
    .fil1 {fill:#754C29}
    .fil0 {fill:#754C29}
   ]]>
  </style>
 </defs>
 <g id="Layer_x0020_1">
  <metadata id="CorelCorpID_0Corel-Layer"/>
  <g id="_2262487477424">
   <path class="fil0" d="M6529 14190l-1400 0c-245,0 -443,-198 -443,-443 0,-243 198,-443 443,-443l1620 0c157,54 270,203 270,377l1014 0c0,-131 -17,-256 -51,-377 -164,-597 -711,-1035 -1360,-1035l-1493 0c-529,0 -1021,286 -1285,745 -126,223 -194,476 -194,733 0,259 68,512 194,735 57,99 126,190 202,273 277,296 668,471 1083,471l1400 0c244,0 443,200 443,443 0,245 -199,443 -443,443l-1596 0c-156,-53 -269,-202 -269,-376l-1014 0c0,130 17,257 50,376 165,597 713,1036 1363,1036l1466 0c529,0 1022,-285 1285,-745 127,-222 194,-475 194,-734 0,-257 -67,-510 -194,-733 -263,-460 -756,-746 -1285,-746l0 0z"/>
   <path class="fil0" d="M9322 15232l1975 0c200,46 344,226 344,433 0,203 -139,382 -333,432l-1986 0 0 -865zm3169 -289c-82,-146 -187,-277 -311,-387 -18,-15 -36,-31 -54,-46 7,-11 13,-23 21,-36l0 -1 1 0 0 -2c3,-3 5,-8 7,-11 123,-221 187,-470 187,-723 0,-251 -64,-499 -184,-717 -4,-7 -7,-15 -12,-22 -264,-459 -757,-743 -1285,-743l-2575 0 0 1054 1036 0 0 -2 1655 0c192,51 328,230 328,430 0,213 -149,394 -357,436l-2662 0 0 2975 2575 0c55,0 112,-4 167,-10 57,6 112,10 169,10 538,0 1035,-291 1296,-763 121,-219 185,-467 185,-720 0,-253 -64,-503 -187,-722l0 0z"/>
   <polygon class="fil1" points="15852,12262 15852,14895 13193,12236 12936,12236 12936,12362 12936,12827 12936,13444 13972,14481 14681,15189 15909,16417 16641,17148 16888,17148 16888,12262 "/>
   <polygon class="fil1" points="12936,17142 13972,17142 13972,15502 12936,14466 "/>
   <polygon class="fil2" points="12832,9060 10236,7798 10269,7728 "/>
   <polygon class="fil2" points="12796,8218 10232,6831 10271,6762 "/>
   <polygon class="fil2" points="12760,7376 10235,5867 10272,5796 "/>
   <polygon class="fil2" points="12724,6534 10231,4895 10273,4830 "/>
   <polygon class="fil2" points="12689,5691 10229,3927 10275,3865 "/>
   <polygon class="fil2" points="12654,4849 10228,2964 10276,2899 "/>
   <polygon class="fil2" points="12619,4007 10227,1992 10277,1933 "/>
   <polygon class="fil2" points="12584,3164 10226,1024 10276,964 12573,3164 "/>
   <polygon class="fil2" points="12549,2322 10226,56 10279,0 12555,2314 "/>
   <polygon class="fil1" points="10269,9008 10269,10157 5522,11488 "/>
   <polygon class="fil2" points="10269,9008 10269,10157 15017,11488 "/>
   <polygon class="fil1" points="10269,7728 7674,8990 7674,9403 10269,8141 "/>
   <polygon class="fil1" points="10271,6762 7707,8150 7704,8565 10271,7175 "/>
   <polygon class="fil1" points="10272,5796 7740,7309 7735,7727 10272,6209 "/>
   <polygon class="fil1" points="10273,4830 7772,6469 7765,6889 10273,5243 "/>
   <polygon class="fil1" points="10275,3865 7805,5628 7795,6052 10275,4277 "/>
   <polygon class="fil1" points="10276,2899 7838,4788 7825,5214 10276,3311 "/>
   <polygon class="fil1" points="10277,1933 7871,3947 7856,4376 10277,2345 "/>
   <polygon class="fil1" points="10279,967 7904,3107 7886,3538 10279,1379 "/>
   <polygon class="fil1" points="10280,1 7936,2267 7916,2700 10280,413 "/>
   <polygon class="fil1" points="7366,9240 5522,10453 7361,9538 "/>
   <polygon class="fil1" points="7379,8546 5562,9789 7374,8842 "/>
   <polygon class="fil1" points="7392,7856 5602,9131 7387,8150 "/>
   <polygon class="fil1" points="7405,7171 5641,8478 7400,7463 "/>
   <polygon class="fil1" points="7418,6490 5680,7831 7413,6781 "/>
   <polygon class="fil1" points="7431,5814 5719,7188 7426,6102 "/>
   <polygon class="fil1" points="7443,5141 5758,6550 7438,5428 "/>
   <polygon class="fil1" points="7456,4473 5796,5918 7451,4758 "/>
   <polygon class="fil1" points="7468,3808 5834,5290 7463,4092 "/>
   <polygon class="fil2" points="13143,8872 14988,10085 13148,9169 "/>
   <polygon class="fil2" points="13130,8178 14948,9421 13135,8474 "/>
   <polygon class="fil2" points="13117,7488 14908,8763 13122,7782 "/>
   <polygon class="fil2" points="13104,6803 14868,8110 13109,7095 "/>
   <polygon class="fil2" points="13091,6122 14829,7462 13097,6413 "/>
   <polygon class="fil2" points="13079,5445 14790,6820 13084,5734 "/>
   <polygon class="fil2" points="13066,4773 14751,6182 13071,5060 "/>
   <polygon class="fil2" points="13054,4104 14713,5550 13059,4389 "/>
   <polygon class="fil2" points="13041,3440 14675,4922 13046,3723 "/>
   <path class="fil0" d="M1171 19598l-384 0c-67,0 -122,-54 -122,-122 0,-66 55,-121 122,-121l444 0c43,15 74,56 74,103l278 0c0,-36 -4,-70 -13,-103 -46,-164 -196,-284 -374,-284l-409 0c-145,0 -280,78 -353,204 -34,61 -53,131 -53,201 0,71 19,141 53,202 16,27 35,52 56,75 76,81 183,129 297,129l384 0c67,0 121,55 121,122 0,67 -54,121 -121,121l-438 0c-43,-14 -74,-55 -74,-103l-278 0c0,36 5,70 14,103 45,164 195,285 374,285l402 0c145,0 280,-79 352,-205 35,-61 54,-130 54,-201 0,-71 -19,-140 -54,-202 -72,-126 -207,-204 -352,-204l0 0zm1860 730l-382 -628c2,-1 4,-3 6,-5l2 -1c1,-1 3,-2 4,-4 3,-2 6,-4 9,-6 4,-4 8,-7 11,-10 1,0 1,-1 2,-1 2,-3 5,-5 8,-8 9,-7 17,-15 26,-24 92,-91 155,-205 183,-331 11,-47 16,-96 16,-146 0,-15 0,-31 -1,-47l-4 -49 -1124 0 0 284 609 0 0 0 187 0c-17,32 -40,61 -66,87 -34,34 -74,61 -117,80 -2,0 -3,1 -4,1 -48,20 -98,30 -150,30l-459 0 0 860 284 0 0 -576 175 0c5,0 9,0 14,0l0 0 1 0 3 0 3 0 1 0c3,0 7,0 10,0 2,0 3,0 4,-1 4,0 9,0 13,0l3 0 2 -1c5,0 9,0 14,-1 5,0 9,-1 14,-1 2,-1 4,-1 6,-2 4,0 8,-1 12,-1l1 0c2,-1 3,-1 5,-1 4,-1 7,-1 10,-2 8,-1 18,-3 26,-5l344 565 16 26 333 0 -50 -82zm253 -1259l0 1341 284 0 0 -1341 -284 0zm1645 815l542 0c55,12 94,62 94,119 0,55 -38,104 -91,118l-545 0 0 -237zm870 -79c-23,-41 -52,-76 -86,-107 -5,-4 -9,-8 -15,-12 2,-3 4,-7 6,-10l0 0 1 0 0 -1c0,-1 1,-2 2,-3 33,-61 51,-129 51,-198 0,-69 -18,-137 -51,-197 -1,-2 -2,-4 -3,-6 -72,-126 -208,-204 -353,-204l-706 0 0 289 284 0 0 0 454 0c53,14 90,63 90,118 0,58 -41,108 -98,119l-730 0 0 817 706 0c16,0 31,-2 46,-3 16,1 31,3 47,3 147,0 283,-81 355,-210 33,-60 51,-128 51,-197 0,-70 -18,-138 -51,-198l0 0zm210 526l-44 79 357 0 15 -28 290 -523 -179 -322 -439 794zm1462 0l-567 -1025 -116 -210 -14 -29 -68 0 -14 29 -116 210 -14 26 -1 1 179 321 5 10 131 236 267 482 15 28 357 0 -44 -79zm490 -206l0 -1063 -284 0 0 1348 1065 0 0 -285 -781 0zm983 206l-43 79 356 0 15 -28 290 -523 -179 -322 -439 794zm1462 0l-567 -1025 -116 -210 -14 -29 -68 0 -14 29 -116 210 -14 26 -1 1 179 321 5 10 131 236 267 482 15 28 357 0 -44 -79zm920 -1264l0 917c-74,90 -182,141 -299,141 -61,0 -121,-14 -175,-42l0 -297 -284 0 0 442 18 16c57,50 122,90 193,118 79,32 162,48 248,48 138,0 270,-42 382,-120 78,-54 144,-125 193,-205l8 -13 0 -1005 -284 0zm487 2l0 1341 285 0 0 -1341 -285 0zm1362 1339l284 0 0 -450 -284 -284 0 734zm800 -1339l0 722 -730 -729 -70 0 0 34 0 128 0 169 284 285 194 194 337 337 201 201 68 0 0 -1341 -284 0zm486 0l0 1341 284 0 0 -1341 -284 0zm1731 1259l-383 -628c2,-1 4,-3 7,-5l1 -1c2,-1 3,-2 5,-4 2,-2 5,-4 8,-6 4,-4 8,-7 11,-10 1,0 1,-1 2,-1 3,-3 6,-5 9,-8 8,-7 16,-15 25,-24 92,-91 156,-205 184,-331 10,-47 16,-96 16,-146 0,-15 -1,-31 -2,-47l-4 -49 -1124 0 0 284 609 0 0 0 188 0c-18,32 -41,61 -67,87 -34,34 -73,61 -117,80 -1,0 -3,1 -4,1 -47,20 -97,30 -149,30l-460 0 0 860 284 0 0 -576 176 0c4,0 9,0 13,0l1 0 0 0 3 0 3 0 1 0c3,0 7,0 10,0 2,0 3,0 4,-1 5,0 9,0 13,0l3 0 2 -1c5,0 10,0 15,-1 4,0 9,-1 13,-1 2,-1 4,-1 6,-2 4,0 9,-1 13,-1l0 0c2,-1 3,-1 5,-1 4,-1 7,-1 10,-2 9,-1 18,-3 26,-5l345 565 15 26 333 0 -49 -82zm252 82l284 0 0 -453 -284 -284 0 737zm1143 -1348l-536 536 -266 -266 -271 -270 -70 0 0 331 284 284 131 132 192 191 37 -38 52 -52 16 -15 58 -58 151 -151 0 724 284 0 0 -1348 -62 0zm244 1269l-44 79 356 0 15 -28 290 -523 -178 -322 -439 794zm1461 0l-567 -1025 -116 -210 -13 -29 -69 0 -13 29 -116 210 -15 26 0 1 178 321 6 10 130 236 267 482 15 28 357 0 -44 -79zm206 77l285 0 0 -450 -285 -284 0 734zm801 -1339l0 722 -730 -729 -71 0 0 34 0 128 0 169 285 285 194 194 337 337 201 201 68 0 0 -1341 -284 0z"/>
   <rect class="fil2" y="18061" width="20964" height="137"/>
   <rect class="fil2" y="21095" width="20964" height="137"/>
  </g>
 </g>
</svg>
